<?xml version="1.0" encoding="UTF-8"?>
<svg id="Layer_1" xmlns="http://www.w3.org/2000/svg" version="1.1" viewBox="0 0 800 800">
  <!-- Generator: Adobe Illustrator 29.8.4, SVG Export Plug-In . SVG Version: 2.1.1 Build 6)  -->
  <defs>
    <style>
      .st0 {
        fill: #ffffff;
      }

      .st1 {
        fill: #cf6b9d;
      }
    </style>
  </defs>
  <path class="st0" d="M50,303.3c0-88.7,0-133,17.3-166.9,15.2-29.8,39.4-54,69.2-69.2,33.9-17.3,78.2-17.3,166.9-17.3h193.3c88.7,0,133,0,166.9,17.3,29.8,15.2,54,39.4,69.2,69.2,17.3,33.9,17.3,78.2,17.3,166.9v193.3c0,88.7,0,133-17.3,166.9-15.2,29.8-39.4,54-69.2,69.2-33.9,17.3-78.2,17.3-166.9,17.3h-193.3c-88.7,0-133,0-166.9-17.3-29.8-15.2-54-39.4-69.2-69.2-17.3-33.9-17.3-78.2-17.3-166.9v-193.3h0Z"/>
  <path class="st1" d="M416.2,255.8l-87.3,147.9,93.4,157c1.9,3.6,0,4.3-2.8,4.3h-66.7c-4.7,0-8-.2-9.9-3.4-6.3-12.5-12.5-25-18.8-37.3-6.3-12.4-12.9-25-20-37.8-7-12.8-14-25.8-20.9-39-6.3,12.8-13.2,25.7-20,38.5-6.7,12.8-13.4,25.6-20,38.3-6.6,12.7-13.3,25.3-20.2,37.8-1.3,2.9-3.4,3.2-6.6,3.2h-64.3c-2.5,0-2.8-1.9-1.4-4.2l90.6-152.7-88.3-153.2c-1.6-2.2-.2-4.5,2.3-4.3h66.2c2.9-.2,5.4.9,7,3.4,5.6,12.8,11.9,25.7,18.8,38.5,6.9,12.8,13.8,25.5,20.9,38,7,12.5,14,25.2,20,38,6.3-13.2,12.6-26,19-38.5s13-25.1,19.7-37.8c6.7-12.7,13.2-25.3,19.5-37.8.8-2.7,2.8-4.1,5.6-3.9h61.5c2.3,0,3.3,3.2,2.3,4.8l.4.2Z"/>
  <path class="st1" d="M550.9,571.3c-41.4.6-84.8-16.4-106.6-54.2-10.6-18.1-16-40.9-16-68.1-.2-22.1,5.3-43.9,16-63.1,27.4-49.1,82.7-67.4,135.2-62.6v-94.9c0-2.2.9-3.4,2.8-3.4h59.2c1.6-.2,3,1.2,2.8,2.9v284.6c0,11.7,1.2,23.4,1.9,35.2,0,2-1,4-2.8,4.8-29.2,12.5-60.9,18.6-92.5,18.8ZM579.6,511.6v-131.5c-42.9-11.9-84.5,20.8-84.5,66-1,46.8,39.3,79.1,84.5,65.5Z"/>
</svg>