<?xml version="1.0" encoding="UTF-8"?>
<svg id="Layer_1" xmlns="http://www.w3.org/2000/svg" version="1.1" viewBox="0 0 2500 1992">
  <!-- Generator: Adobe Illustrator 29.8.4, SVG Export Plug-In . SVG Version: 2.1.1 Build 6)  -->
  <defs>
    <style>
      .st0 {
        fill: #634183;
        fill-rule: evenodd;
      }
    </style>
  </defs>
  <path class="st0" d="M519.3.2c-142.6,0-248.2,124.9-243.5,260.3,4.5,130.1-1.4,298.6-43.8,436-42.5,137.7-114.5,225-232,236.2v126.5c117.5,11.2,189.5,98.5,232,236.3,42.4,137.4,48.3,305.9,43.8,436-4.7,135.4,100.8,260.3,243.5,260.3h1461.7c142.6,0,248.2-124.9,243.5-260.3-4.5-130.1,1.4-298.6,43.8-436,42.6-137.8,114.3-225.1,231.8-236.3v-126.5c-117.5-11.2-189.3-98.5-231.8-236.3-42.4-137.4-48.3-305.9-43.8-436C2229.1,125.1,2123.6.2,1980.9.2H519.2h0ZM1694.9,1226.2c0,186.4-139.1,299.5-369.9,299.5h-392.9c-23.4,0-42.4-19-42.4-42.4h0V508.7c0-23.4,19-42.4,42.4-42.4h390.6c192.4,0,318.7,104.2,318.7,264.3s-85,212.9-193.2,230.5v5.9c147.3,16.2,246.6,118.2,246.6,259.2h.1ZM1282.2,600.7h-224v316.4h188.7c145.8,0,226.3-58.7,226.3-163.7s-69.2-152.7-190.9-152.7h0ZM1058.2,1042.6v348.7h232.2c151.9,0,232.3-60.9,232.3-175.4s-82.7-173.3-242.1-173.3h-222.5,0Z"/>
</svg>