<?xml version="1.0" encoding="UTF-8"?>
<svg id="meteor-icon-kit__solid-figma" xmlns="http://www.w3.org/2000/svg" version="1.1" viewBox="0 0 800 800">
  <!-- Generator: Adobe Illustrator 29.8.4, SVG Export Plug-In . SVG Version: 2.1.1 Build 6)  -->
  <defs>
    <style>
      .st0 {
        fill: #fff;
      }
    </style>
  </defs>
  <path class="st0" d="M385.47,65.82h-101.71c-56.17,0-101.71,45.54-101.71,101.71s45.54,101.71,101.71,101.71h101.71V65.82Z"/>
  <path class="st0" d="M414.53,65.82h101.71c56.17,0,101.71,45.54,101.71,101.71s-45.54,101.71-101.71,101.71h-101.71V65.82Z"/>
  <path class="st0" d="M385.47,298.29h-101.71c-56.17,0-101.71,45.54-101.71,101.71s45.54,101.71,101.71,101.71h101.71v-203.41Z"/>
  <path class="st0" d="M385.47,530.77h-101.71c-56.17,0-101.71,45.54-101.71,101.71s45.54,101.71,101.71,101.71,101.71-45.54,101.71-101.71v-101.71Z"/>
  <path class="st0" d="M516.24,501.71c56.17,0,101.71-45.54,101.71-101.71s-45.54-101.71-101.71-101.71-101.71,45.54-101.71,101.71,45.54,101.71,101.71,101.71Z"/>
</svg>