<?xml version="1.0" encoding="UTF-8"?>
<svg id="Layer_1" xmlns="http://www.w3.org/2000/svg" version="1.1" viewBox="0 0 800 800">
  <!-- Generator: Adobe Illustrator 29.8.4, SVG Export Plug-In . SVG Version: 2.1.1 Build 6)  -->
  <defs>
    <style>
      .st0 {
        fill: #ffffff;
      }
    </style>
  </defs>
  <g id="_x32_069a460dcf28295e231f3111e03585e">
    <path class="st0" d="M361,344.3l26.3,81.2h-85.8l25.8-81.2c6-19.5,10.9-42.5,15.9-61.7h1c5,19.1,10.4,41.6,16.8,61.7h0ZM750,165.6v460.3c0,63.3-52.5,115.1-116.7,115.1H166.6c-64.2,0-116.7-51.8-116.7-115.1V165.6c0-63.3,52.5-115.1,116.7-115.1h466.7c64.2,0,116.7,51.8,116.7,115.1h0ZM493.4,564.4l-108.6-329.6h-77.9l-107.1,329.6h63l28.8-93.4h106.1l30.2,93.4h65.6ZM596.5,326.2h-61.5v238.2h61.5v-238.2ZM600,259.7c-.5-18.6-13.4-32.8-34.2-32.8s-34.2,14.2-34.2,32.8,13.4,32.3,33.8,32.3,34.7-14.2,34.7-32.3h0Z"/>
  </g>
</svg>