<?xml version="1.0" encoding="UTF-8"?>
<svg id="Layer_1" xmlns="http://www.w3.org/2000/svg" version="1.1" viewBox="0 0 54 54">
  <!-- Generator: Adobe Illustrator 29.8.4, SVG Export Plug-In . SVG Version: 2.1.1 Build 6)  -->
  <defs>
    <style>
      .st0 {
        fill: #0b63ce;
        fill-rule: evenodd;
      }
    </style>
  </defs>
  <path class="st0" d="M5.69,8.85c0-1.74,1.42-3.16,3.16-3.16h36.3c1.74,0,3.16,1.42,3.16,3.16v36.3c0,1.74-1.42,3.16-3.16,3.16H8.85c-1.74,0-3.16-1.42-3.16-3.16V8.85ZM12.01,12.8c0-.47.32-.79.79-.79h4.73c.47,0,.79.32.79.79v4.73c0,.47-.32.79-.79.79h-4.73c-.47,0-.79-.32-.79-.79v-4.73ZM20.69,12.01c-.47,0-.79.32-.79.79v4.73c0,.47.32.79.79.79h4.73c.47,0,.79-.32.79-.79v-4.73c0-.47-.32-.79-.79-.79h-4.73ZM27.79,12.8c0-.47.32-.79.79-.79h4.73c.47,0,.79.32.79.79v4.73c0,.47-.32.79-.79.79h-4.73c-.47,0-.79-.32-.79-.79v-4.73ZM12.8,19.9c-.47,0-.79.32-.79.79v4.73c0,.47.32.79.79.79h4.73c.47,0,.79-.32.79-.79v-4.73c0-.47-.32-.79-.79-.79h-4.73ZM19.9,20.69c0-.47.32-.79.79-.79h4.73c.47,0,.79.32.79.79v4.73c0,.47-.32.79-.79.79h-4.73c-.47,0-.79-.32-.79-.79v-4.73ZM36.47,19.9c-.47,0-.79.32-.79.79v4.73c0,.47.32.79.79.79h4.73c.47,0,.79-.32.79-.79v-4.73c0-.47-.32-.79-.79-.79h-4.73ZM12.01,28.58c0-.47.32-.79.79-.79h4.73c.47,0,.79.32.79.79v4.73c0,.47-.32.79-.79.79h-4.73c-.47,0-.79-.32-.79-.79v-4.73ZM28.58,27.79c-.47,0-.79.32-.79.79v4.73c0,.47.32.79.79.79h4.73c.47,0,.79-.32.79-.79v-4.73c0-.47-.32-.79-.79-.79h-4.73ZM35.68,28.58c0-.47.32-.79.79-.79h4.73c.47,0,.79.32.79.79v4.73c0,.47-.32.79-.79.79h-4.73c-.47,0-.79-.32-.79-.79v-4.73ZM20.69,35.68c-.47,0-.79.32-.79.79v4.73c0,.47.32.79.79.79h4.73c.47,0,.79-.32.79-.79v-4.73c0-.47-.32-.79-.79-.79h-4.73ZM27.79,36.47c0-.47.32-.79.79-.79h4.73c.47,0,.79.32.79.79v4.73c0,.47-.32.79-.79.79h-4.73c-.47,0-.79-.32-.79-.79v-4.73ZM36.47,35.68c-.47,0-.79.32-.79.79v4.73c0,.47.32.79.79.79h4.73c.47,0,.79-.32.79-.79v-4.73c0-.47-.32-.79-.79-.79h-4.73Z"/>
</svg>