<?xml version="1.0" encoding="UTF-8"?>
<svg id="Layer_1" xmlns="http://www.w3.org/2000/svg" version="1.1" viewBox="0 0 1024 1024">
  <!-- Generator: Adobe Illustrator 29.8.4, SVG Export Plug-In . SVG Version: 2.1.1 Build 6)  -->
  <defs>
    <style>
      .st0 {
        fill: #fff;
      }
    </style>
  </defs>
  <path class="st0" d="M518,542.6l-65.6,191.4h-.2l-50.8,146.2c3.6,1,7,1.8,10.6,2.8h.6c31.6,8.4,64.8,13,99,13s33.6-1,49.8-3.6c22.4-2.8,44-7.6,65-14.2,5.2-1.6,10.4-3.4,15.6-5.2-5.6-12-17.6-38.6-18.2-39.8l-105.8-290.6ZM161.6,361c-20,45.2-33.6,100.8-33.6,151s.6,25.2,1.8,37.6c13.8,142.4,105.8,262,232.2,315.8,5.2,2.2,10.6,4.4,16,6.4l-186-510.6c-16-.6-19,.4-30.4-.2Z"/>
  <path class="st0" d="M860.4,350.8c-8.6-18.6-18.8-36.4-30.2-53.2-3.2-4.8-6.8-9.6-10.2-14.4-43-57.6-101.6-102.8-169.8-129.2-42.8-16.8-89.6-26-138.4-26-120.6,0-228.4,56-298.8,143.4-13,16-24.6,33.2-35,51.2,28.4.2,63.6.2,67.6.2,36.2,0,92-4.4,92-4.4,18.8-1.2,20.8,26.2,2.2,28.4,0,0-18.8,2.2-39.6,3.2l125.8,374,75.6-226.6-53.6-147.2c-18.8-1-36.2-3.2-36.2-3.2-18.8-1-16.4-29.6,2-28.4,0,0,57,4.4,91,4.4s92-4.4,92-4.4c18.6-1.2,21,26.2,2.2,28.4,0,0-18.6,2.2-39.4,3.2l124.6,371.2,34.6-115.2c17.4-44.8,26.2-81.8,26.2-111.4,0-42.6-15.4-72.2-28.6-95.2-17.4-28.6-33.8-52.6-33.8-80.8s24-61.4,58-61.4h4.4c52.4-1.4,69.6,50.6,71.8,86v1.2c.8,14.4.2,25,.2,37.6,0,34.8-6.6,74.2-26.2,123.6l-78,225.6-44.6,131.4c3.6-1.6,7-3.2,10.6-5,113.4-54.8,196-164,213.4-293.4,2.6-17,3.8-34.4,3.8-52,0-57.8-12.8-112.6-35.6-161.6h0Z"/>
</svg>