<?xml version="1.0" encoding="UTF-8"?>
<svg id="Layer_1" xmlns="http://www.w3.org/2000/svg" version="1.1" viewBox="0 0 800 800">
  <!-- Generator: Adobe Illustrator 29.8.4, SVG Export Plug-In . SVG Version: 2.1.1 Build 6)  -->
  <defs>
    <style>
      .st0 {
        fill: #ffffff;
      }
    </style>
  </defs>
  <path class="st0" d="M400,22c208.8,0,378,169.1,378,378s-169.1,378-378,378S22,608.8,22,400,191.2,22,400,22ZM324.8,525.9c5.6,20.4,4.9,39.4-.8,56.5l-2,5.7c-.8,2-1.7,3.8-2.5,5.6-4.4,9.3-10.3,17.7-17.5,25.6-22,23.9-52.6,33-65.9,25.3-14.3-8.2-7.2-42,18.3-69.1,27.4-28.9,66.8-47.5,66.8-47.5h0l3.3-2.1h0ZM637.1,183.8c-17.1-67.2-128.4-89.2-233.8-51.8-62.7,22.3-130.5,57.3-179.3,102.9-58.1,54.2-67.3,101.5-63.5,121.1,13.5,69.6,108.9,115.3,148.2,149v.3c-11.6,5.7-96.2,48.1-116,92.1-21.3,46.2,3.3,79.4,19.3,83.5,49.6,13.8,100.6-11.3,128.1-52,26.5-39.7,24.1-90.6,12.7-115.8,15.6-4.2,34.1-6.1,57.7-3.3,66.2,7.7,79.4,49.2,76.5,66.2-2.8,17-16.5,26.9-21.3,29.8-4.6,2.8-6.1,3.7-5.7,5.7.5,2.8,2.8,2.8,6.6,2.4,5.2-.9,34.5-14.2,35.9-46.3,1.3-40.7-37.4-86-106.3-85.1-28.4.7-46.4,2.9-59.1,8.1-.9-1.3-2-2.4-3.3-3.3-42.5-45.7-121.4-77.9-118.1-138.9,1-22.1,9-80.7,151.2-151.6,116.6-58.2,209.8-42,225.7-6.6,23.2,50.6-49.6,144.6-171,158.2-46.3,5.2-70.4-12.7-76.5-19.3-6.6-7.2-7.5-7.7-10-6.1-3.7,1.8-1.3,8,0,11.8,3.8,9.4,18.4,26,44,34.4,22.1,7.2,76.5,11.3,141.7-14.2,73.2-28.3,130.3-107.2,113.8-173.4l2.4,2.1h0Z"/>
</svg>