<?xml version="1.0" encoding="UTF-8"?>
<svg id="Layer_1" xmlns="http://www.w3.org/2000/svg" version="1.1" viewBox="0 0 800 800">
  <!-- Generator: Adobe Illustrator 29.8.4, SVG Export Plug-In . SVG Version: 2.1.1 Build 6)  -->
  <defs>
    <style>
      .st0 {
        fill: #1554af;
      }
    </style>
  </defs>
  <g id="_x32_069a460dcf28295e231f3111e037552">
    <path class="st0" d="M633.3,50.5H166.6c-64.2,0-116.7,52.5-116.7,116.7v466.7c0,64.2,52.5,116.7,116.7,116.7h466.7c64.2,0,116.7-52.5,116.7-116.7V167.1c0-64.2-52.5-116.7-116.7-116.7h0ZM385.3,406.7c-24.3,24.3-62.5,35.7-105.7,35.7s-21.8-.5-29.7-2v126h-60.5V236.6c21.8-3.9,52.1-6.9,93.2-6.9s77.3,9.4,98.7,27.3c19.8,16.4,32.7,42.6,32.7,73.9s-9.9,58-28.8,75.8h0ZM512.3,571.3c-29.3,0-55.5-6.9-73.4-16.8l11.9-44.1c13.9,8.4,40.2,17.4,62,17.4s38.7-10.9,38.7-26.7-9.9-24.8-39.6-35.2c-47.1-16.4-67-42.2-66.5-70.4,0-42.6,35.2-75.8,91.3-75.8s50.1,6.9,64,14.4l-11.9,43.1c-10.4-6-29.7-13.9-51.1-13.9s-33.8,10.4-33.8,25.3,11.4,22.8,42.2,33.8c43.7,15.9,64,38.1,64.4,73.9,0,43.7-34.2,75.4-98.2,75.4v-.2ZM353.1,333.3c0,39.2-27.8,61.5-73.4,61.5s-22.4-.5-29.7-2.5v-113.1c6.5-1.5,18.3-3,35.2-3,42.2,0,67.9,19.8,67.9,57h0Z"/>
  </g>
</svg>