<?xml version="1.0" encoding="UTF-8"?>
<svg id="Layer_1" xmlns="http://www.w3.org/2000/svg" version="1.1" viewBox="0 0 24 24">
  <!-- Generator: Adobe Illustrator 29.8.4, SVG Export Plug-In . SVG Version: 2.1.1 Build 6)  -->
  <defs>
    <style>
      .st0 {
        fill: #fff;
      }
    </style>
  </defs>
  <path class="st0" d="M22.2,1.8H4.3c-1.4,0-2.3,1.5-1.6,2.7l1.8,3.4H1.2c-.2,0-.4,0-.6.2-.2.1-.3.2-.4.4-.2.4-.2.8,0,1.2l5.8,10.9c.1.2.3.4.4.5.4.2.9.2,1.2,0,.2-.1.3-.3.4-.5l1.6-2.9,2,3.7c.7,1.3,2.6,1.3,3.3,0L23.8,4.4c.6-1.2-.2-2.6-1.6-2.6ZM14.2,9l-3.9,7.3c0,.1-.2.2-.3.3-.3.2-.6.2-.8,0-.1,0-.2-.2-.3-.3l-3.8-7.2c-.1-.2-.1-.5,0-.8,0-.1.2-.2.3-.3.1,0,.3-.1.4-.1h7.7c.1,0,.3,0,.4,0,.1,0,.2.2.3.3.1.2.1.5,0,.8h0Z"/>
</svg>