<?xml version="1.0" encoding="UTF-8"?>
<svg id="Layer_1" xmlns="http://www.w3.org/2000/svg" version="1.1" viewBox="0 0 24 24">
  <!-- Generator: Adobe Illustrator 29.8.4, SVG Export Plug-In . SVG Version: 2.1.1 Build 6)  -->
  <defs>
    <style>
      .st0 {
        fill: #ff3a6c;
      }
    </style>
  </defs>
  <path class="st0" d="M21.4,2.5H4.9c-1.3,0-2.1,1.4-1.5,2.5l1.7,3.1h-3c-.2,0-.4,0-.6.2-.2,0-.3.2-.4.4-.2.4-.2.7,0,1.1l5.4,10.1c0,.2.3.4.4.5.4.2.8.2,1.1,0,.2,0,.3-.3.4-.5l1.5-2.7,1.8,3.4c.6,1.2,2.4,1.2,3,0l8.2-15.7c.6-1.1-.2-2.4-1.5-2.4ZM14,9.1l-3.6,6.7c0,0-.2.2-.3.3-.3.2-.6.2-.7,0,0,0-.2-.2-.3-.3l-3.5-6.6v-.7c0,0,.2-.2.3-.3h7.8c0,0,.2.2.3.3,0,.2,0,.5,0,.7h0Z"/>
</svg>