<?xml version="1.0" encoding="UTF-8"?>
<svg id="Layer_1" xmlns="http://www.w3.org/2000/svg" version="1.1" viewBox="0 0 1024 1024">
  <!-- Generator: Adobe Illustrator 29.8.4, SVG Export Plug-In . SVG Version: 2.1.1 Build 6)  -->
  <defs>
    <style>
      .st0 {
        fill: #2377bc;
      }
    </style>
  </defs>
  <path class="st0" d="M518.8,546.6l-74.2,216.6h-.2l-57.5,165.4c4.1,1.1,7.9,2,12,3.2h.7c35.8,9.5,73.3,14.7,112,14.7s38-1.1,56.3-4.1c25.3-3.2,49.8-8.6,73.5-16.1,5.9-1.8,11.8-3.8,17.7-5.9-6.3-13.6-19.9-43.7-20.6-45l-119.7-328.8h0ZM115.5,341.2c-22.6,51.1-38,114-38,170.8s.7,28.5,2,42.5c15.6,161.1,119.7,296.4,262.7,357.3,5.9,2.5,12,5,18.1,7.2L149.9,341.4c-18.1-.7-21.5.5-34.4-.2h0Z"/>
  <path class="st0" d="M906.2,329.6c-9.7-21-21.3-41.2-34.2-60.2-3.6-5.4-7.7-10.9-11.5-16.3-48.7-65.2-115-116.3-192.1-146.2-48.4-19-101.4-29.4-156.6-29.4-136.5,0-258.4,63.4-338.1,162.2-14.7,18.1-27.8,37.6-39.6,57.9,32.1.2,72,.2,76.5.2,41,0,104.1-5,104.1-5,21.3-1.4,23.5,29.6,2.5,32.1,0,0-21.3,2.5-44.8,3.6l142.3,423.2,85.5-256.4-60.6-166.5c-21.3-1.1-41-3.6-41-3.6-21.3-1.1-18.6-33.5,2.3-32.1,0,0,64.5,5,103,5s104.1-5,104.1-5c21-1.4,23.8,29.6,2.5,32.1,0,0-21,2.5-44.6,3.6l141,420,39.1-130.3c19.7-50.7,29.6-92.6,29.6-126,0-48.2-17.4-81.7-32.4-107.7-19.7-32.4-38.2-59.5-38.2-91.4s27.2-69.5,65.6-69.5h5c59.3-1.6,78.7,57.3,81.2,97.3v1.4c.9,16.3.2,28.3.2,42.5,0,39.4-7.5,84-29.6,139.8l-88.3,255.3-50.5,148.7c4.1-1.8,7.9-3.6,12-5.7,128.3-62,221.8-185.6,241.4-332,2.9-19.2,4.3-38.9,4.3-58.8,0-65.4-14.5-127.4-40.3-182.8h.2Z"/>
</svg>