<?xml version="1.0" encoding="UTF-8"?>
<svg id="Layer_1" xmlns="http://www.w3.org/2000/svg" version="1.1" viewBox="0 0 24 24">
  <!-- Generator: Adobe Illustrator 30.4.0, SVG Export Plug-In . SVG Version: 2.1.4 Build 226)  -->
  <defs>
    <style>
      .st0 {
        fill: none;
        stroke: #fff;
        stroke-linecap: round;
        stroke-linejoin: round;
        stroke-width: 1.7px;
      }
    </style>
  </defs>
  <path class="st0" d="M9.4,19.1c-4.72,1.42-4.72-2.36-6.61-2.83M16.01,21.93v-3.65c.07-.91-.25-1.81-.89-2.46,2.97-.33,6.08-1.45,6.08-6.61,0-1.32-.51-2.59-1.42-3.54.43-1.15.4-2.43-.08-3.56,0,0-1.11-.33-3.69,1.4-2.16-.59-4.45-.59-6.61,0-2.58-1.73-3.69-1.4-3.69-1.4-.49,1.13-.52,2.41-.08,3.56-.92.96-1.42,2.24-1.42,3.57,0,5.12,3.12,6.24,6.08,6.61-.63.65-.95,1.54-.89,2.44v3.65"/>
</svg>