<?xml version="1.0" encoding="utf-8"?>
<!-- Generator: Adobe Illustrator 25.4.1, SVG Export Plug-In . SVG Version: 6.00 Build 0)  -->
<svg version="1.1" id="Layer_1" xmlns="http://www.w3.org/2000/svg" xmlns:xlink="http://www.w3.org/1999/xlink" x="0px" y="0px"
	 viewBox="0 0 400 400" style="enable-background:new 0 0 400 400;" xml:space="preserve">
<style type="text/css">
	.st0{fill:#FFFFFF;}
</style>
<path class="st0" d="M72,7.52C42.29,17.7,18.47,40.45,6.16,70.7C0,86.22,0,87.02,0,199.98C0,319.63,0,320.97,12.58,344.8
	c10.17,19.27,34.26,39.62,58.35,48.98c10.71,4.28,23.82,4.82,129.02,4.55c103.32-0.27,118.31-0.8,128.48-4.82
	c38.01-14.99,61.83-44.97,69.06-86.99c4.82-28.11,2.14-213.61-3.48-229.93c-12.05-36.14-41.76-63.71-77.36-72
	c-6.69-1.34-57.82-2.41-119.92-2.41C94.76,2.17,87.26,2.44,72,7.52z M316.12,34.83c17.13,5.62,35.33,21.41,44.7,39.08l7.49,13.38
	l-0.27,112.42c0,100.11-0.54,113.76-4.55,122.6c-8.03,17.67-20.88,31.32-37.21,39.62l-15.79,8.03l-105.73,0.8
	c-77.36,0.54-108.94,0-117.78-2.41c-22.75-6.16-39.08-20.08-51.66-43.63c-5.89-10.71-5.89-12.58-5.89-123.4V88.9l7.23-13.65
	c10.97-20.88,30.25-36.67,50.86-42.03C112.69,26.8,295.78,28.14,316.12,34.83z"/>
<path class="st0" d="M288.02,83.81c-21.15,17.67,5.35,48.18,26.77,30.78c9.1-7.23,8.57-23.02-1.34-31.32
	C304.08,74.98,298.19,75.25,288.02,83.81z"/>
<path class="st0" d="M178,115.4c-40.95,9.1-68.79,47.11-66.38,90.47c1.34,24.09,8.57,39.62,25.7,56.75
	c19.54,19.27,31.85,24.09,62.1,24.09c20.61,0,27.84-1.07,38.01-5.89c16.6-8.03,37.21-31.05,44.43-50.06
	c18.47-48.45-10.44-103.06-61.3-115.1C200.76,111.11,197.81,111.11,178,115.4z M221.64,146.45c6.69,2.94,16.6,10.44,21.68,16.6
	c28.64,33.19,14.45,79.77-28.37,94.49c-14.72,4.82-16.06,4.82-29.44,0.54c-43.9-13.92-59.42-61.83-30.78-94.49
	C173.99,141.63,197.54,135.74,221.64,146.45z"/>
</svg>
