<?xml version="1.0" encoding="utf-8"?>
<!-- Generator: Adobe Illustrator 25.4.1, SVG Export Plug-In . SVG Version: 6.00 Build 0)  -->
<svg version="1.1" id="Layer_1" xmlns="http://www.w3.org/2000/svg" xmlns:xlink="http://www.w3.org/1999/xlink" x="0px" y="0px"
	 viewBox="0 0 400 400" style="enable-background:new 0 0 400 400;" xml:space="preserve">
<style type="text/css">
	.st0{fill:#FFFFFF;}
</style>
<path class="st0" d="M87.2,5.4c-20.1,4.3-28.5,8.1-46.2,21.2c-18.5,14-29,29.5-36.8,55.6C0.8,94.2,0,113.6,0,203.2
	c0,95.6,0.5,108.2,4.8,122.4c9.7,30.6,27.9,51.8,56.9,66l17.5,8.6l116.5,0.8c103.1,0.5,117.9,0.3,130.2-3.8
	c34.1-11.3,59.9-37.6,69.8-71.4c3.8-12.9,4.3-30.9,4.3-122.7c0-118.1-0.8-125.1-16.1-150.1c-15.6-25.5-39.7-41.6-72-47.8
	C285.9,0.3,111.4,0.6,87.2,5.4z M316.2,35.7c18.5,5.9,38.4,23.4,47.5,41.6l6.7,13.4v110.9c0,124.6,0.3,123.5-20.4,146.3
	c-12.6,14-25,20.4-47.2,24.2c-23.1,4-206.4,2.1-219.6-2.1c-15.6-5.1-34.9-22-44-38.1l-8.3-14.8V203V88.9l7.2-13.7
	C47,58.3,63.6,43.8,81.6,36.8c12.6-5.1,21.2-5.4,116.8-5.4C288.9,31.2,303.4,31.7,316.2,35.7z"/>
<path class="st0" d="M107.4,109c-7.8,7.8-7,19.9,1.6,26.6s14,7,21.7,0.8c8.9-7,10.2-16.9,3.5-25.5C127.2,102,115.2,101.2,107.4,109z
	"/>
<path class="st0" d="M109,176.7c-3.5,5.1-4.3,15.8-4.3,63.9c0,57.2,0,58.3,6.2,63.9c7.5,7.2,13.2,7.5,18.8,1.1
	c4-4.3,4.6-12.9,4.6-65.2c-0.3-65-1.1-69.5-14.2-69.5C116,170.8,111.4,173.2,109,176.7z"/>
<path class="st0" d="M216.6,174.5c-12.6,5.6-27.9,22.6-32.5,35.7c-3.2,9.1-4.3,23.1-4.3,51c0,34.9,0.5,38.9,5.4,43.8
	c2.9,3,7.2,5.4,9.4,5.4s6.4-2.4,9.4-5.4c4.8-4.8,5.4-8.9,5.4-43c0-40.5,2.1-49.1,14-57.4c3.5-2.4,11.5-4.3,18.3-4.3
	c10.2,0,13.7,1.3,19.3,7.2c11.8,12.9,12.9,17.4,12.9,56.9c0,37.3,0,37.9,6.7,42.1c6.2,4,7.2,4,13.4,0c3.8-2.4,6.7-5.9,7-7.8
	c1.1-22.8,0.3-70.6-1.3-81.6c-4-26.9-29.8-46.7-59.9-46.2C231.1,171,220.7,172.6,216.6,174.5z"/>
<path class="st0" d="M-390,57.5c0,0,83,57.1,183,24.4S-51,57.5-51,57.5v116.9l-339,3.5V57.5z"/>
</svg>
