<?xml version="1.0" encoding="utf-8"?>
<!-- Generator: Adobe Illustrator 26.0.1, SVG Export Plug-In . SVG Version: 6.00 Build 0)  -->
<svg version="1.1" id="Layer_1" xmlns="http://www.w3.org/2000/svg" xmlns:xlink="http://www.w3.org/1999/xlink" x="0px" y="0px"
	 viewBox="0 0 694 980" style="enable-background:new 0 0 694 980;" xml:space="preserve">
<style type="text/css">
	.st0{fill:#606060;}
	.st1{fill-rule:evenodd;clip-rule:evenodd;fill:#181818;}
	.st2{fill-rule:evenodd;clip-rule:evenodd;fill:#606060;}
</style>
<g transform="translate(0.000000,980.000000) scale(0.100000,-0.100000)">
	<path class="st0" d="M3190,9790c-716-67-1345-318-1895-756c-141-113-416-388-529-529C95,7662-149,6592,91,5542
		c74-323,218-684,386-968c26-45,725-1092,1552-2327L3534,1l21,32c62,91,2851,4448,2905,4537c184,304,335,699,410,1070
		c50,251,64,398,65,685c0,264-9,376-46,595c-237,1401-1332,2528-2729,2810c-80,16-204,37-275,46C3733,9794,3327,9803,3190,9790z
		 M3787,7821c254-56,485-172,683-343c245-211,420-513,491-848c33-152,33-438,0-590c-117-551-498-979-1021-1149
		c-174-56-245-66-470-66c-178,0-219,3-309,23c-306,69-558,208-772,429c-210,215-342,464-406,763c-26,122-26,468,0,590
		c64,299,196,548,406,763c242,249,538,397,896,451c17,2,208.1,4.1,312.1,2.1C3744.1,7844.1,3716,7837,3787,7821z"/>
</g>
<g id="shape4-7_00000053547101973882906840000013755560566161731489_" transform="translate(300.472,-158.74)">
	<ellipse class="st1" cx="47" cy="506.1" rx="192.4" ry="192.4"/>
</g>
<g id="shape4-7" transform="translate(300.472,-158.74)">
	<ellipse class="st2" cx="47" cy="506.1" rx="152.1" ry="152.1"/>
</g>
</svg>
