<?xml version="1.0" encoding="utf-8"?>
<!-- Generator: Adobe Illustrator 25.4.1, SVG Export Plug-In . SVG Version: 6.00 Build 0)  -->
<svg version="1.1" id="Layer_1" xmlns="http://www.w3.org/2000/svg" xmlns:xlink="http://www.w3.org/1999/xlink" x="0px" y="0px"
	 viewBox="0 0 160 129" style="enable-background:new 0 0 160 129;" xml:space="preserve">
<style type="text/css">
	.st0{fill:#FFFFFF;}
	.st1{opacity:0.1;enable-background:new    ;}
	.st2{fill:#AF6262;}
	.st3{fill:#86A1BF;}
	.st4{fill:#FBD7C7;}
	.st5{fill:#937663;}
</style>
<path class="st0" d="M45.5,89.9c-3.5,1.3-12.3,4.1-15.9,3.6c-4.4-0.5-6.5-2.9-6.7-6.3c-0.3-5.1,18.7-9.1,18.7-9.1L45.5,89.9z"/>
<path class="st1" d="M21.1,105.4c9.6,1.9,22.5-6.4,27.6-8.8s8.2,7,9.7,8.9c2.7,3.3,4.2,5.6,9.9,7.8c5.8,2.2,7.8,3.4,15.3-3.5
	c7.6-6.8,9.7-3.7,13.8-1.8c4.1,1.9,14.2,10.5,15.9,11.4c1.8,0.9,1.1-2.6,3.4-1.7c2.4,1.1,9.9,5,13.4,2.8c3.4-2.3-6.1-7.2-11.2-9.5
	c-24.4-10.7-8.8-14.1-20-21.6S77.6,93,69.7,87.9c-8.4-4.1-17.2-10.2-25-5.7C37.1,86.8,6.7,102.6,21.1,105.4z"/>
<path class="st2" d="M44.7,89.9C41.4,91,33.3,93.4,29.9,93c-4.1-0.4-6-2.5-6.2-5.4c-0.3-4.4,17.4-7.8,17.4-7.8L44.7,89.9z"/>
<path class="st0" d="M47.4,90.2c1.9-0.2,1.4,3,0.4,4s-8.3,4.7-12.6,6.3c-4.3,1.7-11.3,3.1-14.8,2.6s-3.7-3.8-2.1-5.1
	c1.7-1.2,7-2.5,10.1-5.9C30.6,89.6,35,84,35,84L47.4,90.2z"/>
<path class="st2" d="M48.7,90.5c-2.3,1-12.6,6.8-17.9,8.3c-5.2,1.6-10.5,1.7-12.7,0.3c-1.4-0.9,4-2.1,6.9-4.5
	c4.2-3.2,5.8-5.9,5.8-5.9L48.7,90.5z"/>
<path class="st3" d="M47.9,78.9c-3-0.3,2.1,0.4,0.2,5.2c-1.8,4.9-0.3,7.5,1.9,8.3c2.2,0.9,2.7,1.9,3.6,3.2s5.6,4.7,6.8,7.6
	s4.3,4.6,6.6,6.1s5.1,4.9,9.1,2.7c4-2.3,5.8-5,9.4-7.2c4.7-2.9,15-12,17.3-15.5s2.1-5.9,2.1-5.9L80.4,73.1c0,0-8.4,8-8.6,9
	s1.1,3.9,0.8,5.1S72,89.1,72,89.1S54.1,79.5,47.9,78.9z"/>
<path class="st3" d="M80.6,74.9L71.9,83c0,0-0.1-5-1.5-6.7c-1.6-2-7.5-17.2-7.5-17.2s-7.5,14.5-8.6,17.1c-1.1,2.7-4.5,9.3-4.7,10.9
	s-0.1,3.2-1.9,3.4s-15-0.1-17.6-1.6c3-3.1,1.4-0.6,3.9-4.1c2-1.2,3.8-5.6,4.8-8.4c1-2.7,2.2-5,4-8.5S50,48.6,52,44.6
	c2-3.8,6.5-8.8,13.1-4.7c6.8,4.3,7.9,5.4,11.7,9.7c3.5,4,7.3,8.8,7.3,8.8L80.6,74.9z"/>
<path class="st4" d="M87.9,28.2c-5,0.1-13.4-1.6-17.7-2.6s-7.6-1.7-9.5,2.6s-6.6,19.9-7,21.5s-1.9,8.3-2.1,10.5
	c-0.1,1.3,1.3,6,2,6.7s0.9-1,1-0.6c0.2,0.3,0.6,2.7,1.4,3.1c0.8,0.3,0.8-1.6,1.1-1.4s1,3.2,2.2,3.1c1-0.1,0.5-2.4,0.5-2.4
	s0.8,3.1,1.7,2.8c1.2-0.4,1-2.4,0.8-4.9c-0.2-3.2,0.1-4.4,0.1-4.4s1.1-0.3,1.3-1.3s0.5-5.5-0.2-6.7s-2.6-2.9-2.6-3.9s1.1-4.6,3.7-8
	c2.6-3.4,3.5-6.5,3.5-6.5s3.8,2.1,9.1,3.8c5.3,1.6,10.5,2.6,10.5,2.6L87.9,28.2z"/>
<path class="st0" d="M95.9,29.7c-3.3-0.8-4.1-1.9-7.5-2.2s-4.2-0.2-4.9,0.9s-1.5,5-1,8.5s1.8,5.2,2,7.2s0.2,5,0.9,8.2
	c0.6,3.2,1.3,4.9,1.3,4.9s-2,0.9-3.3,1.6c-1.4,0.7-2.5,7-3.9,10.4s-3.5,5.7,0.6,11.2c4.5,5.9,9.7,12.4,16.2,12.9
	c4,0.3,6.4,0.1,7.6-1.9c1.3-2,2.2-5.3,3.2-6.4s12.1-11.1,13.2-13.6s0.3-2.7,1.9-4.5s3.5-7.4,2.6-11.2s-6.7-12.4-10.3-16.8
	C106.4,29.3,95.9,29.7,95.9,29.7z"/>
<path class="st4" d="M108.8,33.6c0,0,0.1,1.3,1.5,2.2s4.6,3.8,4.7,6.2s-6.3,9.7-11.6,9.3c-5.3-0.4-7.5-7.3-7.4-8.6
	c0.1-1.3,5.4-9.6,5.4-9.6L108.8,33.6z"/>
<path class="st4" d="M111.4,29.6c0,0,1.6,1-1,3.9c-2.6,2.8-3.3,1.9-3.3,1.9s-0.7,3.8-4.5,5.6s-9.9,4.9-12.3,2.4
	c-2.2-2.3-1.7-11.4-1.2-16.7s4.3-12.2,10-13.8c5.2-1.4,13,0.9,13.9,7.2S111.4,29.6,111.4,29.6z"/>
<path class="st5" d="M111.4,29.6L111.4,29.6c0,0,2.5-3.2,1.6-9.5s-8.7-8.6-13.9-7.2c-2.5,0.7-4.6,2.4-6.2,4.5
	c0.3,1.2-0.7,3.6,1.4,4.9c2.4,1.4,5.2-0.7,8.2,0.8s2,9.3,2,9.3l2.2-0.1c0,0,0.6-2,2.2-2.6C110,29.2,110.8,29.3,111.4,29.6z"/>
<path class="st4" d="M108.9,65.1c0,0,3.6,2.8,6.7,3.1c3.1,0.3,6.2-0.8,6.2-0.8s-1.2,5.9-1.4,8.8c-0.2,2.9,0,7.5-1.4,11.4
	s-5.6,17.2-5.2,17.9c0.3,0.7,8.8,4.2,10.3,5s4.1,2.7,4.2,3.2c0,0.1,0,0.4-0.5,0.7c1,0.8,2.8,2.1,2.2,2.8c-0.5,0.6-1.1,0.6-1.5,0.4
	c0.1,0.1,1.2,0.9,0.8,1.5c-0.7,0.8-2.5-0.1-3.4-0.7c0.3,0.3,0.3,0.7-0.2,1.2c-0.6,0.6-2.8-0.3-4.1-1.1c-1.3-0.8-7.3-4.1-7.3-4.1
	s0.7,1.6,0.5,2.8s-1.4,1.3-1.9,0.8s-2.2-3.6-2.7-3.9s-1.3-1.6-1.2-2.3c0.1-0.7-0.1-1.5-0.7-2.9s-0.9-2-0.5-6.5
	c0.5-4.5,0.2-10.7,1.3-15.3c0.7-3.2,1.6-5.2,1.4-6.2c-0.1-1-1.7-5.8-1.8-9.8C108.6,68,108.9,65.1,108.9,65.1z"/>
<path class="st4" d="M127.3,113.3"/>
</svg>
