<svg id="svg" version="1.1" xmlns="http://www.w3.org/2000/svg" xmlns:xlink="http://www.w3.org/1999/xlink" width="400" height="400" viewBox="0, 0, 400,400"><g id="svgg"><path id="path0" d="M369.441 120.123 L 346.330 131.427 318.920 182.014 C 290.382 234.680,291.285 233.035,291.061 232.767 C 290.984 232.675,290.167 216.670,289.245 197.200 C 288.323 177.730,287.459 160.223,287.326 158.296 L 287.085 154.791 263.785 166.572 C 250.971 173.051,240.422 178.288,240.343 178.210 C 240.264 178.131,240.246 224.402,240.302 281.033 C 240.357 337.665,240.520 384.000,240.663 384.000 C 240.806 384.000,253.158 377.835,268.112 370.300 L 295.301 356.600 295.022 322.800 L 294.743 289.000 300.271 294.421 C 314.669 308.539,339.740 332.612,340.146 332.708 C 340.396 332.768,343.660 331.445,347.400 329.768 C 351.140 328.091,359.150 324.505,365.200 321.800 C 371.250 319.094,380.070 315.138,384.800 313.008 C 389.530 310.878,393.895 308.952,394.500 308.728 C 395.105 308.505,395.600 308.157,395.600 307.955 C 395.600 307.619,388.324 299.179,348.067 252.816 C 340.513 244.117,334.248 236.797,334.143 236.550 C 333.956 236.108,335.089 233.497,340.714 221.400 C 343.977 214.382,349.042 203.472,356.358 187.700 C 359.241 181.485,363.959 171.315,366.842 165.100 C 369.725 158.885,373.797 150.110,375.892 145.600 C 377.986 141.090,380.825 134.970,382.199 132.000 C 383.574 129.030,386.524 122.658,388.755 117.840 C 390.987 113.021,392.754 109.021,392.682 108.949 C 392.611 108.877,382.152 113.906,369.441 120.123 M8.499 212.825 L 8.600 316.449 12.600 318.549 C 14.800 319.703,24.700 324.756,34.600 329.778 C 44.500 334.800,55.120 340.210,58.200 341.801 C 61.280 343.391,70.820 348.262,79.400 352.624 C 87.980 356.986,100.580 363.400,107.400 366.878 C 114.220 370.355,123.242 374.946,127.449 377.079 L 135.097 380.958 146.049 375.822 C 152.072 372.998,158.214 370.127,159.698 369.443 L 162.396 368.200 162.398 342.324 L 162.400 316.447 151.600 297.229 C 145.660 286.660,140.800 277.962,140.800 277.900 C 140.800 277.838,145.660 275.363,151.600 272.400 L 162.400 267.012 162.400 239.295 L 162.400 211.577 149.060 192.362 L 135.721 173.147 72.635 141.173 C 37.938 123.588,9.290 109.200,8.974 109.200 C 8.475 109.200,8.412 122.906,8.499 212.825 M74.062 193.900 C 81.852 198.025,93.480 204.190,99.902 207.600 L 111.577 213.800 111.588 229.143 C 111.598 241.264,111.495 244.442,111.100 244.280 C 110.825 244.166,99.170 237.880,85.200 230.310 L 59.800 216.547 59.695 201.473 C 59.638 193.183,59.659 186.400,59.743 186.400 C 59.828 186.400,66.271 189.775,74.062 193.900 M73.446 268.153 C 80.681 271.977,92.180 278.086,99.000 281.730 L 111.400 288.354 111.505 303.758 L 111.609 319.162 108.486 317.481 C 106.768 316.556,95.066 310.226,82.481 303.414 L 59.600 291.028 59.600 276.114 C 59.600 267.911,59.756 261.200,59.946 261.200 C 60.136 261.200,66.211 264.329,73.446 268.153 " stroke="none" fill="#bcbcbc" fill-rule="evenodd"></path><path id="path1" d="M180.399 66.100 C 180.399 75.395,180.282 96.950,180.141 114.000 L 179.884 145.000 182.929 146.490 C 185.885 147.937,186.024 148.072,187.687 151.074 C 188.629 152.776,189.866 154.625,190.435 155.184 C 191.004 155.743,191.559 156.670,191.669 157.245 C 191.778 157.820,195.408 164.509,199.734 172.110 L 207.600 185.928 207.600 215.272 L 207.600 244.616 199.600 248.600 L 191.600 252.584 191.600 256.070 L 191.600 259.555 199.700 275.202 L 207.800 290.849 207.694 316.983 L 207.589 343.117 199.494 347.538 L 191.400 351.959 191.532 356.879 L 191.663 361.800 215.332 372.691 C 228.349 378.681,239.315 383.695,239.701 383.834 C 240.367 384.074,240.397 379.085,240.301 281.219 L 240.200 178.352 216.053 167.276 C 202.773 161.184,191.911 156.034,191.916 155.832 C 191.921 155.630,198.737 151.719,207.063 147.142 C 215.388 142.565,222.257 138.554,222.326 138.229 C 222.395 137.904,222.798 137.528,223.221 137.393 C 223.959 137.159,223.994 136.556,224.095 122.614 L 224.200 108.078 238.319 115.527 C 246.185 119.677,252.183 123.070,251.862 123.188 C 251.539 123.307,256.274 126.036,262.639 129.400 L 273.991 135.400 273.996 141.266 L 274.000 147.132 280.620 150.740 C 286.999 154.216,287.252 154.316,287.574 153.474 C 287.758 152.993,291.709 143.523,296.354 132.429 C 300.999 121.335,304.800 112.046,304.800 111.786 C 304.800 111.395,181.425 49.200,180.649 49.200 C 180.512 49.200,180.400 56.805,180.399 66.100 M59.781 201.600 C 59.781 209.850,59.834 213.225,59.899 209.100 C 59.964 204.975,59.964 198.225,59.899 194.100 C 59.834 189.975,59.781 193.350,59.781 201.600 M59.781 276.000 C 59.781 284.250,59.834 287.625,59.899 283.500 C 59.964 279.375,59.964 272.625,59.899 268.500 C 59.834 264.375,59.781 267.750,59.781 276.000 M298.400 293.000 C 299.146 293.770,299.847 294.400,299.957 294.400 C 300.067 294.400,299.546 293.770,298.800 293.000 C 298.054 292.230,297.353 291.600,297.243 291.600 C 297.133 291.600,297.654 292.230,298.400 293.000 M310.400 304.600 C 311.146 305.370,311.847 306.000,311.957 306.000 C 312.067 306.000,311.546 305.370,310.800 304.600 C 310.054 303.830,309.353 303.200,309.243 303.200 C 309.133 303.200,309.654 303.830,310.400 304.600 M322.400 316.200 C 323.146 316.970,323.847 317.600,323.957 317.600 C 324.067 317.600,323.546 316.970,322.800 316.200 C 322.054 315.430,321.353 314.800,321.243 314.800 C 321.133 314.800,321.654 315.430,322.400 316.200 M334.400 327.800 C 335.146 328.570,335.847 329.200,335.957 329.200 C 336.067 329.200,335.546 328.570,334.800 327.800 C 334.054 327.030,333.353 326.400,333.243 326.400 C 333.133 326.400,333.654 327.030,334.400 327.800 " stroke="none" fill="#948c94" fill-rule="evenodd"></path><path id="path2" d="M153.200 12.133 C 153.200 12.353,153.092 12.426,152.961 12.294 C 152.830 12.163,151.885 12.560,150.861 13.177 C 149.837 13.794,148.505 14.415,147.900 14.557 C 147.295 14.699,146.800 15.002,146.800 15.231 C 146.800 15.460,146.620 15.536,146.400 15.400 C 146.180 15.264,146.000 15.354,146.000 15.600 C 146.000 15.846,145.820 15.936,145.600 15.800 C 145.380 15.664,145.200 15.773,145.200 16.043 C 145.200 16.313,145.085 16.419,144.945 16.278 C 144.805 16.138,144.220 16.345,143.645 16.738 C 143.070 17.131,139.000 19.237,134.600 21.418 C 130.200 23.600,126.540 25.524,126.466 25.695 C 126.392 25.865,126.167 25.903,125.966 25.779 C 125.765 25.655,125.600 25.743,125.600 25.976 C 125.600 26.209,125.465 26.377,125.300 26.348 C 124.764 26.255,122.400 27.366,122.400 27.711 C 122.400 27.896,122.220 27.936,122.000 27.800 C 121.780 27.664,121.600 27.773,121.600 28.043 C 121.600 28.313,121.492 28.426,121.361 28.294 C 121.230 28.163,120.285 28.560,119.261 29.177 C 118.237 29.794,116.918 30.412,116.328 30.550 C 115.738 30.688,114.995 31.062,114.676 31.382 C 114.356 31.701,113.984 31.850,113.848 31.714 C 113.711 31.578,113.600 31.707,113.600 32.000 C 113.600 32.293,113.482 32.415,113.337 32.270 C 113.192 32.125,112.850 32.192,112.578 32.419 C 112.305 32.645,108.335 34.723,103.756 37.037 C 99.177 39.350,95.227 41.412,94.978 41.618 C 94.730 41.824,94.408 41.875,94.263 41.730 C 94.118 41.585,94.000 41.707,94.000 42.000 C 94.000 42.293,93.890 42.424,93.756 42.289 C 93.622 42.155,92.832 42.475,92.000 43.000 C 91.168 43.525,90.378 43.845,90.244 43.711 C 90.110 43.576,90.000 43.687,90.000 43.957 C 90.000 44.227,89.835 44.345,89.634 44.221 C 89.433 44.097,89.208 44.131,89.134 44.298 C 88.984 44.637,86.084 46.089,84.100 46.819 C 83.385 47.082,82.800 47.466,82.800 47.672 C 82.800 47.878,82.620 47.936,82.400 47.800 C 82.180 47.664,82.000 47.773,82.000 48.043 C 82.000 48.313,81.890 48.424,81.756 48.289 C 81.622 48.155,80.857 48.445,80.056 48.934 C 79.255 49.423,75.000 51.618,70.600 53.811 C 66.200 56.005,62.468 57.980,62.306 58.200 C 62.110 58.466,62.008 58.466,62.000 58.200 C 61.992 57.940,61.885 57.943,61.694 58.208 C 61.347 58.689,59.133 59.771,58.700 59.670 C 58.535 59.631,58.400 59.791,58.400 60.024 C 58.400 60.257,58.235 60.345,58.034 60.221 C 57.833 60.097,57.608 60.131,57.534 60.298 C 57.376 60.653,53.093 62.993,52.800 62.884 C 52.362 62.721,51.200 63.278,51.200 63.651 C 51.200 63.869,51.020 63.936,50.800 63.800 C 50.580 63.664,50.400 63.754,50.400 64.000 C 50.400 64.246,50.235 64.345,50.034 64.221 C 49.833 64.097,49.608 64.133,49.534 64.301 C 49.460 64.469,45.260 66.675,40.200 69.203 C 35.140 71.731,30.940 73.936,30.866 74.102 C 30.792 74.269,30.579 74.311,30.393 74.196 C 30.207 74.081,29.924 74.215,29.764 74.493 C 29.603 74.772,29.612 74.873,29.784 74.719 C 29.955 74.564,32.009 75.457,34.348 76.702 C 36.687 77.948,39.770 79.577,41.200 80.323 C 49.687 84.748,51.765 85.899,51.862 86.231 C 51.922 86.434,42.174 91.444,30.202 97.365 C 18.229 103.285,8.523 108.275,8.633 108.453 C 8.743 108.631,15.710 112.224,24.116 116.437 C 32.522 120.650,39.580 124.228,39.800 124.387 C 40.020 124.547,51.180 130.223,64.600 137.000 C 78.020 143.777,99.570 154.689,112.488 161.247 L 135.977 173.172 152.088 165.119 C 160.950 160.690,170.720 155.754,173.800 154.150 C 176.880 152.547,179.702 151.227,180.071 151.217 C 180.441 151.208,180.993 150.950,181.298 150.645 C 181.603 150.340,182.702 149.658,183.741 149.131 L 185.629 148.171 167.914 139.014 C 148.632 129.046,116.011 112.158,98.090 102.867 C 88.683 97.989,86.888 96.925,87.421 96.536 C 87.772 96.278,108.387 85.309,133.230 72.159 C 158.074 59.010,178.400 48.117,178.400 47.952 C 178.400 47.788,178.022 47.534,177.560 47.387 C 176.377 47.012,176.142 47.144,189.300 40.792 C 195.845 37.632,201.195 34.946,201.190 34.823 C 201.176 34.521,181.879 25.004,181.500 25.113 C 181.335 25.161,181.200 25.009,181.200 24.776 C 181.200 24.543,181.035 24.455,180.834 24.579 C 180.633 24.703,180.408 24.669,180.334 24.502 C 180.166 24.124,177.107 22.630,176.700 22.728 C 176.535 22.768,176.400 22.609,176.400 22.376 C 176.400 22.143,176.220 22.064,176.000 22.200 C 175.780 22.336,175.600 22.301,175.600 22.122 C 175.600 21.942,174.520 21.377,173.200 20.865 C 171.880 20.353,170.800 19.791,170.800 19.616 C 170.800 19.258,168.366 18.157,167.900 18.305 C 167.735 18.357,167.600 18.209,167.600 17.976 C 167.600 17.743,167.420 17.664,167.200 17.800 C 166.980 17.936,166.800 17.857,166.800 17.624 C 166.800 17.391,166.595 17.200,166.344 17.200 C 166.094 17.200,163.349 15.956,160.244 14.435 C 154.850 11.792,153.200 11.253,153.200 12.133 M328.654 98.368 C 316.583 104.949,306.555 110.485,306.369 110.671 C 306.058 110.982,344.603 131.600,345.496 131.600 C 345.713 131.600,353.071 128.066,361.846 123.747 C 370.621 119.428,381.268 114.226,385.506 112.187 L 393.212 108.480 381.106 102.182 C 365.646 94.140,361.707 92.083,355.757 88.950 C 353.093 87.548,350.843 86.401,350.757 86.402 C 350.671 86.403,340.724 91.788,328.654 98.368 M232.000 133.719 C 227.490 136.202,216.635 142.167,207.878 146.975 C 199.121 151.782,192.101 155.850,192.278 156.013 C 192.779 156.476,239.955 178.000,240.468 178.000 C 240.885 178.000,287.234 154.681,287.071 154.553 C 286.785 154.329,241.113 129.543,240.712 129.395 C 240.431 129.290,236.510 131.236,232.000 133.719 " stroke="none" fill="#e2e2e2" fill-rule="evenodd"></path><path id="path3" d="M142.474 113.909 L 131.148 119.721 142.474 125.561 L 153.800 131.400 153.911 125.475 C 153.971 122.217,153.971 116.974,153.911 113.824 L 153.800 108.097 142.474 113.909 M224.000 122.394 L 224.000 136.816 225.700 135.957 C 226.635 135.484,232.530 132.389,238.800 129.078 C 247.004 124.746,250.531 123.082,251.379 123.142 C 253.022 123.257,253.598 123.595,238.790 115.780 C 231.425 111.894,225.085 108.547,224.700 108.343 C 224.039 107.993,224.000 108.784,224.000 122.394 M60.000 201.425 C 60.000 210.051,60.150 216.012,60.364 215.933 C 62.608 215.111,87.873 201.366,87.500 201.170 C 87.225 201.026,81.690 198.117,75.200 194.706 C 68.710 191.294,62.635 188.117,61.700 187.644 L 60.000 186.784 60.000 201.425 M60.000 276.021 L 60.000 290.759 64.711 288.279 C 67.302 286.916,73.512 283.650,78.511 281.022 C 83.510 278.395,87.598 276.145,87.595 276.022 C 87.593 275.900,81.383 272.534,73.795 268.542 L 60.000 261.283 60.000 276.021 M294.895 303.994 L 295.000 318.462 316.800 325.627 C 328.790 329.567,338.813 332.748,339.072 332.695 C 339.471 332.615,310.621 304.394,298.556 293.063 L 294.790 289.526 294.895 303.994 " stroke="none" fill="#747c7c" fill-rule="evenodd"></path><path id="path4" d="M229.100 21.476 C 228.715 21.576,228.400 21.825,228.400 22.029 C 228.400 22.233,228.040 22.400,227.600 22.400 C 227.160 22.400,226.800 22.591,226.800 22.824 C 226.800 23.057,226.607 23.128,226.370 22.982 C 226.134 22.836,225.475 23.140,224.906 23.658 C 224.337 24.176,224.017 24.349,224.195 24.042 C 224.606 23.334,221.949 24.766,221.475 25.508 C 221.297 25.788,220.989 25.917,220.790 25.794 C 220.383 25.542,216.594 27.363,216.201 27.999 C 216.060 28.227,215.798 28.322,215.618 28.211 C 215.438 28.100,215.070 28.275,214.800 28.600 C 214.530 28.925,214.150 29.093,213.955 28.972 C 213.760 28.851,213.600 28.938,213.600 29.164 C 213.600 29.390,213.300 29.460,212.934 29.319 C 212.490 29.149,212.364 29.218,212.555 29.527 C 212.742 29.830,212.626 29.908,212.221 29.753 C 211.879 29.622,211.600 29.714,211.600 29.957 C 211.600 30.201,211.465 30.369,211.300 30.330 C 210.803 30.215,208.623 31.346,208.275 31.900 C 208.097 32.184,207.780 32.311,207.571 32.182 C 207.361 32.053,206.248 32.486,205.095 33.146 C 203.943 33.805,202.840 34.341,202.645 34.338 C 202.449 34.335,202.179 34.501,202.045 34.708 C 201.910 34.916,196.261 37.758,189.492 41.024 C 178.784 46.191,177.290 47.020,178.004 47.402 C 178.456 47.644,178.684 47.996,178.513 48.185 C 178.341 48.374,178.402 48.413,178.648 48.272 C 178.895 48.132,207.463 62.235,242.134 79.614 L 305.171 111.211 307.085 110.057 C 311.906 107.152,350.397 86.400,350.963 86.400 C 351.884 86.400,351.745 85.802,350.700 85.270 C 350.205 85.018,349.358 84.494,348.817 84.106 C 348.071 83.570,347.918 83.544,348.182 84.000 C 348.373 84.330,348.063 84.176,347.494 83.658 C 346.883 83.102,346.258 82.841,345.968 83.020 C 345.664 83.207,345.579 83.158,345.744 82.891 C 345.993 82.487,344.577 81.742,343.900 81.921 C 343.735 81.964,343.600 81.809,343.600 81.576 C 343.600 81.343,343.420 81.264,343.200 81.400 C 342.980 81.536,342.800 81.446,342.800 81.200 C 342.800 80.954,342.640 80.851,342.445 80.972 C 342.250 81.093,341.860 80.913,341.578 80.574 C 340.852 79.699,339.388 78.932,339.834 79.660 C 340.016 79.957,339.574 79.705,338.852 79.100 C 337.663 78.104,337.317 77.942,336.564 78.027 C 336.434 78.041,336.079 77.726,335.776 77.327 C 335.473 76.927,335.220 76.763,335.213 76.962 C 335.206 77.161,334.840 76.998,334.400 76.600 C 333.960 76.202,333.597 76.039,333.594 76.238 C 333.591 76.437,333.456 76.411,333.294 76.181 C 332.890 75.604,329.200 73.499,329.200 73.845 C 329.200 73.999,328.885 73.848,328.500 73.510 C 327.458 72.597,325.337 71.596,325.051 71.883 C 324.913 72.021,324.800 71.913,324.800 71.643 C 324.800 71.373,324.620 71.264,324.400 71.400 C 324.180 71.536,324.000 71.452,324.000 71.214 C 324.000 70.825,322.487 70.038,321.374 69.848 C 321.140 69.808,320.441 69.376,319.820 68.887 C 319.200 68.399,318.376 68.000,317.989 68.000 C 317.602 68.000,317.178 67.719,317.046 67.375 C 316.914 67.031,316.624 66.861,316.403 66.998 C 316.181 67.135,316.000 67.076,316.000 66.867 C 316.000 66.658,315.325 66.195,314.500 65.838 C 313.675 65.481,311.920 64.570,310.600 63.814 C 309.280 63.057,307.885 62.429,307.500 62.419 C 307.115 62.409,306.800 62.209,306.800 61.976 C 306.800 61.743,306.620 61.664,306.400 61.800 C 306.180 61.936,306.000 61.827,306.000 61.557 C 306.000 61.287,305.895 61.172,305.767 61.300 C 305.638 61.428,305.182 61.182,304.752 60.752 C 304.322 60.322,303.797 60.078,303.585 60.209 C 303.373 60.340,303.200 60.237,303.200 59.981 C 303.200 59.724,302.922 59.621,302.579 59.753 C 302.223 59.889,302.063 59.822,302.203 59.595 C 302.337 59.378,302.154 59.200,301.795 59.200 C 301.436 59.200,300.873 58.930,300.543 58.600 C 300.213 58.270,299.615 58.000,299.214 58.000 C 298.813 58.000,298.378 57.719,298.246 57.375 C 298.114 57.031,297.824 56.861,297.603 56.998 C 297.381 57.135,297.200 57.069,297.200 56.851 C 297.200 56.481,296.203 55.997,295.486 56.019 C 295.313 56.024,294.893 55.750,294.553 55.411 C 294.214 55.071,293.770 54.895,293.568 55.020 C 293.365 55.145,293.200 55.047,293.200 54.803 C 293.200 54.364,290.480 52.982,289.900 53.126 C 289.735 53.167,289.600 53.020,289.600 52.800 C 289.600 52.580,289.262 52.400,288.849 52.400 C 288.436 52.400,287.866 52.120,287.582 51.778 C 286.843 50.888,285.401 50.141,285.811 50.860 C 285.979 51.157,285.730 51.001,285.256 50.514 C 284.776 50.020,284.130 49.729,283.797 49.856 C 283.469 49.982,283.200 49.890,283.200 49.651 C 283.200 49.145,280.332 47.600,279.392 47.600 C 279.041 47.600,278.852 47.439,278.974 47.242 C 279.257 46.784,278.065 46.313,277.502 46.661 C 277.268 46.805,277.189 46.741,277.327 46.518 C 277.568 46.129,274.990 44.713,274.236 44.820 C 274.036 44.849,273.710 44.582,273.511 44.227 C 273.313 43.873,272.982 43.688,272.775 43.815 C 272.569 43.943,272.400 43.846,272.400 43.600 C 272.400 43.354,272.220 43.264,272.000 43.400 C 271.780 43.536,271.600 43.446,271.600 43.200 C 271.600 42.954,271.420 42.864,271.200 43.000 C 270.980 43.136,270.800 43.057,270.800 42.824 C 270.800 42.591,270.522 42.400,270.183 42.400 C 269.844 42.400,269.194 42.053,268.739 41.629 C 268.284 41.206,267.696 40.942,267.431 41.043 C 267.166 41.145,266.629 40.874,266.237 40.441 C 265.825 39.986,265.260 39.756,264.897 39.895 C 264.533 40.035,264.372 39.969,264.515 39.738 C 264.775 39.317,261.605 37.600,260.566 37.600 C 260.229 37.600,260.064 37.420,260.200 37.200 C 260.444 36.804,259.907 36.636,258.860 36.779 C 258.563 36.820,258.423 36.687,258.549 36.483 C 258.778 36.112,255.690 34.511,255.108 34.700 C 254.939 34.755,254.800 34.620,254.800 34.400 C 254.800 34.180,254.530 34.000,254.200 34.000 C 253.870 34.000,253.600 33.820,253.600 33.600 C 253.600 33.380,253.465 33.240,253.300 33.289 C 252.851 33.423,250.400 32.251,250.400 31.902 C 250.400 31.736,250.130 31.600,249.800 31.600 C 249.470 31.600,249.200 31.439,249.200 31.243 C 249.200 31.046,248.921 30.778,248.579 30.647 C 248.161 30.487,248.052 30.571,248.244 30.905 C 248.401 31.177,248.063 30.976,247.494 30.458 C 246.925 29.940,246.277 29.629,246.054 29.767 C 245.831 29.904,245.503 29.788,245.325 29.508 C 244.964 28.943,242.400 27.426,242.400 27.777 C 242.400 27.900,242.026 27.626,241.569 27.169 C 241.112 26.712,240.487 26.435,240.180 26.552 C 239.872 26.670,239.481 26.549,239.311 26.283 C 238.863 25.586,236.559 24.375,236.256 24.677 C 236.115 24.818,236.000 24.723,236.000 24.467 C 236.000 24.210,235.730 24.000,235.400 24.000 C 235.070 24.000,234.800 23.840,234.800 23.643 C 234.800 23.447,234.316 23.165,233.724 23.017 C 233.133 22.868,232.160 22.399,231.563 21.973 C 230.454 21.184,230.320 21.157,229.100 21.476 M287.309 157.600 C 287.309 158.590,287.387 158.995,287.482 158.500 C 287.578 158.005,287.578 157.195,287.482 156.700 C 287.387 156.205,287.309 156.610,287.309 157.600 M287.709 166.000 C 287.709 166.990,287.787 167.395,287.882 166.900 C 287.978 166.405,287.978 165.595,287.882 165.100 C 287.787 164.605,287.709 165.010,287.709 166.000 M288.101 174.200 C 288.105 175.080,288.187 175.393,288.283 174.895 C 288.379 174.398,288.375 173.678,288.275 173.295 C 288.175 172.913,288.096 173.320,288.101 174.200 M288.509 182.400 C 288.509 183.390,288.587 183.795,288.682 183.300 C 288.778 182.805,288.778 181.995,288.682 181.500 C 288.587 181.005,288.509 181.410,288.509 182.400 M288.909 190.800 C 288.909 191.790,288.987 192.195,289.082 191.700 C 289.178 191.205,289.178 190.395,289.082 189.900 C 288.987 189.405,288.909 189.810,288.909 190.800 M289.301 199.000 C 289.305 199.880,289.387 200.193,289.483 199.695 C 289.579 199.198,289.575 198.478,289.475 198.095 C 289.375 197.713,289.296 198.120,289.301 199.000 M289.709 207.200 C 289.709 208.190,289.787 208.595,289.882 208.100 C 289.978 207.605,289.978 206.795,289.882 206.300 C 289.787 205.805,289.709 206.210,289.709 207.200 M290.109 215.600 C 290.109 216.590,290.187 216.995,290.282 216.500 C 290.378 216.005,290.378 215.195,290.282 214.700 C 290.187 214.205,290.109 214.610,290.109 215.600 M290.501 223.800 C 290.505 224.680,290.587 224.993,290.683 224.495 C 290.779 223.998,290.775 223.278,290.675 222.895 C 290.575 222.513,290.496 222.920,290.501 223.800 M290.800 231.600 C 290.800 232.260,290.949 232.800,291.131 232.800 C 291.313 232.800,291.382 232.260,291.285 231.600 C 291.188 230.940,291.040 230.400,290.955 230.400 C 290.870 230.400,290.800 230.940,290.800 231.600 " stroke="none" fill="#d3d3d4" fill-rule="evenodd"></path><path id="path5" d="M133.089 72.550 C 108.058 85.826,87.506 96.761,87.417 96.849 C 87.329 96.938,97.065 102.090,109.052 108.299 L 130.848 119.588 142.504 113.594 C 148.915 110.297,154.215 107.600,154.280 107.600 C 154.346 107.600,154.404 113.045,154.408 119.700 L 154.417 131.800 167.049 138.326 C 173.997 141.915,179.744 144.789,179.820 144.713 C 180.493 144.041,180.022 48.591,179.345 48.506 C 178.935 48.454,158.120 59.274,133.089 72.550 M245.477 125.908 C 241.522 127.967,240.500 128.661,240.893 129.018 C 241.172 129.272,247.970 133.042,256.000 137.398 C 264.030 141.753,271.320 145.731,272.200 146.238 L 273.800 147.160 273.679 141.280 L 273.557 135.400 267.679 132.306 C 264.445 130.605,259.273 127.873,256.184 126.235 L 250.567 123.258 245.477 125.908 M231.600 133.199 C 227.090 135.604,223.220 137.644,223.000 137.731 C 222.780 137.819,222.707 138.007,222.837 138.149 C 223.049 138.380,238.848 129.981,239.780 129.142 C 240.526 128.470,239.695 128.882,231.600 133.199 M204.800 187.963 C 203.370 188.784,199.140 191.140,195.400 193.197 C 191.660 195.255,188.490 197.102,188.355 197.303 C 188.221 197.504,187.951 197.672,187.755 197.677 C 187.319 197.688,184.276 199.212,184.000 199.558 C 183.890 199.696,182.855 200.242,181.700 200.773 C 180.545 201.303,179.599 201.841,179.599 201.968 C 179.598 202.096,178.788 202.533,177.799 202.940 C 176.809 203.346,176.000 203.817,176.000 203.985 C 176.000 204.154,175.187 204.602,174.193 204.982 C 173.199 205.361,172.164 205.881,171.893 206.136 C 171.622 206.391,170.515 207.050,169.433 207.600 C 164.411 210.153,163.792 210.500,163.667 210.839 C 163.593 211.037,163.278 211.200,162.967 211.200 C 162.483 211.200,162.400 215.282,162.400 239.000 C 162.400 254.290,162.489 266.800,162.598 266.800 C 163.057 266.800,189.026 253.765,189.294 253.400 C 189.490 253.133,189.592 253.133,189.600 253.400 C 189.608 253.667,189.710 253.667,189.906 253.400 C 190.068 253.180,194.115 251.066,198.900 248.701 L 207.600 244.402 207.600 215.401 C 207.600 199.451,207.555 186.416,207.500 186.435 C 207.445 186.454,206.230 187.142,204.800 187.963 M87.718 201.632 C 87.543 201.802,81.370 205.114,74.000 208.993 C 66.630 212.872,60.462 216.182,60.293 216.350 C 60.063 216.578,109.304 243.627,111.235 244.333 C 111.451 244.412,111.595 238.199,111.587 229.133 L 111.573 213.800 99.804 207.562 C 93.331 204.132,87.892 201.463,87.718 201.632 M78.000 281.455 C 72.390 284.426,65.972 287.805,63.738 288.963 L 59.677 291.070 82.520 303.435 C 95.083 310.236,106.768 316.556,108.486 317.481 L 111.609 319.162 111.505 303.752 L 111.400 288.341 105.400 285.150 C 102.100 283.395,96.880 280.631,93.800 279.007 L 88.200 276.054 78.000 281.455 M198.600 296.073 C 193.760 298.742,189.709 301.032,189.598 301.162 C 189.487 301.293,187.867 302.193,185.998 303.163 C 184.129 304.133,182.510 305.033,182.400 305.163 C 182.290 305.293,181.315 305.850,180.233 306.400 C 175.582 308.764,174.589 309.299,174.398 309.542 C 174.287 309.684,172.667 310.593,170.798 311.563 C 168.929 312.533,167.310 313.438,167.200 313.574 C 167.090 313.710,166.235 314.159,165.300 314.572 C 164.365 314.984,163.600 315.474,163.600 315.661 C 163.600 315.847,163.330 316.000,163.000 316.000 C 162.473 316.000,162.400 319.156,162.400 342.000 C 162.400 366.671,162.504 369.112,163.480 367.458 C 163.907 366.736,165.665 365.804,166.340 365.943 C 166.675 366.012,166.766 365.868,166.578 365.565 C 166.387 365.255,166.443 365.179,166.733 365.359 C 166.984 365.514,167.591 365.267,168.081 364.811 C 168.571 364.354,169.647 363.778,170.473 363.531 C 171.298 363.284,171.879 362.928,171.763 362.741 C 171.648 362.553,171.788 362.396,172.076 362.391 C 172.364 362.386,173.039 362.045,173.575 361.633 C 174.112 361.220,174.785 360.973,175.072 361.083 C 175.359 361.193,175.704 360.995,175.839 360.644 C 175.973 360.292,176.245 360.104,176.442 360.226 C 176.639 360.348,176.800 360.227,176.800 359.957 C 176.800 359.687,176.920 359.587,177.068 359.734 C 177.215 359.881,177.620 359.746,177.968 359.432 C 178.315 359.119,178.863 358.804,179.184 358.732 C 179.506 358.659,180.132 358.278,180.576 357.885 C 181.021 357.491,181.793 357.066,182.292 356.941 C 182.791 356.816,183.200 356.542,183.200 356.333 C 183.200 356.124,183.380 356.064,183.600 356.200 C 183.820 356.336,184.000 356.257,184.000 356.024 C 184.000 355.791,184.257 355.600,184.571 355.600 C 184.886 355.600,185.424 355.319,185.767 354.975 C 186.111 354.632,186.749 354.324,187.186 354.291 C 187.622 354.258,188.073 353.988,188.187 353.690 C 188.301 353.393,188.576 353.261,188.797 353.398 C 189.019 353.535,189.200 353.469,189.200 353.251 C 189.200 353.032,189.605 352.728,190.100 352.573 C 190.595 352.419,191.090 352.166,191.200 352.012 C 191.310 351.857,194.740 349.902,198.822 347.666 C 202.904 345.431,206.551 343.376,206.926 343.101 C 207.558 342.637,207.601 340.726,207.504 316.911 L 207.400 291.222 198.600 296.073 M306.800 301.000 C 307.546 301.770,308.247 302.400,308.357 302.400 C 308.467 302.400,307.946 301.770,307.200 301.000 C 306.454 300.230,305.753 299.600,305.643 299.600 C 305.533 299.600,306.054 300.230,306.800 301.000 M318.800 312.600 C 319.546 313.370,320.247 314.000,320.357 314.000 C 320.467 314.000,319.946 313.370,319.200 312.600 C 318.454 311.830,317.753 311.200,317.643 311.200 C 317.533 311.200,318.054 311.830,318.800 312.600 M330.800 324.200 C 331.546 324.970,332.247 325.600,332.357 325.600 C 332.467 325.600,331.946 324.970,331.200 324.200 C 330.454 323.430,329.753 322.800,329.643 322.800 C 329.533 322.800,330.054 323.430,330.800 324.200 " stroke="none" fill="#9c9ca4" fill-rule="evenodd"></path><path id="path6" d="M180.188 78.600 C 180.188 92.240,180.238 97.878,180.300 91.129 C 180.361 84.380,180.361 73.220,180.300 66.329 C 180.238 59.438,180.188 64.960,180.188 78.600 M153.902 115.500 C 154.095 130.412,154.230 131.784,154.315 119.700 C 154.362 113.045,154.265 107.600,154.100 107.600 C 153.935 107.599,153.846 111.154,153.902 115.500 M254.800 125.379 C 254.800 125.489,255.340 125.859,256.000 126.200 C 256.660 126.541,257.200 126.731,257.200 126.621 C 257.200 126.511,256.660 126.141,256.000 125.800 C 255.340 125.459,254.800 125.269,254.800 125.379 M267.600 132.179 C 267.600 132.289,268.140 132.659,268.800 133.000 C 269.460 133.341,270.000 133.531,270.000 133.421 C 270.000 133.311,269.460 132.941,268.800 132.600 C 268.140 132.259,267.600 132.069,267.600 132.179 M273.760 141.000 C 273.761 144.300,273.822 145.597,273.898 143.882 C 273.973 142.167,273.972 139.467,273.897 137.882 C 273.821 136.297,273.759 137.700,273.760 141.000 M164.600 366.427 C 163.255 367.289,163.439 367.438,164.981 366.736 C 165.542 366.480,166.000 366.120,166.000 365.936 C 166.000 365.518,166.043 365.503,164.600 366.427 " stroke="none" fill="#9b9c9c" fill-rule="evenodd"></path><path id="path7" d="M199.600 35.800 C 198.610 36.330,197.980 36.764,198.200 36.764 C 198.420 36.764,199.410 36.330,200.400 35.800 C 201.390 35.270,202.020 34.836,201.800 34.836 C 201.580 34.836,200.590 35.270,199.600 35.800 M188.000 41.400 C 186.130 42.368,184.780 43.160,185.000 43.160 C 185.220 43.160,186.930 42.368,188.800 41.400 C 190.670 40.432,192.020 39.640,191.800 39.640 C 191.580 39.640,189.870 40.432,188.000 41.400 M29.420 75.338 C 28.859 76.074,28.400 76.803,28.400 76.960 C 28.400 77.116,27.688 78.292,26.818 79.573 C 25.948 80.855,25.348 82.015,25.485 82.151 C 25.621 82.288,25.523 82.400,25.267 82.400 C 25.010 82.400,24.800 82.655,24.800 82.967 C 24.800 83.278,24.633 83.593,24.430 83.667 C 24.226 83.740,24.001 84.057,23.930 84.372 C 23.858 84.687,23.472 85.339,23.072 85.821 C 21.436 87.793,13.664 100.581,13.885 100.938 C 14.016 101.150,13.945 101.214,13.728 101.079 C 13.348 100.845,11.779 103.479,11.928 104.100 C 11.968 104.265,11.820 104.400,11.600 104.400 C 11.380 104.400,11.200 104.588,11.200 104.817 C 11.200 105.046,10.840 105.620,10.400 106.092 C 9.960 106.564,9.600 107.086,9.600 107.250 C 9.600 107.415,19.133 102.836,30.785 97.075 C 42.437 91.314,51.922 86.434,51.862 86.231 C 51.765 85.899,49.934 84.884,41.200 80.320 C 32.612 75.831,30.468 74.613,30.647 74.324 C 31.194 73.438,30.314 74.166,29.420 75.338 M305.796 110.807 C 305.658 111.030,305.349 111.092,305.111 110.945 C 304.867 110.794,304.790 110.861,304.935 111.096 C 305.228 111.569,304.566 113.614,303.038 116.954 C 302.467 118.202,301.999 119.353,301.998 119.512 C 301.996 119.670,301.763 120.250,301.479 120.800 C 301.195 121.350,300.543 122.880,300.031 124.200 C 299.518 125.520,298.778 127.320,298.387 128.200 C 296.732 131.926,296.055 133.600,296.202 133.600 C 296.289 133.600,295.828 134.670,295.180 135.978 C 294.531 137.285,294.000 138.599,294.000 138.898 C 294.000 139.196,293.848 139.611,293.662 139.820 C 293.477 140.029,292.820 141.460,292.204 143.000 C 291.587 144.540,290.764 146.520,290.374 147.400 C 289.984 148.280,289.139 150.260,288.495 151.800 L 287.325 154.600 289.198 193.302 C 290.228 214.588,291.170 232.103,291.292 232.225 C 291.413 232.347,292.207 231.102,293.056 229.458 C 294.627 226.418,306.551 204.295,307.209 203.200 C 307.407 202.870,308.576 200.710,309.807 198.400 C 311.038 196.090,312.208 193.930,312.407 193.600 C 313.756 191.365,317.200 184.808,317.200 184.474 C 317.200 184.250,317.342 184.007,317.516 183.933 C 317.689 183.860,321.750 176.510,326.541 167.600 C 331.331 158.690,335.412 151.130,335.610 150.800 C 337.009 148.465,340.400 142.006,340.400 141.674 C 340.400 141.450,340.548 141.207,340.729 141.133 C 341.336 140.887,346.059 131.600,345.577 131.600 C 344.755 131.600,306.051 111.041,306.254 110.713 C 306.360 110.541,306.357 110.400,306.247 110.400 C 306.137 110.400,305.934 110.583,305.796 110.807 M183.422 149.267 C 182.554 149.725,181.596 150.347,181.293 150.650 C 180.990 150.952,180.441 151.208,180.071 151.217 C 179.702 151.227,176.880 152.547,173.800 154.150 C 170.720 155.754,160.945 160.692,152.079 165.124 L 135.958 173.181 137.647 175.691 C 141.049 180.744,144.963 186.203,145.277 186.333 C 145.455 186.407,145.600 186.627,145.600 186.824 C 145.600 187.072,160.898 209.456,162.195 211.106 C 162.323 211.269,206.124 187.159,206.746 186.584 C 207.201 186.163,205.978 183.766,199.446 172.276 C 195.131 164.685,191.600 158.277,191.600 158.037 C 191.600 157.797,191.420 157.600,191.200 157.600 C 190.980 157.600,190.836 157.465,190.879 157.300 C 191.016 156.781,190.362 155.200,190.010 155.200 C 189.825 155.200,188.815 153.670,187.765 151.800 C 185.669 148.066,185.684 148.075,183.422 149.267 M178.400 259.185 C 172.790 262.028,162.035 267.380,154.500 271.077 L 140.801 277.800 144.300 283.953 C 146.225 287.338,148.590 291.568,149.556 293.353 C 150.521 295.139,151.466 296.660,151.656 296.733 C 151.845 296.807,152.000 297.047,152.000 297.268 C 152.000 297.556,161.561 315.028,162.198 315.903 C 162.347 316.109,206.996 291.212,207.114 290.857 C 207.182 290.655,203.718 283.686,199.418 275.369 C 195.118 267.052,191.600 260.112,191.600 259.946 C 191.600 259.632,188.831 253.994,188.684 254.008 C 188.638 254.012,184.010 256.342,178.400 259.185 " stroke="none" fill="#d4dcd9" fill-rule="evenodd"></path></g></svg>