<?xml version="1.0" encoding="UTF-8"?>
<svg id="Capa_1" xmlns="http://www.w3.org/2000/svg" version="1.1" viewBox="0 0 307 93.5">
  <!-- Generator: Adobe Illustrator 29.8.3, SVG Export Plug-In . SVG Version: 2.1.1 Build 3)  -->
  <defs>
    <style>
      .st0 {
        fill: #fff;
      }
    </style>
  </defs>
  <g id="Layer_5">
    <g>
      <path class="st0" d="M40.5,73c-12.6,0-23.6-8.7-26.5-21-3.5-14.8,6.1-29.8,21-32.7,9.3-1.8,17.5.6,24.4,7.2,3.7,3.5,2.2,9.5-2.6,10.8-2.4.7-4.4,0-6.2-1.6-2.2-2-4.7-3.5-7.7-4-4.5-.8-8.5.3-11.9,3.4-4.6,4.2-6.3,9.4-4.2,15.3,3.7,10.6,16.1,12.8,23.4,5.9,1.2-1.1,2.4-1.9,4.1-2.1,2.5-.3,5.2,1,6.3,3.3,1.3,2.5,1,5.4-.8,7.3-3.6,3.8-7.9,6.3-12.9,7.4-2.1.5-4.2.7-6.4,1,0,0,0-.1,0-.2"/>
      <path class="st0" d="M209.1,42.4c0-8.1.1-16.2,0-24.3,0-3.8,3.3-6.7,7.3-6,2.6.5,4.5,2.2,4.9,4.6,0,.4,0,.9,0,1.3v23c0,.7,0,1.3,0,2,0,.4-.2,1,.4,1.2.3,0,.8-.3,1-.6,1.3-1.5,2.6-3.1,3.9-4.6,2.1-2.5,4.2-5,6.3-7.4,2.1-2.5,5.8-2.8,8.2-.8,2.5,2.1,2.9,5.7.8,8.3-2.3,2.8-4.7,5.6-7.1,8.4-.8,1-.8,1.3,0,2.3,3.6,4.3,7.1,8.6,10.8,12.8,2.9,3.3,1.4,7.5-1.6,9.3-2.7,1.6-5.7,1.1-7.7-1.3-4.6-5.4-9.1-10.9-13.7-16.3-.1-.1-.2-.3-.4-.4-.2,0-.5-.2-.7-.2-.2,0-.3.3-.4.5,0,.2,0,.4,0,.6,0,4,0,8.1,0,12.1,0,3.3-2.8,6.1-6.5,5.9-1.5,0-2.9-.6-4.1-1.7-1.2-1.1-1.8-2.4-1.8-4,0-8.3,0-16.5,0-24.8h0Z"/>
      <path class="st0" d="M156.7,50.4c.1-12.7,10.3-22.6,23.2-22.3,12.2.2,22.2,10.2,22.1,22.6,0,12.3-10.4,22.3-22.9,22.2-12.4-.1-22.5-10.2-22.4-22.4M179.4,40.6c-5.6,0-9.9,4.5-9.9,9.9,0,5.4,4.5,9.7,10.1,9.7,5.4,0,9.8-4.5,9.7-9.9,0-5.3-4.5-9.7-9.9-9.7"/>
      <path class="st0" d="M87.5,72.8c-12.8-.4-22.6-11-22-23.6.6-12.2,11.3-21.8,23.7-21.2,12.6.6,22.2,11.1,21.5,23.8-.7,12.1-11,21.3-23.2,21M88.1,40.7c-5.5,0-9.8,4.4-9.8,9.8s4.4,9.8,10,9.8c5.5,0,9.8-4.4,9.8-10,0-5.3-4.5-9.6-9.9-9.6"/>
      <path class="st0" d="M255.9,29.4c1.9,0,3.4.8,4.6,2.5,3.1,4.7,6.3,9.4,9.5,14.1,0,.1.2.3.3.4.6.8,1.2.8,1.7,0,1.2-1.8,2.4-3.5,3.6-5.3,2-3,4.1-5.9,6-9,1.8-2.8,5.6-3.4,8.3-1.6,2.5,1.6,3.6,4.4,2.7,6.9-.2.5-.5,1-.8,1.4-9.1,13.6-18.2,27.1-27.3,40.7-1.8,2.7-5,3.2-7.4,2.1-2.8-1.2-4.4-4.1-3.8-6.9.1-.7.4-1.3.8-1.8,2.9-4.3,5.8-8.7,8.7-13,.7-1,.7-1.2,0-2.2-4.2-6.4-8.5-12.7-12.8-19.1-1.4-2.1-1.2-4.8.7-6.9,1.3-1.5,2.9-2.2,5.1-2.2"/>
      <path class="st0" d="M130.2,42.4c0,8.2,0,16.4,0,24.5,0,3.3-2.9,6.2-6.6,5.9-2.8-.2-4.9-1.8-5.5-4.2-.1-.5-.2-1.1-.2-1.6,0-16.3,0-32.5,0-48.8,0-2.9,1.6-4.8,3.7-5.7,2.4-1,5.3-.4,7.1,1.4,1,1,1.5,2.2,1.5,3.7,0,8.3,0,16.5,0,24.8h0s0,0,0,0Z"/>
      <path class="st0" d="M149.6,42.3c0,8.2,0,16.4,0,24.5,0,3.1-2.2,5.3-4.8,5.9-3.2.7-6.6-1.2-7.4-4.2-.1-.5-.1-.9-.2-1.4,0-15.9,0-31.7,0-47.6s0-1.1,0-1.7c0-3.1,2.5-5.6,5.6-5.8,2.5-.1,4.5.7,5.9,2.8.5.8.7,1.7.7,2.6,0,8.2,0,16.5,0,24.7h0Z"/>
      <path class="st0" d="M292.9,68.1c0,2.6-2.1,4.6-4.6,4.6-2.5,0-4.6-2.1-4.6-4.6,0-2.5,2.1-4.6,4.6-4.6,2.5,0,4.6,2.1,4.6,4.6M288.3,64.3c-2.1,0-3.8,1.7-3.9,3.7,0,2.2,1.7,4,3.8,4,2.1,0,3.8-1.7,3.8-3.9,0-2.1-1.7-3.8-3.8-3.8"/>
      <path class="st0" d="M290.1,70.8c-.5.2-.9,0-.9-.6,0-1.6,0-1.7-1.9-1.5,0,0,0,0-.2,0v2.1h-.8v-5.3c.9,0,1.9-.1,2.8,0,.9.1,1.2,1.3.7,2.2-.2.3-.2.5,0,.8.1.2.1.6.2.9,0,.4,0,.9.1,1.4M287.3,66.2c-.3,1.5-.2,1.6,1.1,1.6.6,0,.8-.2.8-.8,0-.6-.3-.8-.8-.8-.4,0-.8,0-1.1,0"/>
    </g>
  </g>
</svg>