<?xml version="1.0" encoding="UTF-8"?>
<svg id="Guess_Main_logo" xmlns="http://www.w3.org/2000/svg" version="1.1" viewBox="0 0 611.5 108.2">
  <!-- Generator: Adobe Illustrator 29.8.3, SVG Export Plug-In . SVG Version: 2.1.1 Build 3)  -->
  <defs>
    <style>
      .st0 {
        fill: #fff;
      }
    </style>
  </defs>
  <path class="st0" d="M64.3,54.7l1.6.2c6.7.4,8.9,1.6,9.6,2.2.6.5,1.8,2.3,1.8,9.4v24c0,.9-.2,1.8-.7,2.5-.4.4-1.4,1.1-6,2.5-2.2.8-4.4,1.3-6.7,1.5-2,.3-4.1.5-6.2.5-9.8.1-19.1-3.9-25.8-11.1-6.9-7.4-10.5-18-10.5-31.2s3.5-28,10.5-35c7-6.8,15.2-10.4,24.3-10.4s16.2,2.9,21.8,8.9c3.1,3.5,6.2,8.7,9.3,15.8l.6,1.1h6.6L93.2.4h-6.4l-.5,1.1c-.4,1.1-1,2.1-1.8,2.9-.4.4-1.1.7-3.4.7s-1.8-.2-9.3-2.4C66,1.1,60,.2,54,.2,37.5.2,23.8,6,13.8,17.5,4.7,27.7-.2,41,0,54.7c0,16.4,5.8,29.8,17.5,39.6,10.4,8.9,23.2,13.3,38.5,13.3,8.7,0,17.4-1.6,25.6-4.5,11.8-4,14.2-6.4,14.2-8.7v-29.6c0-4.2.9-7.1,2.4-8.3.5-.4,2-1.1,6.3-1.5l1.6-.2v-6.2h-41.8v6.2ZM213.7,8.4l1.6.2c4.9.5,8.4,1.6,10,3.4.9.9,2.4,4.2,2.4,14.2v39.2c0,9.3-1.1,16.2-3.3,20.5-4,7.6-11.4,11.4-23.2,11.4s-17.6-3.6-21.2-11.1c-2-4.2-3.1-10.2-3.1-17.6V20.2c0-6.5,1.3-8.5,2-9.3s3.1-2,10.2-2.4l1.6-.2V2h-46.1v6.4l1.6.2c6.9.5,9.3,1.8,10,2.5s2,2.7,2,9.3v47c0,9.6,1.6,17.4,5.1,23.4,6.2,11.1,18,16.9,34.9,16.9s28.9-5.8,35.2-17.1c3.3-6,5.1-14.5,5.1-25.2V26c0-9.8,1.4-12.9,2.4-14,1.1-1.3,3.6-2.9,10.2-3.6l1.6-.2V2h-38.5v6.4h-.4ZM374.6,77.4c-3.6,8.2-7.8,13.3-12.2,15.3-4.5,2.2-12,3.3-21.8,3.3s-15.2-.4-16.5-.7c-.4-.2-1.5-.4-1.5-3.6v-35.4h21.4c7.6,0,10.2,1.5,10.9,2.2,1.1,1.1,2.5,3.8,3.8,10.7l.4,1.4h6.9v-38.3h-6.9l-.4,1.5c-1.3,6.7-2.7,9.6-3.8,10.7-.7.9-3.3,2.4-10.9,2.4h-21.4V14.7c0-2.4.4-2.9.4-2.9.9-.3,1.8-.5,2.7-.4h20.5c10.5,0,14.5,1.4,16,2.5s3.6,4.2,5.1,11.8l.4,1.5h7.3l-.9-25.2h-83.7v6.4l1.6.2c6.7.5,8.9,1.8,9.6,2.5s1.8,2.9,1.8,9.3v67c0,6.9-1.3,8.7-1.8,9.3-.7.7-3.1,1.8-9.8,2.6l-1.6.2v6.2h84.6l7.8-29h-7.8l-.2.9ZM473.8,46.8l-13.3-8.2c-3.9-2.2-7.5-5.1-10.5-8.4-2.1-2.4-3.2-5.5-3.1-8.7-.2-3.4,1.3-6.6,4-8.7,2.7-2.2,6.1-3.3,9.6-3.3,4.9,0,10,1.8,15.1,5.4s8.7,10,11.1,19.2l.4,1.5h7.1l-3.7-35.8h-6.2l-.4,1.3c-.2,1.1-.7,2.1-1.3,3.1-.7.5-1.5.8-2.4.7-.2,0-1.5-.2-7.8-2.4-4.2-1.6-8.6-2.5-13-2.7-8.7,0-16,2.7-21.4,8.2-5.4,5.4-8.4,12.7-8.2,20.3,0,6.2,2.4,11.8,6.9,17.1,2.9,3,6.1,5.6,9.6,7.8l12.9,8c7.3,4.5,12,8,14.2,10.2,3.1,3,4.8,7.3,4.7,11.6,0,4.9-1.5,8.7-4.5,11.4-3.1,2.7-7.1,4.2-11.3,4.2-8.4,0-15.2-3.3-20.9-9.8-3.3-3.8-6.2-9.1-8.7-15.6l-.4-1.1h-6.7l5.1,35.8h6.4l.2-1.4c.2-1,.5-2,1.1-2.9.2-.5.9-.7,2-.7s1.6.2,8.2,2.6c4.9,1.7,10.1,2.7,15.3,2.7,9.6,0,17.8-2.9,24-8.3,6.2-5.2,9.7-13,9.6-21.1.1-6-1.8-11.8-5.4-16.5-3.7-5.3-9.7-10.2-18.2-15.5ZM606.2,61.4c-3.5-4.3-9.6-9.3-18-14.5l-13.3-8.2c-3.9-2.3-7.4-5.1-10.5-8.4-2.1-2.4-3.2-5.5-3.1-8.7-.2-3.4,1.3-6.6,4-8.7,2.7-2.2,6.1-3.3,9.6-3.3,4.9,0,10,1.8,15.1,5.4,5.1,3.6,8.7,10,11.1,19.2l.4,1.5h7.1l-3.7-35.8h-6.2l-.4,1.3c-.2,1.1-.7,2.1-1.3,3.1-.7.5-1.5.8-2.4.7-.2,0-1.5-.2-7.8-2.4-4.2-1.6-8.6-2.5-13.1-2.7-8.7,0-16,2.7-21.4,8.2-5.4,5.4-8.4,12.7-8.2,20.3,0,6.2,2.4,11.8,6.9,17.1,2.9,3,6.1,5.6,9.6,7.8l12.9,8c7.3,4.5,12,8,14.2,10.2,3.1,3,4.8,7.3,4.7,11.6,0,4.9-1.5,8.7-4.7,11.4-3.1,2.7-7.1,4.2-11.3,4.2-8.3,0-15.2-3.3-20.9-9.8-3.3-3.8-6.2-9.1-8.7-15.6l-.4-1.1h-6.7l5.1,35.8h6.4l.2-1.4c.2-1,.5-2,.9-2.9.2-.5.9-.7,2-.7s1.6.2,8.2,2.6c4.9,1.7,10.1,2.7,15.2,2.7,9.6,0,17.8-2.9,24-8.3,6.2-5.2,9.7-13,9.6-21.1.2-7.3-1.6-12.7-5.3-17.4h0Z"/>
</svg>