<?xml version="1.0" encoding="UTF-8"?>
<svg id="Layer_1" xmlns="http://www.w3.org/2000/svg" version="1.1" viewBox="0 0 1043 207">
  <!-- Generator: Adobe Illustrator 29.8.4, SVG Export Plug-In . SVG Version: 2.1.1 Build 6)  -->
  <defs>
    <style>
      .st0 {
        fill: #fff;
      }
    </style>
  </defs>
  <path class="st0" d="M175.5,16c.5,58.1.5,116.2.5,175H.5C0,132.7,0,74.5,0,16h175.5M118,137.9v17.8h23c0-10.6.2-20.8,0-31.1-.1-4.6-3.8-10.2-10-9.7-6,.5-12,0-17.9-.8,5.1-11,10.3-22,15.4-33.1,3.5-7.5,6.8-15,10.3-22.5,1-2.2,2.5-4.3,3.1-6.6.5-2.1-.3-3.9-3.8-1.9-7.7,0-15.3,0-23.4-.5-3.5-1.3-3.6,1.8-4.5,3.6-2.7,5.4-5.5,10.8-7.7,16.4-1,2.6-.9,5.7-1.4,9.2-.3.8-.6,1.5-1.6,2.4-1.3,1.4-3.1,2.5-3.9,4.2-2,4.2-3.2,8.6-5.2,12.8-3.8,7.8-8.1,15.4-11.8,23.3-3,6.4-.5,11.9,6.1,14.3,2.3.8,4.8,1.2,7.3,1.3,8.6.2,17.3,0,26.1,1M57,82.8c0-7.1,2.7-9.8,9.6-9.8h21.9c3.5-7.7,6.9-15.2,10.4-23h-35.9c-14.6.2-28.9,14.3-29,29-.2,24,0,47.9,0,71.9v4.9h23v-73h0Z"/>
  <path class="st0" d="M843,131v-38c0-3.2-.4-6.5-1-9.7-.7-3.5-5.3-5.5-11.3-4.2-4.6,1-8.9,3.6-13.4,4.8-6.8,1.8-7.5,6.3-7.3,12.3.3,14.3,0,28.7.2,43,0,3.7-1,5.1-4.8,4.9-5.6-.3-11.2,0-17.1,0V28.2h21.3v43.3c6.6-6,15.1-9,23.7-10.9,8.8-2,17.8-1.3,25.3,5.3,4.4,4,5.2,9.6,5.3,14.6.5,21,.2,41.9.2,63.2h-21v-12.7h-.1Z"/>
  <path class="st0" d="M1043,88c.4,16.5-8,22.6-22.6,22.9-10.3.2-20.6,0-30.9,0-.8,7.7,4.4,15.2,12.7,15.8,9.3.7,18.8-.3,28.2-.5h8.3c.7,3.2,1.5,6.6,2.2,10.1.8,3.6-1.5,5-4.5,5.7-4.4,1-8.8,2.3-13.2,2.8-11.4,1.4-22.8,2.1-34.1-1.1-13-3.7-19.7-12.9-22-25.5-2.2-12-1.9-24.1,1.1-36.1,3.4-13.1,12.8-19.1,25.3-21.1,10.4-1.7,20.6-.9,31,1.5,12,2.8,19.1,13.5,18.4,25.4M1016.4,78.9c-3.5-.6-6.9-1.7-10.4-1.8-12.7-.2-18.7,7.2-16.3,19.9h24.9c4.3,0,7.1-3.2,7.5-7.4.4-4.5-1-8.1-5.7-10.6h0Z"/>
  <path class="st0" d="M338.7,145c-6.9.4-13.3,1.3-19.7.9-10.6-.7-21.3-2.5-28.5-11.2-3.4-4.2-5.9-9.7-7-15-2.5-12.3-2.4-24.7.6-37,3.2-13.1,12.6-19.3,24.9-21.6,11.5-2.2,22.9-.9,34.2,2.4,10.3,3,14.8,12.7,15.7,21.5.7,6.7.3,13.4-4.4,19-4.3,5.2-10.2,6.8-16.5,6.9-11,.2-21.9,0-32.9,0,0,9.3,5.5,15.7,14.2,15.9,9.4.2,18.8-.6,28.2-.9h7.3c.4,3.1.1,6.2,1.3,8.7,2.4,5.1-.5,6.3-4.4,7.3-4.2,1-8.4,2-13.1,3M305,88.9c-.3,2.6-.6,5.2-1,8.1h26.5c3.2-.5,6.1-1.4,6.5-5.3.3-2.6.6-5.1,1.4-8.1,0-4.2-2.5-6.8-6.2-7.9-7.1-2.3-14.3-2.3-21.1,1.3-5.5,2.9-7.6,7.1-6.1,11.9h0Z"/>
  <path class="st0" d="M371,128v-61c0-4,1.2-5.3,5.2-5.1,4.5.3,9,0,13.5,0,.6,3.7,1.1,7.2,1.7,11.2,1.8-1.1,3.5-1.8,4.9-3,8.6-7.3,19-9.9,29.7-10.1,12.9-.2,22.8,7.3,22.3,22.2-.6,20.3-.2,40.6-.2,61.3h-20.8c0-1.3-.2-2.7-.2-4.1v-44.5c0-3.6-.4-7.2-1-10.7-.6-3.7-6.8-6.6-11.4-5.1-5.6,1.8-11.1,4.2-16.6,6.3-3,1.1-4.1,3.1-4,6.4.2,17.2,0,34.3,0,52-6.9,0-13.7.1-20.5-.1-.9,0-2.3-2.1-2.4-3.3-.3-4-.1-8-.1-12.5h-.1Z"/>
  <path class="st0" d="M532.2,118c-.4-2.1-.8-4.1-.9-6.8,2.2-6.3,3.5-11.9-.4-17.3,0-.4,0-.9.5-1.7,3.3-5.4,5.8-10.6,9.1-15.3,12.3-17,33.2-18.6,48.9-5,5.1,4.5,7,4.3,8.4-2.5,1.4-6.4,6.2-4.3,10-4.4,4.3-.2,4.2,3.1,4.2,6.3v58.5c0,12.7,1.6,11.1-11.1,11.2-4.8,0-7.5-2.3-8.1-6.9,0-.2-.4-.4-.2-.2-4.7,2.5-9,4.9-13.5,7.1-11.6,5.5-32.6-.4-39.2-13.1-1.9-3.7-5.1-6.6-7.7-9.9M592,90.7c-3.8-9.5-16.1-15.5-25.5-13-11.7,3.1-16.8,11.9-18.1,22.5-1.1,9.1,1.7,17.7,9.3,24,12.5,10.2,32,3.2,35.3-11,1.7-7.6,1.8-14.6-1-22.5h0Z"/>
  <path class="st0" d="M661.3,80.3c-2.8,6-5.4,11.7-8.2,17.9,1.6.3,3.1.7,4.6.7h22c5.8,0,10.2,4.2,10.3,9.9v34.8h-21.8v-24.7h-27.2c-5.5,0-10.1-1.9-13-6.2-3.2-4.9-2.5-9.9.5-15.4,5.1-9.5,8.8-19.8,13.5-29.6,4.4-9.2,9.2-18.2,13.8-27.4,1.8-3.6,3.2-7.3,4.8-11.2h24.4c-8.1,17.4-15.8,34.1-23.8,51.2h.1Z"/>
  <path class="st0" d="M520,74.8c.5,3.4-1.4,3.2-3.3,3.2h-20.7v39.3c0,7.2,2.5,9.6,9.7,9.7,7.3.1,11.4,3.8,12.3,11,.2,1.4.7,2.8,1.2,4.5-10.3,2.8-20.5,3.5-31,1.6-8.5-1.5-14.2-11-14.2-19.6v-46.3h-13.7v-15h13.5v-22.9h22v21.4h24.2v13.1h0Z"/>
  <path class="st0" d="M762,78.1c-8.6,0-17.2-.7-25.7,2.6-5,2-6.8,5.9-7.8,9.7-2.5,9.5-2.8,19.4,1.7,28.6,1.2,2.4,3.6,4.8,5.9,5.8,5.9,2.5,12,4,18.8,2.4,5.7-1.3,11.7-.7,17.9-1,.8,4.7,1.6,9.4,2.4,14.1-11.3,4.4-22.6,6.1-34.3,5.6-8.9-.3-17.3-2.7-24.7-7.4-6.8-4.3-8.9-12.1-10.1-19.3-2.5-14.9-2.2-29.9,3.3-44.3,0-.3.4-.5,1.4-.9,2.4-1.4,4.2-2.6,5.9-3.7,2.8-1.8,5.5-4.8,8.5-5.1,10-1.2,20.1-1.8,30.1-2.1,3.5,0,7.1,1.2,10.7,1.8,3.4.6,4,2.8,3.8,5.8-.2,5.3-4.8,5.6-8.1,7.4h.3,0Z"/>
  <path class="st0" d="M921,133.6c-.3-3.3-1-6.2-1-9.1V28.4h21v88c0,7.2,2.5,9.7,9.6,9.7h6.3c1,5.5,1.9,10.9,3,16.7-11.1,3.2-22.3,6.2-32.9-1.8-2.4-1.8-4-4.6-5.9-7.4h0Z"/>
  <path class="st0" d="M221,111c0-8-.2-15.5,0-23,.3-8.8,3.8-16.3,11-21.3,3.2-2.2,7.8-3.4,11.8-3.5,11.9-.5,23.8-.2,36.1-.2-.5,1.3-1.2,3.1-2,4.9-1.8,4.1-3.8,8.1-5.6,12.2-1.5,3.3-3.9,4.2-7.5,4-5.1-.3-10.3,0-15.5,0s-6.5.9-6.5,6.7v53.1h-22v-32.7h0l.2-.2Z"/>
  <path class="st0" d="M901,89v55c-6.4,0-12.7.2-19-.2-1.1,0-2.9-2.2-2.9-3.4-.2-25-.2-50,0-74.9,0-1.2,2.1-3.3,3.4-3.4,5.9-.4,11.9-.2,18.5-.2v27h0Z"/>
  <path class="st0" d="M532.1,118.4c2.7,2.9,5.8,5.9,7.7,9.5,6.5,12.6,27.6,18.6,39.2,13.1,4.5-2.2,8.9-4.7,13.5-7.1-.2-.2.2,0,.2.2.9,6.9.9,7,8.1,6.9,12.7,0,11.1,1.6,11.1-11.2v-58.5c0-3.2,0-6.4-4.2-6.3-3.8,0-8.5-2-10,4.4-1.5,6.8-3.3,7-8.4,2.5-15.7-13.6-36.6-12-48.9,5-3.3,4.6-5.8,9.9-9,14.9,1.9-14.2,9.5-24,23.2-29.3,15-5.8,27.4-.9,39.2,8.8.8-2.8,1.6-5.9,2.6-9.2h17.2v81.8c-6.6,0-13.2.3-19.7-.2-1.5-.1-2.7-2.9-4.5-4.9-11.3,8.2-24.6,9.7-38.3,3.1-9.8-4.7-15.9-12.9-19.1-23.6h.1Z"/>
  <path class="st0" d="M879,37.1c-.3-9.4,1.6-8.8,9.2-10.1,1.6-.3,3.3-.1,5,0,6.9.3,8.7,2.3,8.8,9.1.2,15.8-.9,12.6-12.8,12.8h-4c-4.6.6-6.2-1.9-6.2-6v-5.9h0Z"/>
  <path class="st0" d="M762.2,78.5c3.1-2.2,7.6-2.5,7.9-7.8,0-3-.4-5.2-3.8-5.8-3.6-.6-7.2-1.9-10.7-1.8-10.1.3-20.2.9-30.1,2.1-3,.4-5.7,3.3-8.5,5.1-1.8,1.1-3.5,2.4-5.6,3.6,2.1-5.3,6.4-8.6,11.8-10.4,17-5.8,33.8-4.8,50.7,1.3-1,4.8-1.9,9.3-2.9,14-2.9,0-5.7,0-8.7-.4h-.1Z"/>
  <path class="st0" d="M530.5,94.2c4.2,5.2,2.9,10.8.7,16.6-.6-5.3-.8-10.9-.7-16.6Z"/>
  <path class="st0" d="M99.8,81.1c0,1.1,0,2.2-.5,3.2-6.2,12.9-12.4,25.8-18.7,38.7-2.4,4.8,2.5,10.9,9.3,11,8.3.2,16.6,0,24.9,0s2.2,1.3,3.2,2.5c-8.7.4-17.4.5-26,.4-2.4,0-5-.4-7.3-1.3-6.6-2.4-9.1-7.9-6.1-14.3,3.7-7.9,8-15.5,11.8-23.3,2-4.1,3.3-8.6,5.2-12.8.8-1.6,2.6-2.8,4.3-4.2h-.1,0Z"/>
  <path class="st0" d="M113,114.5c-4.4,1.1-3.5-1.4-2.3-3.7,2-4.2,4.4-8.2,6.3-12.4,4.4-9.5,8.7-19.1,13-28.6,2.9-6.3,6-12.7,8.9-19.3,2.6-2.5,3.4-.7,2.9,1.4-.6,2.3-2.1,4.4-3.1,6.6-3.5,7.5-6.8,15-10.3,22.5-5.1,11-10.2,22.1-15.4,33.4h0Z"/>
  <path class="st0" d="M114.8,49.8c-4.2,9.5-8.6,18.7-13.4,28.1,0-2.7,0-5.8,1-8.4,2.2-5.6,5-10.9,7.7-16.3.9-1.9,1-5,4.7-3.3h0Z"/>
  <path class="st0" d="M338.2,83.8c-4.9-7.8-12.7-7.5-20.1-6.7-6,.7-11.1,3.6-12.6,10.7-2-3.9.2-8,5.7-10.9,6.8-3.6,14-3.6,21.1-1.3,3.6,1.2,6.1,3.8,5.9,8.1h0Z"/>
  <path class="st0" d="M592.2,91.1c2.6,7.6,2.6,14.5.9,22.1-3.3,14.2-22.8,21.2-35.3,11-7.6-6.3-10.5-14.9-9.3-24,1.3-10.7,6.5-19.4,18.1-22.5,9.5-2.5,21.7,3.5,25.6,13.4M587.5,118c7-9.7,5.9-23.8-2.4-32.4-6.1-6.3-18.1-7.7-24.5-2.7-14.2,11-12.1,36.4,4.9,42.3,7.2,2.5,17.4-.2,22-7.2h0Z"/>
</svg>