<?xml version="1.0" encoding="utf-8"?>
<!-- Generator: Adobe Illustrator 26.0.1, SVG Export Plug-In . SVG Version: 6.00 Build 0)  -->
<svg version="1.1" id="Layer_1" xmlns="http://www.w3.org/2000/svg" xmlns:xlink="http://www.w3.org/1999/xlink" x="0px" y="0px"
	 viewBox="0 0 400 400" style="enable-background:new 0 0 400 400;" xml:space="preserve">
<style type="text/css">
	.st0{fill:#7088a0;}
</style>
<g transform="translate(0.000000,400.000000) scale(0.100000,-0.100000)">
	<path class="st0" d="M890,3985c-87-17-207-58-283-96c-309-155-541-462-597-789c-7-45-10-386-8-1135L5,895l23-80
		c28-100,109-268,170-355C341,259,567,103,819,32l96-27l1035-3c1113-3,1128-3,1282,48c364,121,633,406,736,778l27,97l3,1048l2,1048
		l-24,110c-48,213-139,380-291,535c-136,138-266,221-439,280c-160,55-145,54-1260,53C1184,3998,941,3995,890,3985z M3165,3309
		c51-14,130-93,144-146c44-159-61-303-221-303c-207,1-306,255-155,398C2992,3315,3077,3333,3165,3309z M2262,3017
		c177-46,327-129,457-252c342-324,428-813,216-1235c-136-271-376-462-680-542c-112-29-309-36-433-14c-499,87-859,515-862,1026
		c-4,484,322,903,791,1018c115,29,135,31,284,27C2134,3042,2188,3036,2262,3017z"/>
	<path class="st0" d="M1842,2674c-344-92-567-413-522-751c21-164,82-285,200-403c121-121,252-184,413-199c297-26,556,119,691,387
		c91,181,87,428-9,610c-92,175-253,304-441,352C2082,2694,1922,2696,1842,2674z"/>
</g>
</svg>
