<?xml version="1.0" encoding="utf-8"?>
<!-- Generator: Adobe Illustrator 25.4.1, SVG Export Plug-In . SVG Version: 6.00 Build 0)  -->
<svg version="1.1" id="Layer_1" xmlns="http://www.w3.org/2000/svg" xmlns:xlink="http://www.w3.org/1999/xlink" x="0px" y="0px"
	 viewBox="0 0 400 400" style="enable-background:new 0 0 400 400;" xml:space="preserve">
<style type="text/css">
	.st0{fill:#FFFFFF;}
</style>
<path class="st0" d="M176.81,1.08C98.6,7.72,27.02,71,6.3,151.7c-10.23,40.35-3.04,101.42,16.03,137.35
	c1.93,3.87,1.66,9.12-1.11,18.24c-2.21,7.19-6.08,21-8.84,30.95c-2.76,9.95-6.63,22.66-8.57,28.46c-5.8,15.48-4.97,25.98,2.49,30.68
	c7.19,4.7,11.05,4.15,65.77-10.5l37.31-9.95l15.2,5.8c30.12,11.61,63.01,17.41,88.16,15.2c85.39-6.91,154.48-61.35,180.18-141.49
	c8.01-25.7,8.84-88.43,1.38-111.65c-12.71-38.41-28.74-65.22-53.61-88.71C295.09,12.69,243.68-4.72,176.81,1.08z M236.22,32.86
	c71.58,16.58,119.11,66.6,132.65,140.11c4.97,25.42,4.97,27.64,0,52.51c-8.29,43.39-26.25,74.62-59.97,103.36
	c-46.98,40.07-112.75,50.02-172.17,25.98c-23.21-9.12-30.4-9.4-56.65-1.38c-45.32,13.82-45.32,13.82-36.48-17.13
	c13.54-48.36,13.27-46.43,6.36-60.8c-13.27-27.08-17.41-45.05-17.69-75.44C32,143.68,54.93,96.98,99.15,63.82
	c19.34-14.37,24.32-17.13,42.83-24.32C171.83,28.44,206.65,25.95,236.22,32.86z"/>
<path class="st0" d="M131.21,91.45c-3.04,0.83-10.5,5.53-16.58,10.5c-30.4,24.6-31.5,68.54-3.04,113.03
	c21.56,33.44,60.8,68.81,94.24,84.56c16.3,7.46,22.66,9.12,40.07,9.12c22.11,0,30.95-3.04,46.7-16.3
	c11.61-9.67,16.86-20.45,16.86-34.27c0-20.45-9.67-31.5-42.28-48.91c-13.82-7.19-18.79-7.74-34.54-2.21
	c-14.09,4.97-18.24,3.32-32.06-12.99c-9.95-11.61-12.44-20.73-7.19-25.98c4.15-4.15,3.87-26.25-0.55-34.27
	c-6.36-11.88-20.73-30.4-27.91-35.93S140.6,88.96,131.21,91.45z M156.08,132.9c11.33,15.75,11.88,22.66,2.76,31.23
	c-3.87,3.59-6.91,8.84-6.91,11.88c0,14.37,58.31,73.79,72.4,73.79c2.21,0,7.46-3.87,11.88-8.29c9.95-10.23,13.54-10.23,29.02,1.11
	c14.09,10.23,16.58,16.3,9.12,24.32c-22.94,25.42-57.76,14.37-105.84-33.72c-48.64-48.64-60.8-85.12-35.65-106.12
	c4.7-3.87,9.67-7.19,11.05-7.19S150.55,125.72,156.08,132.9z"/>
</svg>
