<?xml version="1.0" encoding="utf-8"?>
<!-- Generator: Adobe Illustrator 26.0.1, SVG Export Plug-In . SVG Version: 6.00 Build 0)  -->
<svg version="1.1" id="Layer_1" xmlns="http://www.w3.org/2000/svg" xmlns:xlink="http://www.w3.org/1999/xlink" x="0px" y="0px"
	 viewBox="0 0 400 400" style="enable-background:new 0 0 400 400;" xml:space="preserve">
<style type="text/css">
	.st0{fill:#7088a0;}
</style>
<g transform="translate(0.000000,400.000000) scale(0.100000,-0.100000)">
	<path class="st0" d="M265,3982c-112-48-182-113-231-216l-34-70V2000V304l34-70C74,149,146,76,227,34l58-29h1715h1715l58,29
		c81,42,153,115,193,200l34,70v1696v1696l-34,70c-40,85-112,158-193,200l-58,29l-1705,2C421,3999,302,3998,265,3982z M1052,3417
		c72-35,134-97,167-167c22-47,26-69,26-150s-4-103-26-150c-33-70-99-136-169-169c-47-22-69-26-150-26s-103,4-150,26
		c-120,57-191,165-198,304c-6,125,40,225,138,298c71,51,125,67,220,65C979,3445,1005,3440,1052,3417z M2910,2398
		c237-84,400-260,461-495c18-71,19-115,19-685V610h-290h-290v525c0,342-4,542-11,577c-30,146-156,251-299,251s-269-105-299-251
		c-7-35-11-235-11-577V610h-290h-290v890v890h290h290v-122v-122l65,71c90,98,210,171,334,203C2653,2437,2837,2424,2910,2398z
		 M1190,1500V610H900H610v890v890h290h290V1500z"/>
</g>
</svg>
