<?xml version="1.0" encoding="UTF-8"?>
<svg id="Layer_1" xmlns="http://www.w3.org/2000/svg" version="1.1" viewBox="0 0 1920 664">
  <!-- Generator: Adobe Illustrator 29.8.3, SVG Export Plug-In . SVG Version: 2.1.1 Build 3)  -->
  <defs>
    <style>
      .st0 {
        fill: #fff;
      }
    </style>
  </defs>
  <path class="st0" d="M1466.38,123.02c2.55.42,4.78,1,7.05,1.24,19.43,1.99,37.48,8.35,54.58,17.51,10.2,5.47,19.82,11.84,28.47,19.6,3.34,2.99,6.65,6.03,9.85,8.93-12.85,12.85-25.54,25.54-38.31,38.31-23.07-22.63-51.13-33.74-83.67-31.77-28.04,1.7-51.94,13.52-71.21,33.85-41.61,43.91-39.78,111.29,4.83,153.44,40.55,38.32,108.28,39.33,150.19-2.96,12.78,12.5,25.56,25.01,38.73,37.9-4.59,4.07-8.93,8.2-13.57,11.97-10.01,8.13-20.89,14.99-32.54,20.47-13.09,6.16-26.74,10.63-41.11,12.97-11.96,1.95-23.97,3.11-36,2.28-9.69-.66-19.34-2.39-28.91-4.12-14.53-2.63-27.96-8.46-40.9-15.36-9.66-5.15-18.83-11.14-27-18.49-4.97-4.48-9.82-9.11-14.51-13.88-8.46-8.61-15.37-18.4-21.33-28.87-6.2-10.89-11.74-22.11-14.77-34.31-2.25-9.08-4.3-18.27-5.57-27.54-1.1-8.01-1.35-16.19-1.31-24.3.06-10.82,1.64-21.5,4.08-32.08,3.07-13.35,7.78-26.04,14.14-38.13,5.14-9.77,10.99-19.11,18.21-27.51,3.73-4.33,7.51-8.63,11.48-12.73,9.3-9.59,19.95-17.52,31.42-24.26,10.96-6.44,22.41-12.03,34.73-15.35,8.54-2.3,17.3-3.78,25.99-5.53,2.22-.45,4.51-.53,6.87-1.04,10.01-.25,19.91-.25,30.11-.25Z"/>
  <path class="st0" d="M1920.63,440.93c-17.76.3-35.52.3-53.47.3V129.33h53.18c.3,103.77.3,207.54.3,311.6Z"/>
  <path class="st0" d="M423.95,542.25c-2.52-1.28-4.85-2.41-6.94-3.87-2.78-1.95-3.44-4.99-3.45-8.18-.03-9.57.12-19.14-.05-28.7-.14-7.61,3.73-11.1,9.9-12.7,4.22-1.1,8.68-.98,13.02.38,5.58,1.75,8.52,6.03,8.64,11.71.2,9.46.42,18.94-.06,28.38-.37,7.41-2.71,10.43-9.92,12.75-3.66.23-7.25.23-11.14.23M424.28,508.47c0,6.71,0,13.42,0,20.13,0,3.88,1.11,5.17,4.26,5.46,3.84.35,5.56-1.15,5.72-5.13.36-9.21.17-18.45.08-27.68-.03-2.62-2.76-5.3-5.07-5.05-2.98.33-5.12,1.68-5.01,5.35.06,2.1.01,4.19.01,6.92Z"/>
  <path class="st0" d="M124.68,542.25c-2.42-1.05-4.78-1.8-6.6-3.24-2.34-1.85-3.83-4.41-3.81-7.64.05-10,.02-19.99.02-29.99,0-7.21,2.01-10.03,9.11-12.18,5.97-1.8,11.81-1.48,17.26,1.89,3.06,1.89,4.48,4.81,4.52,8.23.12,10.31-.23,20.63.15,30.93.21,5.62-4.66,11.04-10.14,11.77-3.46.23-6.84.23-10.51.23M125.02,499.45c0,10.17-.02,20.35,0,30.52,0,2.85,1.4,4.05,4.53,4.06,3.51.02,4.91-1.07,4.92-3.99.03-9.75-.04-19.51.05-29.26.02-2.13-1.05-3.21-2.76-3.98-2.85-1.29-4.85.11-6.74,2.66Z"/>
  <path class="st0" d="M788.88,542.25c-4.42-1.76-8.54-3.52-9.35-8.73-.09-.59-.4-1.18-.4-1.76-.02-14.28-.02-28.56-.02-43.01h10.61c.04.9.12,1.81.12,2.72,0,12.41,0,24.81,0,37.22,0,2.37.16,4.77,3.04,5.31,4.22.79,5.46-.06,6.46-4.04.3-1.17.57-2.39.57-3.59.04-12.49.03-24.98.03-37.62h10.1v14.76c0,8.73.09,17.45-.03,26.18-.09,6.33-3.67,10.82-9.37,12.35-3.87.23-7.67.23-11.77.23Z"/>
  <path class="st0" d="M.63,538.1c1.05-4.98,2.17-9.67,3.14-14.39,2.08-10.08,4.1-20.18,6.12-30.28.14-.71.15-1.44.2-2.16.12-1.75.66-2.81,2.8-2.74,4.4.16,8.82.05,13.23.05,3.5,17.59,6.97,35.06,10.49,52.79h-11.08c-.54-2.96-1.09-5.96-1.66-9.09h-11.77c-.46,2.38-1.11,4.75-1.3,7.15-.15,1.9-1.03,2.25-2.63,2.2-2.31-.07-4.63-.02-7.24-.02-.29-1.08-.29-2.16-.29-3.52M22.07,521.92c-.2-.47-.5-.93-.58-1.42-1.13-6.52-2.22-13.05-3.33-19.57-.14,0-.28.02-.41.02-1.43,7.81-2.85,15.63-4.31,23.61.78,0,1.5,0,2.23,0,1.58,0,3.16-.12,4.73.03,1.8.17,1.81-.86,1.67-2.68Z"/>
  <path class="st0" d="M1694.26,542.25c-4.32-1.89-8.58-3.55-9.38-8.77-.15-1.01-.36-2.03-.37-3.04-.03-9.89.21-19.78-.11-29.66-.17-5.27,3.68-10.7,8.78-11.82,4.3-.94,8.58-1.25,12.73-.03,7.27,2.14,8.71,5.97,9.48,12.01.23,1.85.04,3.75.04,5.79h-10.73c0-2.07.04-4.14-.01-6.21-.06-2.44-2.31-4.44-4.82-4.35-2.45.09-4.62,2.09-4.63,4.42-.03,9.68-.05,19.36,0,29.03.02,3.35,1.44,4.47,5.22,4.42,3-.04,4.21-1.29,4.23-4.39.01-2.62,0-5.24,0-8.04h10.37c1.38,10.65-.75,18.47-9.66,20.42-3.66.23-7.26.23-11.14.23Z"/>
  <path class="st0" d="M69.11,542.25c-4-1.61-8.06-2.94-9.23-7.42-.79-3.01-1.07-6.16-1.61-9.48h10.24c.31,1.67.55,3.26.92,4.83.89,3.74,3,4.91,6.65,3.76,2.58-.81,4.13-4.25,2.27-6.86-2.32-3.27-5.36-6.1-8.4-8.76-4.02-3.51-8.93-6.36-10.15-11.99-1.62-7.48-.42-14.96,8.23-17.31,4.89-1.33,9.81-1.33,14.43.46,4.54,1.76,8.07,6.03,7.04,14.27h-9.8c-.06-.68-.17-1.26-.14-1.83.09-2.22-.45-4.06-2.65-5.11-2.26-1.08-4.59-.91-5.67,1.24-.84,1.68-1.32,4.53-.44,5.86,1.97,3.01,4.67,5.64,7.45,7.98,4.32,3.64,9.48,6.63,10.87,12.56,2.02,8.63-.38,15.71-9.49,17.58-3.46.23-6.84.23-10.51.23Z"/>
  <path class="st0" d="M331.13,542.25c-3.06-1.82-6.15-3.31-8.46-5.59-1.31-1.3-1.82-3.89-1.86-5.92-.18-9.78.03-19.56-.12-29.34-.1-5.96,2.5-10.96,9.62-12.59,4.15-.95,8.23-.75,12.39.32,5.37,1.38,8.85,6.19,8.96,12.12.03,1.77,0,3.54,0,5.65h-9.91c-.17-2.21-.2-4.27-.51-6.29-.44-2.92-2.46-4.66-5.22-4.33-3.6.43-4.65,2.49-4.61,5.74.12,8.83.04,17.67.04,26.5,0,4.08,1.11,5.25,4.51,5.57,3.61.34,5.11-1.55,5.55-5.43.25-2.27.05-4.59.05-7.07h10.34c-.29,4.1-.1,8.3-1.01,12.25-1.04,4.55-4.52,7.14-9.26,8.17-3.45.23-6.84.23-10.51.23Z"/>
  <path class="st0" d="M1460.03,542.25c-2.22-.98-4.3-1.75-6.05-2.98-4.92-3.44-4.6-8.6-4.23-13.91h9.81c.16,1.84.1,3.73.52,5.49.69,2.88,3.69,4.11,6.91,3.07,1.8-.58,3.36-3.78,2.72-5.87-1.31-4.3-4.76-6.68-8.14-9.22-4.2-3.15-8.54-6.27-10.68-11.39-3.49-8.35.63-18.3,11.05-19.01,3.87-.26,7.51-.12,11.06,1.14,4.46,1.58,8.21,6.28,7.47,13.97h-9.69c-.3-1.28-.55-2.65-.96-3.97-.88-2.81-2.95-3.94-5.61-3.16-3.07.9-3.88,2.53-3.44,5.63.66,4.54,4.32,6.58,7.23,9.27,3.37,3.12,7.34,5.79,10.06,9.4,4.86,6.45,2.87,17.28-4.52,20.27-.93.38-1.95.54-3,1.04-3.46.23-6.84.23-10.51.23Z"/>
  <path class="st0" d="M942.3,542.25c-2.52-1.28-4.85-2.4-6.94-3.87-2.78-1.95-3.44-4.99-3.45-8.18-.02-9.47.17-18.94-.07-28.4-.15-5.89,2.32-11.48,9.61-12.83,3.83-.71,8.02-.75,11.83.01,6.6,1.31,9.96,7.18,9.57,12.86-.11,1.56-.02,3.13-.02,4.88h-10.1c0-1.69.07-3.44-.02-5.19-.14-2.84-2.73-5.63-5.17-5.31-2.89.38-4.98,1.61-4.95,5.45.08,8.94.02,17.89.03,26.83,0,4.12,1.09,5.28,4.49,5.6,3.65.34,5.12-1.53,5.57-5.41.26-2.27.05-4.6.05-7.08h10.36c-.31,4.19-.05,8.54-1.1,12.54-1.12,4.26-4.39,7.1-9.18,7.88-3.46.23-6.84.23-10.51.23Z"/>
  <path class="st0" d="M180.87,542.25c-2.52-1.28-4.84-2.4-6.94-3.86-2.78-1.95-3.44-4.98-3.45-8.17-.03-9.56,0-19.13,0-28.69,0-7.1,2.3-10.16,9.25-12.44,4.97-1.63,9.83-1.17,14.59.75,4.92,1.98,6.9,5.94,7.09,10.99.07,1.88.01,3.77.01,5.86h-9.78c-.29-2.29-.63-4.7-.88-7.11-.3-2.96-2.68-3.36-4.73-3.31-2.45.07-4.73,1.37-4.76,4.23-.12,9.98-.17,19.97.03,29.95.06,3.18,2.69,3.66,5.42,3.62,3.05-.05,4.24-2.02,4.53-4.49.31-2.57.07-5.21.07-7.99h10.34c-.3,4.12-.31,8.25-.96,12.29-.63,3.94-4.93,7.3-9.31,8.15-3.46.23-6.84.23-10.51.23Z"/>
  <path class="st0" d="M224.95,163.25c7.2,15.82,14.25,31.46,21.31,47.08,6.81,15.07,13.63,30.13,20.44,45.19,5.81,12.85,11.61,25.71,17.42,38.56,7.89,17.47,15.78,34.94,23.67,52.41,5.77,12.76,11.55,25.51,17.31,38.28,7.93,17.56,15.86,35.13,23.76,52.7.49,1.09.68,2.3,1.06,3.63h-59.12c-2.33-5.23-4.62-10.42-6.94-15.59-7.34-16.39-14.67-32.77-22.03-49.15-4.12-9.16-8.3-18.29-12.44-27.44-6.73-14.88-13.47-29.76-20.18-44.65-6.97-15.44-13.91-30.9-20.87-46.34-7.63-16.93-15.25-33.85-22.91-50.77-1.67-3.68-3.47-7.3-5.44-11.44-20.94,46.28-41.68,92.13-62.51,138.16,25.94,0,51.6.03,77.26-.05,2.4,0,3.74.42,4.83,2.93,5.93,13.68,12.15,27.25,18.27,40.85,1.45,3.23,2.89,6.47,4.43,9.94h-3.73c-40.51,0-81.02.03-121.53-.07-2.63,0-4.07.64-5.15,3.13-5.95,13.67-12.06,27.27-18.15,40.88-1.45,3.24-3.04,6.41-4.56,9.59H9.83c1.12-2.66,2.07-5.09,3.15-7.47,5.33-11.73,10.72-23.44,16.05-35.18,8.13-17.92,16.23-35.86,24.32-53.79,5.59-12.39,11.15-24.8,16.73-37.19,8.04-17.85,16.1-35.69,24.15-53.54,5.84-12.95,11.69-25.89,17.54-38.84,7.85-17.38,15.71-34.76,23.55-52.14,5.04-11.19,10.05-22.39,15.08-33.61,19.23,0,38.27.05,57.31-.06,2.52-.01,2.8,1.75,3.47,3.22,4.37,9.71,8.67,19.45,12.99,29.19.21.46.43.92.8,1.57Z"/>
  <path class="st0" d="M1169.3,216.46c0,33.56.24,66.81-.1,100.06-.18,17.93-3.37,35.39-10.78,51.94-5.94,13.27-13.67,25.26-23.39,36.12-11.84,13.23-25.95,23.26-41.84,30.8-10.96,5.2-22.51,8.86-34.64,10.24-7.08.81-14.22,1.97-21.31,1.79-18.54-.47-36.47-3.86-53.53-11.75-16.93-7.83-31.57-18.58-43.88-32.39-15.06-16.89-25.06-36.64-29.84-58.73-1.82-8.42-2.56-17.22-2.59-25.85-.21-61.87-.11-123.73-.11-185.6v-3.59h53.67v3.36c0,61.34-.14,122.68.09,184.02.06,17.23,5.62,32.79,16.37,46.54,7.57,9.68,16.81,17.12,27.72,22.46,7.52,3.68,15.54,5.81,23.94,6.81,14.91,1.78,29.13-.32,42.54-6.93,9.87-4.86,18.31-11.63,25.41-20.18,6.88-8.29,12.22-17.37,14.93-27.75,1.57-6.01,2.91-12.29,2.93-18.46.21-62.08.13-124.15.13-186.23v-3.62h54.3v86.94Z"/>
  <path class="st0" d="M591.58,299.09c-4.17-10.39-8.37-20.76-12.51-31.16-6.59-16.56-13.12-33.14-19.73-49.7-1.23-3.09-2.7-6.09-4.24-9.54-2.3,6.34-4.47,12.37-6.69,18.38-5.68,15.38-11.38,30.75-17.06,46.12-8.01,21.68-16.01,43.37-24.01,65.05-8,21.68-16.03,43.36-24,65.05-4.81,13.09-9.48,26.24-14.37,39.3-.39,1.04-1.97,2.31-3.01,2.32-18.2.14-36.4.1-54.6.08-.28,0-.57-.14-1.03-.26,3.5-9.41,6.98-18.74,10.43-28.09,7.36-19.97,14.7-39.94,22.06-59.91,7.99-21.69,16-43.37,24-65.05,8-21.68,16-43.37,24.01-65.05,8-21.68,16.01-43.37,24-65.05,3.28-8.89,6.5-17.79,9.87-26.64.3-.78,1.48-1.24,2.28-1.81.14-.1.41-.01.62-.01,17.52-.21,35.05-.36,52.56-.71,2.42-.05,3.53.84,4.32,2.84,8.73,21.96,17.45,43.92,26.23,65.86,2.76,6.89,5.67,13.72,8.59,21.03,1.29,3.78,2.42,7.14,3.74,10.43,5.69,14.18,11.41,28.34,17.18,42.49,3.04,7.44,6.21,14.82,9.32,22.22,5.93,14.74,11.87,29.48,17.79,44.22,7.59,18.9,15.15,37.82,22.75,56.72,5.44,13.51,10.93,27.01,16.39,40.51.71,1.77,1.38,3.56,2.19,5.66h-7.04c-16.2,0-32.4-.04-48.6.05-2.09.01-3.22-.57-4-2.51-5.41-13.63-10.9-27.23-16.36-40.84-3.64-9.07-7.28-18.15-11.16-27.56-.49-1.34-.65-2.39-1.03-3.34-7.13-17.86-14.26-35.72-21.47-53.55-2.38-5.89-4.96-11.7-7.46-17.55Z"/>
  <path class="st0" d="M649.68,297.06c-3.22-7.19-6.39-14.57-9.42-22-5.77-14.14-11.49-28.31-17.18-42.49-1.32-3.29-2.45-6.65-3.64-10.22,4.49-12.17,8.98-24.09,13.4-36.04,6.5-17.55,12.92-35.13,19.49-52.65.31-.82,1.75-1.73,2.67-1.74,17.99-.1,35.98-.1,53.98,0,.87,0,2.2.98,2.53,1.82,9.62,23.7,19.13,47.45,28.67,71.18,6.48,16.14,12.94,32.29,19.47,48.41,7.8,19.25,15.71,38.46,23.49,57.72,4.86,12.05,9.49,24.19,14.35,36.23,6.93,17.18,14.02,34.29,20.96,51.46,5.9,14.59,11.69,29.23,17.65,44.16-1.16.08-2.04.19-2.92.19-17.68,0-35.35-.02-53.03.04-2.01,0-2.86-.46-3.69-2.58-6.76-17.35-13.79-34.6-20.72-51.88-8-19.94-15.98-39.89-24-59.82-5.85-14.52-11.79-29.01-17.63-43.53-8.47-21.07-16.86-42.18-25.32-63.26-1.9-4.75-3.93-9.44-6-14.41-11.04,29.84-22.02,59.51-33.1,89.39Z"/>
  <path class="st0" d="M1738.17,323.16v117.88h-53.48V129.52h53.36v128.48h98.43v54.31h-98.3v10.85Z"/>
  <path class="st0" d="M591.37,299.21c2.7,5.73,5.29,11.54,7.67,17.43,7.2,17.83,14.33,35.69,21.47,53.55.38.95.54,2,.82,3.25-6.66,18.38-13.35,36.51-20.01,54.65-1.9,5.17-3.7,10.37-5.56,15.59h-57.69c2.8-7.81,5.51-15.53,8.34-23.21,4.07-11.03,8.24-22.03,12.34-33.05,6.88-18.5,13.76-36.99,20.59-55.51,4-10.84,7.88-21.72,12.03-32.7Z"/>
  <path class="st0" d="M752.59,515.1v26.33h-10.01v-32.28c-.15-.01-.31-.02-.46-.03-1.35,7.56-2.71,15.12-4.05,22.68-.46,2.62-.69,5.3-1.38,7.85-.22.82-1.53,1.63-2.49,1.9-1.17.33-2.5.08-3.76.08-4.77,0-4.74,0-5.62-4.65-1.73-9.09-3.49-18.17-5.68-27.22v31.74h-9.35v-52.9c4.38,0,8.67-.1,12.94.1.72.03,1.84,1.24,2.01,2.06,2.28,11.18,4.42,22.39,6.69,34.09,2.27-12.33,4.45-24.16,6.66-36.11h14.51v26.38Z"/>
  <path class="st0" d="M474.83,488.58h9.13c3.12,9.64,6.19,19.16,9.26,28.67.12,0,.24-.02.35-.02v-28.45h9.43v52.83c-3.03,0-6.15.13-9.24-.1-.72-.05-1.68-1.23-1.97-2.08-3.73-10.91-7.37-21.85-11.23-33.39v35.4h-10.02v-52.86h4.29Z"/>
  <path class="st0" d="M868.77,507.52v33.91h-11.11c-3.93-11.78-7.89-23.64-11.84-35.5-.13.02-.26.03-.38.05v35.49h-9.35v-52.88c3.9,0,7.76-.1,11.61.09.75.04,1.82,1.1,2.09,1.9,3.09,9.09,6.05,18.22,9.41,27.3v-29.11h9.58v18.76Z"/>
  <path class="st0" d="M563.81,510.68v-22.37c6.56.29,12.99.42,19.39.94,2.55.21,5.16,1,7.52,2.02,3.99,1.72,5.13,5.53,5.22,9.36.22,9.88.16,19.76.04,29.65-.07,5.96-5.1,11.12-11.05,11.28-6.92.19-13.84.04-21.12.04v-30.94M578.62,533.41c5.25.28,6.44-.53,6.58-4.94.28-8.91.1-17.84.07-26.76,0-2.77-1.57-4.47-4.2-4.86-1.9-.28-3.88-.06-5.71-.06v36.62h3.25Z"/>
  <path class="st0" d="M1239.99,541.62h-14.95v-53.36c7.4.36,14.92.2,22.27,1.26,6.32.91,9.62,5.96,9.72,13.02.13,8.62.36,17.25-.07,25.85-.4,8.1-3.71,13.13-13.82,13.23-.95,0-1.89,0-3.15,0M1245.7,501.74c.59-4.36-3.05-5.8-9.9-4.56v36.23c1.77,0,3.34,0,4.91,0,4.02,0,4.99-.96,4.99-4.89,0-8.73,0-17.46,0-26.78Z"/>
  <path class="st0" d="M1773.52,522.04v19.39h-11.25v-21.73h-10.74v21.74h-10.66v-52.67h10.45v22.36h10.74v-22.37h11.47v33.28Z"/>
  <path class="st0" d="M1339.77,525.83v-37.81c7.96.61,15.84.72,23.53,1.98,5.55.91,8.04,5.16,8.04,10.81,0,9.67-.2,19.34.07,29,.19,6.96-4.74,11.38-11.16,11.73-6.69.36-13.41.08-20.48.08v-15.78M1360.61,519.83c0-5.99,0-11.98,0-17.96,0-3.35-1.41-4.89-4.71-5.06-1.74-.09-3.49-.02-5.24-.02v36.62c2.13,0,4.1,0,6.08,0,2.51-.01,3.82-1.3,3.86-3.8.04-3.05,0-6.09,0-9.77Z"/>
  <path class="st0" d="M1539.91,513.83v-25.52c6.35.29,12.56.5,18.76.9,2.1.14,4.25.54,6.23,1.25,4.52,1.63,6.42,5.4,6.52,9.84.21,9.88.34,19.77-.02,29.64-.28,7.57-3.93,10.66-11,11.49-6.62.77-13.41.17-20.48.17v-27.78M1560.75,524.22c0-7.35.02-14.7,0-22.05-.01-3.5-1.85-5.32-5.31-5.38-1.54-.03-3.08,0-4.78,0v36.38c9.08.65,10.42,1.07,10.1-8.94Z"/>
  <path class="st0" d="M1310.73,515.12c1.73,8.93,3.45,17.57,5.23,26.49-3.33,0-6.27.16-9.17-.1-.84-.07-1.99-1.21-2.28-2.1-.75-2.3-.35-5.6-1.81-6.84-1.43-1.21-4.6-.38-7-.42-1.36-.02-2.72,0-4.25,0-.59,3.11-1.18,6.17-1.79,9.35h-10.13c3.54-17.71,7.03-35.22,10.55-52.82h15.43c1.74,8.68,3.48,17.42,5.24,26.45M1298.73,508.99c-.46-2.7-.91-5.39-1.37-8.09-.12.02-.23.05-.35.07-1.38,7.78-2.77,15.56-4.17,23.45h8.93c-1.03-5.07-2.03-9.97-3.05-15.43Z"/>
  <path class="st0" d="M1109.49,526.23c1.08,5.14,2.02,10.04,3.05,15.38-3.31,0-6.5.09-9.68-.08-.61-.03-1.52-1.01-1.68-1.69-.57-2.47-.89-5-1.31-7.59h-11.83c-.54,2.94-1.1,6-1.7,9.22h-10.09c3.46-17.66,6.9-35.19,10.35-52.78h15.5c1.89,9.5,3.77,18.88,5.61,28.26.59,3,1.09,6.03,1.78,9.27M1094.78,503.63c-.32-1.13-.64-2.26-.97-3.43-1.44,8.04-2.87,16.04-4.32,24.16h8.62c-.17-1.35-.28-2.48-.47-3.59-.93-5.53-1.89-11.06-2.85-17.13Z"/>
  <path class="st0" d="M286.93,488.72c3.76,17.59,7.26,35.05,10.8,52.75h-10.99c-.45-2.35-.75-4.78-1.44-7.09-.26-.88-1.35-2.06-2.16-2.14-2.7-.27-5.47-.27-8.17,0-.8.08-1.88,1.27-2.14,2.15-.68,2.31-.99,4.73-1.44,7.09h-10.03c3.46-17.63,6.9-35.11,10.39-52.89,4.88,0,9.89,0,15.17.12M281.13,524.57c.77-.07,1.55-.14,2.35-.22-1.45-7.85-2.86-15.45-4.27-23.06-.16.04-.33.08-.49.12-1.38,7.64-2.75,15.28-4.17,23.16,2.25,0,4.12,0,6.59,0Z"/>
  <path class="st0" d="M1046.54,489.22c7.35,2.14,9.88,5.94,9.75,14.14-.03,2.1-.06,4.21,0,6.31.24,7.52-5.77,12.02-12.19,12.35-2.52.13-5.05.02-7.83.02v19.35h-10.71v-52.18c6.82,0,13.76,0,20.98,0M1037.11,496.79c-.34.39-.97.79-.98,1.19-.07,5.21-.04,10.43-.04,15.86,2.14,0,4.04.21,5.86-.08,1.06-.17,2.8-1.08,2.84-1.74.25-4.26.35-8.56-.07-12.8-.09-.93-2.45-1.8-3.89-2.36-.91-.35-2.07-.07-3.71-.06Z"/>
  <path class="st0" d="M632.63,503.73v6.84h13.71v8.22h-13.53v14.53h17.33v8.13h-28.06v-52.68h28.05v7.91h-17.49v7.06Z"/>
  <path class="st0" d="M1424.85,541.59c-9.32.02-18.34.02-27.49.02v-52.89h28.13v8.03h-17.39v13.9h13.61v8.22h-13.62v14.53h17.74c-.24,2.91-.46,5.54-.98,8.2Z"/>
  <path class="st0" d="M1597.37,535.28v-46.51h28.22v7.9h-17.3v13.9h13.52v8.22h-13.53v14.53h17.32v8.13h-28.23v-6.16Z"/>
  <path class="st0" d="M1911.14,488.58h5.52v8.09h-17.3v13.9h13.52v8.22h-13.53v14.53h17.32v8.13h-28.06v-52.86h22.53Z"/>
  <path class="st0" d="M1156.66,541.62h-20.01v-52.85h10.44v44.52h16.98v8.32h-7.4Z"/>
  <path class="st0" d="M1837.29,516.36v-27.59h10.62v44.53h16.35v8.14h-26.96v-25.07Z"/>
  <path class="st0" d="M988.1,534.66v-45.89h10.55v52.67h-10.55v-6.77Z"/>
  <path class="st0" d="M1198.34,497.42v44h-10.55v-52.66h10.55v8.66Z"/>
  <path class="st0" d="M1800.04,500.58v-11.81h10.55v52.67h-10.55v-40.86Z"/>
  <path class="st0" d="M226.66,534.66v-45.89h10.55v52.67h-10.55v-6.77Z"/>
  <path class="st0" d="M376.93,535.91v-47.15h10.56v52.67h-10.56v-5.53Z"/>
  <path class="st0" d="M895.28,525.83v-37.06h10.73v52.66h-10.73v-15.6Z"/>
  <path class="st0" d="M424.35,485.04c1.62-2.27,3-4.41,4.59-6.4.41-.52,1.44-.74,2.19-.77,3.04-.08,6.09-.03,10.13-.03-5.57,3.78-8.51,10.3-16.13,8.86-1-.19-2.18.02-.78-1.67Z"/>
</svg>