<?xml version="1.0" encoding="UTF-8"?>
<svg id="Layer_1" xmlns="http://www.w3.org/2000/svg" version="1.1" viewBox="0 0 1375.8 779">
  <!-- Generator: Adobe Illustrator 29.8.3, SVG Export Plug-In . SVG Version: 2.1.1 Build 3)  -->
  <defs>
    <style>
      .st0 {
        fill: #fff;
      }

      .st1 {
        fill: #f0f0f0;
      }
    </style>
  </defs>
  <path class="st0" d="M649.4,118.2c1.8,0,3.7-.2,5.5-.2h454.2v163c-152.9,0-305.8,0-459.2-.5-.3-10,0-19.4,0-28.9-.1-44.5-.3-88.9-.5-133.4h0Z"/>
  <path class="st1" d="M648.9,118.1c.7,44.5.9,89,1,133.5,0,9.5-.3,19-.5,28.9-1.8.5-3.7.6-5.5.6h-365.1V118c123.3,0,246.5,0,370.2,0Z"/>
  <path class="st0" d="M652.4,576.2c1.7,0,3.3-.2,5-.2h451.7v49c-151.9,0-303.8,0-456.2-.5-.5-16.4-.5-32.4-.5-48.3h0Z"/>
  <path class="st1" d="M649.4,624.8c-1.8,0-3.7.2-5.5.2h-365.1v-49c123.3,0,246.5,0,370.1.5.5,16.4.5,32.4.5,48.3h0Z"/>
  <path class="st0" d="M725.4,356c11.2-7.8,22.6-13.8,36.3-15.1,15.8-1.5,31.2-1.5,46.3,4,17.9,6.5,30.8,18.7,37.1,36.5,3.7,10.3,4.6,21.7,6.2,32.6.9,6.5,1.3,13.2,1,19.8-.5,9.2-2,18.3-2.9,27.4-1.2,12.2-5.4,23.1-12.6,33.1-10.9,15.2-25,24.9-43.9,27.9-15.3,2.4-30.2,1.9-44.8-2.7-7-2.2-13.7-6.5-19.5-11.1-8.5-6.8-16-15-19.7-25.5-2.9-8.5-5.2-17.3-6.4-26.1-1.5-10.4-2.2-21.1-2-31.6.1-12.5,2.5-24.7,5.4-36.9,3-13.1,10-23.1,19.5-32.3M758.1,486.9c8.2,4.4,16.8,6.7,26.1,4,7.5-2.2,15.1-4.9,19.1-12,5.8-10.4,9.8-21.7,9.9-33.6.2-13.7-.2-27.5-2.2-41-1.2-7.8-4.6-16.2-9.7-22.2-9.1-10.7-21.8-13.2-35.4-9.2-5.8,1.7-11.3,4.2-14.9,9.2-9.1,12.7-12.2,27.4-12.5,42.6-.2,10.2.3,20.6,2.1,30.6,2.2,12,5.3,24,17.4,31.7h0Z"/>
  <path class="st0" d="M451.4,497v23.7h-35.6v-177.7h5.3c19,0,38,.2,57-.1,11.3-.2,21.6,3.2,31.9,7.3,15.8,6.3,22.2,19.5,25.4,34.8,3.9,18.5-1.1,35.1-13,49.2-4.8,5.7-11.9,9.6-18,14.3,11.8,23.1,24.2,47.3,37.1,72.6h-22.1c-5.8,0-11.7.2-17.5-.1-1.5,0-3.6-1.1-4.2-2.3-6.2-12.9-12.2-25.8-18-38.9-3.2-7.3-5.8-14.9-8.7-22.4-1.1-2.8-2.6-3.7-6.1-2.9-4.1.9-8.6.2-13.7.2v42.3M497.4,402.4c0-.7,0-1.4,0-2,2.4-10.8-1.4-20.5-10.8-25.6-11-5.9-23.1-3.6-34.8-3.7v53.9c6.9,0,13.5.7,19.8-.2,12.8-1.8,24.1-6.6,25.8-22.4h0Z"/>
  <path class="st0" d="M1104.4,498.1v22.6h-109.6v-177.4h109.2v29.5h-73.2v42h55.9c-.8,10.9-1.6,21.3-2.5,32.1h-53.5v43h73.6v8.2h0Z"/>
  <path class="st0" d="M348.4,521h-68.7v-177.6h109.3v29.5h-73.3v42h55.9c-.8,10.8-1.7,21-2.5,31.9h-53.5v43h73.4v31.2h-40.7Z"/>
  <path class="st0" d="M227.3,423c7.9,6.1,15.8,11.8,20.3,20.7,9,17.4,8.2,34.7-1.9,51.1-11.1,18.1-28,26.6-49,28.3-18.1,1.5-34.9-1.9-51-9.5-4.7-2.2-9.1-5.2-13.4-8.3-1-.7-1.9-3.2-1.4-4.2,4.2-8.5,8.8-16.8,13.1-25,7.9,3.8,15.2,7.8,23,10.8,13.4,5.2,26.9,8.2,40.4-.9,10.4-7,11.5-25.2,0-31.3-11.2-6-23.1-11-34.9-15.8-12.2-5-23.5-10.9-31.1-22.3-10.4-15.7-10.6-42.4,3.8-58,9.3-10,21.2-16,34.8-17.7,19.2-2.5,38.2-1.7,56.6,4.9,4.9,1.8,9.6,4.1,14.6,6.2-3.9,9.2-7.5,18-11.5,26.6-.5,1-3.4,1.9-4.5,1.4-10.7-5-21.7-8.5-33.6-8.1-5.8.1-11.8,0-17.4,1.2-6.4,1.4-11.4,5.6-12.8,12.3-1.5,7.1,1.8,13,7.9,16.3,9.6,5.1,19.7,9.5,29.7,14,5.8,2.6,11.9,4.7,18.2,7.1h0Z"/>
  <path class="st0" d="M590.4,457.7c3.2,6.7,5.8,13.3,9.5,19.2,5.5,8.9,15.2,11.4,24.5,12.9,11.5,1.8,22.6-1.2,33.1-5.9,5.6-2.5,11.1-5.3,16.6-8.2,2.6-1.4,4.1-.7,5,1.8,2.8,7.7,5.3,15.4,8.4,23,1.2,3,0,4.5-1.9,5.8-12,7.7-24.9,13.3-39,15.7-5.7,1-11.4,2.1-17.1,1.9-23.2-.6-44.6-5-60-25-9.9-12.9-16.2-27-18-42.9-1.3-12.1-2.5-24.5-1.9-36.6,1.3-24.9,9.4-47.8,28.5-64.5,7.3-6.5,18.1-10.3,27.9-12.5,25.6-5.6,50.7-2.5,74.7,8.4,7.8,3.6,8.3,5.1,4.4,12.9-3.5,7-7,14.1-10,20-9.5-3.4-18.9-7.2-28.5-10-10.8-3.1-21.9-2.9-32.5,1.5-13.1,5.5-20.7,16-23.6,29.4-3.7,17.5-3.3,35.1,0,53.1h0Z"/>
  <path class="st0" d="M1249.1,483.3c2.6,6.1,5.1,11.8,7.2,17.6.4,1.3-.3,4-1.3,4.7-15.8,9.6-32.4,16.8-51.5,17.6-11.8.5-23.3,0-34.5-3.3-13.1-3.9-24-11.3-32.5-22-11.5-14.4-15.1-31.6-16.9-49.2-.9-8.7-1.2-17.5-1-26.3.3-13.9,3.9-27,8.5-40.2,4.1-11.7,11-20.9,20.5-27.9,9.3-6.8,19.8-12.1,31.6-13.2,8.2-.8,16.6-1.3,24.8-1,15.4.5,30.3,3.4,44.2,10.2,1.3.6,2.7,1.1,4.1,1.6,3.3,1.2,4.6,3.1,2.9,6.6-4.2,8.7-8.3,17.5-12.4,26.1-6.2-2.9-12.2-6.4-18.7-8.6-14-4.7-28.3-6.5-42.4-.6-11.4,4.8-17.3,14.7-21.3,25.8-4.5,12.4-4.7,25.3-3.9,38.2.9,14.9,4.3,29.3,14.7,40.8,5.8,6.4,14,9.2,22.5,9.8,17.7,1.3,33.5-4.9,48.3-14,1-.6,2.3-.8,3.6-1.1,1.2,3,2.2,5.6,3.4,8.5h0Z"/>
  <path class="st0" d="M931.4,468v52.7h-36.8v-147.5h-42.8v-29.9h123.2v29.5h-43.6v95.2h0Z"/>
  <path class="st0" d="M649.7,624.9c-.4-16-.4-32-.4-48.3.8-.5,1.5-.5,2.6-.5.4,16,.4,31.9.4,48.3-.8.5-1.5.5-2.7.5h0Z"/>
</svg>