<?xml version="1.0" encoding="utf-8"?>
<!-- Generator: Adobe Illustrator 26.0.1, SVG Export Plug-In . SVG Version: 6.00 Build 0)  -->
<svg version="1.1" id="Layer_1" xmlns="http://www.w3.org/2000/svg" xmlns:xlink="http://www.w3.org/1999/xlink" x="0px" y="0px"
	 viewBox="0 0 211 172" style="enable-background:new 0 0 211 172;" xml:space="preserve">
<style type="text/css">
	.st0{fill:#7088a0;}
</style>
<g transform="translate(0.000000,172.000000) scale(0.100000,-0.100000)">
	<path class="st0" d="M210,1456c0-2,41-40,92-83c99-85,271-235,504-438c162-142,253-215,266-215c12,0,82,58,258,211
		c250,218,404,352,499,433c64,56,88,82,79,88C1895,1460,210,1464,210,1456z"/>
	<path class="st0" d="M150,865c0-322,4-534,9-531c5,4,11,1,13-5s31,13,64,43c34,29,86,74,115,99c30,26,113,98,185,160
		c72,63,158,137,192,164c33,28,61,55,61,60c0,6-27,33-61,60c-33,28-120,102-192,165c-73,63-158,138-191,165c-32,28-80,69-107,92
		c-26,23-57,47-68,53C150,1401,150,1399,150,865z"/>
	<path class="st0" d="M1899,1353c-31-26-82-70-114-98c-33-27-118-102-191-165c-72-63-159-137-192-165c-34-27-61-54-61-60
		c0-5,28-32,61-60c34-27,120-101,192-164c72-62,155-134,185-160c30-25,78-67,107-93s62-52,73-58l21-11v536c0,322-4,534-9,531
		c-5-4-11-1-13,5C1956,1396,1930,1380,1899,1353z"/>
	<path class="st0" d="M753,747c-39-34-144-125-233-202S324,376,283,341c-58-50-71-66-59-73c8-4,394-7,857-6l843,3l-88,75
		c-88,74-258,221-437,375c-51,44-98,83-105,88c-8,4-41-18-92-62c-118-101-138-114-160-102c-10,5-56,42-103,81c-46,39-91,75-100,80
		C828,806,805,792,753,747z"/>
</g>
</svg>
