<?xml version="1.0" encoding="UTF-8"?>
<svg id="Layer_1" xmlns="http://www.w3.org/2000/svg" version="1.1" viewBox="0 0 500 113">
  <!-- Generator: Adobe Illustrator 29.8.3, SVG Export Plug-In . SVG Version: 2.1.1 Build 3)  -->
  <defs>
    <style>
      .st0 {
        fill: #fff;
      }
    </style>
  </defs>
  <path class="st0" d="M87.4,56.3l-17.4,31.5-17.4-31.5,17.4-31.5,17.4,31.5ZM122.6,56.3l-17.4,31.5-17.4-31.5,17.4-31.5,17.4,31.5ZM52.3,56.3l-17.4,31.5-17.4-31.5,17.4-31.5,17.4,31.5ZM70.2,0C109,0,140.5,25.3,140.5,56.5s-31.4,56.5-70.2,56.5S6.2,92.4.9,65.4c-.5-2.7-.9-5.8-.9-8.9C0,30.2,21.9,9.8,48.4,2.8,55.4.9,62.6,0,70.2,0M5.3,58.7c1.3,25.6,26.7,46.3,58.9,48.6,2.7.2,5.4.3,8.2.2,31.9-.9,58-20.5,61.6-44.9.4-2.8.6-5.6.6-8.4-.1-5.4-1.2-10.5-3.4-15.2-8.2-17.7-28.7-30.8-53.4-33-3.2-.3-6.5-.4-9.8-.3-4.4.1-8.7.6-12.9,1.3C35.1,10.2,9.1,25.5,5.6,51c-.4,2.7-.4,5.8-.3,7.7"/>
  <path class="st0" d="M269.3,40.5h31.2v-11.7h-31.2v-11.7s34.1,0,34.1,0V5.6h-35.8c-7.7,0-9.9,3.8-9.9,9.7v48.6h46.7v-11.7h-35v-11.7ZM381.6,33.3v-16.1s20,0,20,0c5.9,0,8.7,3.4,8.7,7.8s-3.6,8.3-8.7,8.3h-20ZM422.2,25c0-10.7-9.1-19.4-22-19.4h-21c-6.4,0-9,4.4-9,9.7v48.6h11.7v-19.4h11.9l14.2,19.4h15.5l-16.3-20.3c9.4-2.5,14.9-9.8,14.9-18.5M232.2,5.6h-1.8c-5.2,0-8.9,2.2-11.1,6.8l-16,33.2-16-33.2c-2.2-4.6-5.6-6.8-11.5-6.8h-1.6c-5.8,0-8.3,4.2-8.3,8.7v49.5h12.3V19.8l14.3,29.9c2.6,5.4,5,7,10.4,7h.4c5.8,0,8.5-1.8,10.9-6.8l14.4-30.1v44h12.3V14.3c0-4.5-2.5-8.7-8.5-8.7M311,15.3v1.9h19.1v46.7h13.6V17.2h17V5.6h-40.7c-6.5,0-9.1,4.4-9.1,9.7M465.6,54c-13.9,0-20.3-8.7-20.3-19.5s7-19.5,20.3-19.5,19.6,8.7,19.6,19.5-6.9,19.5-19.6,19.5M465.8,4.2c-20.6,0-34.3,13.6-34.3,30.3s12.7,30.2,34.3,30.2,33.2-13.5,33.2-30.2-14.3-30.3-33.2-30.3"/>
  <path class="st0" d="M348.1,87.4v-.9c0-2.4,2.3-4.3,5.2-4.3h22.5v5.2h-10.8v20.7h-6.1v-20.7h-10.8Z"/>
  <path class="st0" d="M180.5,108.1h-15.6v-21.6c0-2.4,2.3-4.3,5.2-4.3h10.4c8.6,0,15.6,5.8,15.6,13s-7,13-15.6,13M170.2,103h11.4c5.2,0,9.3-3.5,9.3-7.8s-4.2-7.8-9.3-7.8h-11.4v15.6h0Z"/>
  <path class="st0" d="M206.5,103h19v5.2h-24.2v-21.6c0-2.4,2.3-4.3,5.2-4.3h19v5.2h-19v5.2h17.3v5.2h-17.3v5.2Z"/>
  <rect class="st0" x="381.4" y="82.2" width="5.2" height="25.9"/>
  <path class="st0" d="M442.1,87.3c-5.2,0-9.3,3.5-9.3,7.8s4.2,7.8,9.3,7.8h8v-5.2h-6.9v-5.2h12.1v11.2c0,2.4-2.3,4.3-5.2,4.3h-6.9c-8.6,0-15.6-5.8-15.6-13s7-13,15.6-13h12.1v5.2s-13.2,0-13.2,0Z"/>
  <path class="st0" d="M337.5,103.3v-21.2h5.2v21.6c0,2.4-2.3,4.3-5.2,4.3s-3.6-.9-4.5-2.2l-14.5-19v21.2h-5.2v-21.6c0-2.4,2.3-4.3,5.2-4.3s3.5.9,4.6,2.2l14.5,18.9Z"/>
  <path class="st0" d="M296.3,97.7l-4.7-11-4.7,11h9.3ZM291.6,82.2c2.3,0,4.2,1.2,4.9,2.9l9.8,23.1h-5.6l-2.2-5.2h-13.7l-2.2,5.2h-5.6l9.8-23.1c.7-1.7,2.6-2.9,4.9-2.9"/>
  <path class="st0" d="M413.4,97.7l-4.7-11-4.7,11h9.3ZM408.8,82.2c2.3,0,4.2,1.2,4.9,2.9l9.8,23.1h-5.6l-2.2-5.2h-13.7l-2.2,5.2h-5.6l9.8-23.1c.7-1.7,2.6-2.9,4.9-2.9"/>
  <path class="st0" d="M262.8,92.5c5.2,0,9.4,3.5,9.4,7.8s-4.2,7.8-9.4,7.8h-17.5s0-5.2,0-5.2h18.6c1.7,0,3.1-1.2,3.1-2.6s-1.4-2.6-3.1-2.6h-10c-5.2,0-9.4-3.5-9.4-7.8s4.2-7.8,9.4-7.8h15.7v5.2h-16.7c-1.7,0-3.1,1.2-3.1,2.6s1.4,2.6,3.1,2.6h10Z"/>
  <path class="st0" d="M493.3,95.3c0-7.5-7.3-13.5-16.2-13.5s-16.2,6.1-16.2,13.5,7.3,13.5,16.2,13.5c8.9,0,16.2-6.1,16.2-13.5M488,95.3c0,.2-.2.2-.2.4,0,0,0,0,0,0,0,5.1-5,9.2-11.1,9.2s-11.1-4.1-11.1-9.2.2-.2.2-.4c0,0,0,0,0,0,0-5.1,5-9.2,11.1-9.2,6.1,0,11.1,4.1,11.1,9.2"/>
  <path class="st0" d="M492.4,71.8h1.8c.4,0,.7,0,.9-.1.2,0,.4-.2.5-.4.1-.2.2-.4.2-.6,0-.3-.1-.6-.3-.8-.2-.2-.6-.3-1-.3h-2v2.1h0ZM491.6,75.4v-6.4h2.8c.6,0,1,0,1.3.2.3.1.5.3.7.6.2.3.3.6.3,1s-.2.8-.4,1.1c-.3.3-.7.5-1.4.6.2.1.4.2.5.3.2.2.5.5.7.9l1.1,1.7h-1.1l-.8-1.3c-.2-.4-.5-.7-.6-.9-.2-.2-.3-.3-.4-.4-.1,0-.3-.1-.4-.2,0,0-.2,0-.5,0h-1v2.8h-.8Z"/>
  <path class="st0" d="M488.7,72.2c0,2.9,2.3,5.3,5.3,5.3s5.3-2.3,5.3-5.3-2.3-5.3-5.3-5.3c-2.9,0-5.3,2.4-5.3,5.3M487.9,72.2c0-3.3,2.7-6.1,6.1-6.1s6.1,2.7,6.1,6.1-2.7,6.1-6.1,6.1c-3.4,0-6.1-2.7-6.1-6.1"/>
</svg>