<?xml version="1.0" encoding="utf-8"?>
<!-- Generator: Adobe Illustrator 26.0.1, SVG Export Plug-In . SVG Version: 6.00 Build 0)  -->
<svg version="1.1" id="Layer_1" xmlns="http://www.w3.org/2000/svg" xmlns:xlink="http://www.w3.org/1999/xlink" x="0px" y="0px"
	 viewBox="0 0 335.1 588.2" style="enable-background:new 0 0 335.1 588.2;" xml:space="preserve">
<style type="text/css">
	.st0{fill-rule:evenodd;clip-rule:evenodd;fill:#7088a0;}
	.st1{fill:none;stroke:#7088a0;stroke-width:2.16;stroke-linecap:round;stroke-linejoin:round;stroke-miterlimit:3;}
	.st2{fill-rule:evenodd;clip-rule:evenodd;fill:#181818;}
	.st3{fill:#181818;}
	.st4{fill:none;stroke:#7088a0;stroke-width:5;stroke-linecap:round;stroke-linejoin:round;stroke-miterlimit:3;}
</style>
<g>
	<path class="st0" d="M57.4,14h218.3c25,0,45.4,20.3,45.4,45.4v472c0,25-20.3,45.4-45.4,45.4H57.4c-25,0-45.4-20.3-45.4-45.4v-472
		C12,34.3,32.3,14,57.4,14z"/>
	<path class="st1" d="M57.4,14h218.3c25,0,45.4,20.3,45.4,45.4v472c0,25-20.3,45.4-45.4,45.4H57.4c-25,0-45.4-20.3-45.4-45.4v-472
		C12,34.3,32.3,14,57.4,14z"/>
	<path class="st2" d="M53.6,53.2h225.8c4.7,0,8.5,3.8,8.5,8.5v437c0,4.7-3.8,8.5-8.5,8.5H53.6c-4.7,0-8.5-3.8-8.5-8.5v-437
		C45.1,57,48.9,53.2,53.6,53.2z"/>
	<path class="st0" d="M136,30H197c2.2,0,4,1.8,4,4s-1.8,4-4,4H136c-2.2,0-4-1.8-4-4S133.8,30,136,30z"/>
	<path class="st3" d="M136,30H197c2.2,0,4,1.8,4,4s-1.8,4-4,4H136c-2.2,0-4-1.8-4-4S133.8,30,136,30z"/>
	<circle class="st2" cx="165.3" cy="543.3" r="24.6"/>
	<circle class="st4" cx="165.3" cy="543.3" r="20.1"/>
	<path class="st0" d="M63.9,64.2h205.3c4.3,0,7.7,3.6,7.7,8.1v415.8c0,4.5-3.5,8.1-7.7,8.1H63.9c-4.3,0-7.7-3.6-7.7-8.1V72.3
		C56.1,67.9,59.6,64.2,63.9,64.2z"/>
	<path class="st1" d="M63.9,64.2h205.3c4.3,0,7.7,3.6,7.7,8.1v415.8c0,4.5-3.5,8.1-7.7,8.1H63.9c-4.3,0-7.7-3.6-7.7-8.1V72.3
		C56.1,67.9,59.6,64.2,63.9,64.2z"/>
</g>
</svg>
