<?xml version="1.0" encoding="UTF-8"?>
<svg id="Capa_1" xmlns="http://www.w3.org/2000/svg" version="1.1" viewBox="0 0 300 83">
  <!-- Generator: Adobe Illustrator 29.8.3, SVG Export Plug-In . SVG Version: 2.1.1 Build 3)  -->
  <defs>
    <style>
      .st0 {
        fill: #fff;
        fill-rule: evenodd;
      }
    </style>
  </defs>
  <g id="Page-1-Copy">
    <g id="Landind-de-pago_desk">
      <g id="Group-9">
        <g id="Group-33-Copy">
          <g id="Group-15">
            <path id="Fill-1" class="st0" d="M109.5,69.6v-26.5c0-3.5-1.3-6.6-4-9.2-2.6-2.6-5.7-3.8-9.2-3.8s-6.7,1.3-9.3,3.8c-2.6,2.6-4,5.6-4,9.2v26.5h-7.3v-25.9c0-5.9,2-10.9,5.9-14.8,3.9-3.9,8.8-5.9,14.7-5.9s10.7,2,14.6,5.9,5.9,8.9,5.9,14.8v25.9s-7.3,0-7.3,0Z"/>
            <path id="Fill-3" class="st0" d="M140.4,69.6V24.1h6.9v4.7c1.2-1.6,2.8-2.9,4.6-3.9,2.2-1.1,4.4-1.7,6.7-1.7s.4,0,.6,0h.6v7.2h-.6c-2.6.1-4.8.8-6.4,2.1-1.7,1.3-2.8,2.5-3.4,3.5-.9,1.6-1.4,3.8-1.4,6.5v27.1h-7.6Z"/>
            <g id="Group-7">
              <path id="Fill-5" class="st0" d="M232.9,30.3c-4.4,0-8.3,1.6-11.5,4.8-3.3,3.2-4.9,7.1-5,11.7,0,4.5,1.5,8.5,4.6,11.8,3.1,3.4,6.9,5.1,11.3,5.3h1c4.3,0,8.1-1.6,11.2-4.9,3.4-3.5,5-7.6,4.8-12.3-.1-4.5-1.7-8.4-4.8-11.6-3.1-3.2-6.9-4.8-11.3-4.8h-.3ZM233,70.9h-.8c-6.4-.2-11.9-2.6-16.3-7.2-4.4-4.6-6.7-10.2-6.7-16.5s2.4-12.4,7.2-17.1c4.6-4.5,10-6.8,16.3-6.8s.6,0,.8,0c6.2.2,11.5,2.5,15.8,6.8V8.8h7.3v38.3c.2,6.5-2.2,12.2-7.1,16.9-4.7,4.5-10.2,6.8-16.5,6.8h0Z"/>
            </g>
            <polygon id="Fill-8" class="st0" points="123.5 69.6 130.7 69.6 130.7 24.1 123.5 24.1 123.5 69.6"/>
            <path id="Fill-10" class="st0" d="M127.1,18.4c-2.4,0-4.3-1.9-4.3-4.3s1.9-4.3,4.3-4.3,4.3,1.9,4.3,4.3-1.9,4.3-4.3,4.3"/>
            <path id="Fill-11" class="st0" d="M50,70.7c-5.9,0-10.8-2-14.7-5.9-3.9-3.9-5.8-8.9-5.8-14.8v-25.9h7.3v26.6c0,3.5,1.3,6.6,4,9.1,2.6,2.5,5.7,3.8,9.2,3.8s6.6-1.3,9.2-3.8c2.6-2.5,4-5.6,4-9.1v-26.6h7.3v25.9c0,5.9-2,10.9-5.8,14.8-3.9,3.9-8.8,5.9-14.7,5.9"/>
            <path id="Fill-12" class="st0" d="M165.7,48.1c-.3-3.8.5-7.2,2.5-10.3,2.1-3.3,5.2-5.6,9.2-6.8,1.3-.4,2.5-.7,3.7-.8,2.6-.3,5.2,0,7.6,1.1,3.4,1.3,6.1,3.6,8.1,6.8l-31.1,10.1h0ZM197.4,55.1c-1.8,3.5-4.8,6-9.2,7.4-1.3.5-2.7.8-4,.9-2.8.3-5.5-.1-8.2-1.3-3.7-1.5-6.5-4.1-8.3-7.7l38.2-12.4-1.2-3.6c-1.8-5.3-5.5-9.6-11.1-12.5-4.5-2.4-9.2-3.3-13.9-2.8-1.2.1-2.5.3-3.7.7-6.6,1.8-11.6,5.8-14.8,12s-3.7,12.6-1.4,18.9c2.1,6.1,6.3,10.6,12.4,13.5,4.3,2.1,8.6,2.9,12.9,2.5,1.7-.2,3.5-.6,5.2-1.2,4.7-1.6,8.6-4.4,11.6-8.4,1.4-1.8,2.4-3.8,3.2-5.9h-7.7Z"/>
            <path id="Fill-13" class="st0" d="M264.1,63.8h1c.4,0,.7,0,.9.3.2.2.3.4.3.7s0,.6-.3.8c-.2.2-.6.3-1,.3h-.9v-2.1ZM265.9,66.6c.4,0,.7-.3,1-.6s.5-.8.5-1.2c0-.6-.2-1.1-.6-1.4-.4-.4-.9-.5-1.6-.5h-2v5.8h1v-2.8l2.1,2.7h1.2l-1.6-2.1h0Z"/>
            <path id="Fill-14" class="st0" d="M265,70.1c-2.4,0-4.4-1.9-4.4-4.3s2-4.3,4.4-4.3,4.4,1.9,4.4,4.3-2,4.3-4.4,4.3M265,60.4c-3,0-5.5,2.4-5.5,5.4s2.5,5.4,5.5,5.4,5.5-2.4,5.5-5.4-2.4-5.4-5.5-5.4"/>
          </g>
        </g>
      </g>
    </g>
  </g>
</svg>