<?xml version="1.0" encoding="UTF-8"?>
<svg id="Layer_1" xmlns="http://www.w3.org/2000/svg" version="1.1" viewBox="0 0 2456.9 1033">
  <!-- Generator: Adobe Illustrator 29.8.4, SVG Export Plug-In . SVG Version: 2.1.1 Build 6)  -->
  <defs>
    <style>
      .st0 {
        fill: #fff;
      }
    </style>
  </defs>
  <path class="st0" d="M1976.9,489.6l-.3-.2c-4.6-2.7-8.9-5.2-13.2-7.6-.6-.4-1.5-.4-2.2-.5-2.5-2-5-4.1-7.8-6.6-.7-.6-1-.8-1.3-1v-.2c-1.6-1.6-3.1-3-4.6-4.4v-.2c-1.3-1.3-2.5-2.4-3.6-3.5v-.2c-1.2-1-2.2-1.8-3.2-2.6-3-3.9-6-7.7-9.3-12.2-1-1.6-1.7-2.6-2.5-3.6v-.3c-.3-.4-.6-.6-.8-.8v-.3c-1.3-2.6-2.5-4.9-3.8-7.2v-.3c-1.3-3.1-2.5-5.8-3.8-8.6v-.3c-1-3.4-1.8-6.6-2.9-9.6-.6-1.5-1.7-2.8-2.6-4.2-1-7-2.6-14.1-2.8-21.1-.4-13.6-1.1-27.3,1.2-40.8.5-3,1.5-6,2.5-9.6.8-2.6,1.3-4.5,1.9-6.4h.2c.7-1.6,1.1-2.9,1.6-4.2v-.4c1.1-2.4,1.9-4.5,2.8-6.6v-.2c.4-1.3.7-2.4.9-3.5h.3c1-1.4,1.7-2.6,2.4-3.9,0,0,0-.2.3-.6,2-3.4,3.7-6.4,5.4-9.5h.2c.7-.7,1.1-1.3,1.6-1.8h.2c.8-1.1,1.5-2,2.1-2.8,0-.2,0-.3.5-.6,1.4-1.5,2.3-2.7,3.3-4h.2c1.2-1.4,2.1-2.6,3-3.7h.2c.7-.7,1.2-1.2,1.7-1.8h.2c.4-.4.5-.6.7-.9h.2c.4-.6.6-1,.8-1.3.2-.2.5-.4,1.1-.9.8-1,1.3-1.6,1.7-2.3h.3c1.7-1.4,3.1-2.6,4.5-3.9,0,0,.3-.3.8-.5,2.8-2,5.3-3.8,7.7-5.7,1.6-1.2,3.1-2.4,5.3-3.7,2.8-1.1,4.9-2,7.1-3h.3c1.3-.6,2.4-1.2,3.4-1.7h.4c1.2-.5,2-.8,2.9-1.1h.3c5.8-1.6,11.2-3.2,16.7-4.7h1.4c4.6-.5,8.7-1,12.7-1.4h10.3c1.2,0,1.7.2,2.2.2,1.4.2,2.9.3,5.1.6,3.6.6,6.4,1,9.2,1.5,3.2.7,6.3,1.4,10.1,2.4,2.1,1,3.7,1.7,5.2,2.3.4,0,.9,0,2.1.4,1.1.4,1.5.6,1.9.8l.2.3c2.4,1.3,4.7,2.4,6.9,3.5v.3c1.2,1,2.2,1.8,3.2,2.5l.2.2c.6.3,1,.5,1.4.8,2.6,2.1,5.1,4.2,8.1,6.7.6.5.8.7,1.1.8v.2c.8.4,1.3.6,1.8.8v.3c.7,1.5,1.2,2.9,3.7,2.7v-19.9h74.9c0,73.6,0,147.1-.4,221.1-22.5.5-44.6.5-66.6.5h-3.3c-3.1-.3-4.1-1.2-4.3-4.4-.2-3.6,0-7.1,0-10.7s0-4-.3-6c0-.2-1.1-.2-1.7-.4h-.2c-.4.4-.6.7-.7.9h-.2c-.4.3-.6.6-.8.8h-.2c-1.8,2-3.4,3.8-4.9,5.5h-.2c-.6.5-.8.7-1.1,1h-.3c-1,1-1.8,1.9-2.6,2.8h-.3c-1.3,1-2.4,1.9-3.5,2.8h-.3c-3.2,2.1-6.2,4.1-9.1,6.2,0,0-.4.2-.8.5-.6.4-.8.6-1,.7,0,0-.3,0-.7.2-.9.4-1.3.6-1.6.8h-.4c-2.2.6-3.9,1.3-5.7,1.9h-.3c-5.1,1.3-9.9,2.6-15.1,3.8-2.2.3-4,.6-5.8.9h-3c-2.7,0-4.7.3-6.7.5-2.3,0-4.5-.3-7.5-.6-4.7-.7-8.6-1.2-12.5-1.8h-2.8l-.2-.2c-6.3-2.2-12.4-4.2-18.5-6.2M2004.7,415.2c.3.2.5.4.7.6l.3.5c1.5,2.4,3.4,4.4,6.3,5.1l.2.5c2,1.1,3.9,2.1,5.8,3.2l.4.4c.4.2.7.4,1,.6l.4.3c.5.2,1.1.4,2.3.7,3.3.9,6.6,1.9,10.5,3.1.4,0,.8.2,1.7.3.5,0,1,0,2.4.2,5.1.4,10.1,0,15.2-2h.3s.3,0,.9-.2l1.8-.9c8.9-4.5,16.9-10.1,22.9-18.4,5.9-8.1,8.6-17.1,9.3-26.8.7-9.6-2.1-18.4-6.2-27.6-.6-1.2-1.3-2.3-1.9-3.5l-.3-.5c-.2-.3-.4-.6-1.1-1.1-.5-.6-.9-1.1-1.6-2.3-.9-1-1.8-2.1-2.6-3.1l-.4-.4c-1.4-1.3-2.9-2.5-4.2-3.8l-.3-.3c-.2-.2-.5-.4-.7-.6l-.3-.4c-.8-.5-1.7-1-2.5-1.5l-.2-.4c-.3-.2-.5-.4-.7-.5l-.5-.4c-1.6-.8-3.2-1.6-4.7-2.4l-.5-.3c-1.2-.5-2.5-1-4.3-1.7-1.5-.3-3.1-.5-5.4-.9-16.8-2.8-31.6,1-43.5,13.8-1,1.1-2.3,2.1-3.9,3.6-.3.3-.6.7-.9,1.2l-.6.5c-1.7,1.4-3.2,3-3.1,5.4l-.5.3c-.4.7-.9,1.4-1.4,2.8-3.4,8.5-5,17.3-4.3,26.5.8,11.1,5.2,20.7,12.9,29.5.3.3.5.6.7.9l.2.4.4-.4h0Z"/>
  <path class="st0" d="M240.6,267.5c3.3,0,6.7,1,10,1.1h67.6c22.5,0,3.4,0,5.1-.2,2.7-.3,4.3.9,4.7,3.7-1.8-2-4.1-2.3-6.5-2.3h-73.6c-2.3,0-3.9,1-4.6,3.2-.7-.2-1.4-.4-2.4-.5-.4-1.5-.4-3.1-.4-5.1h.1Z"/>
  <path class="st0" d="M2084.2,469.3c.3-.2,1.4,0,1.4,0,.2,2,.3,4,.3,6v10.7c0,3.2,1.1,4.1,4.3,4.4h69.9c.4.4.4.8.4,1.5-2.3,0-4.6-.2-6.9-.2h-61.5c-2.1,0-4.3-.2-7-.3-.3-7.5-.5-14.7-1-22.2h0Z"/>
  <path class="st0" d="M2160.6,268.7c-24.6.2-49.3.2-74.4.2,1.3,0,3-.3,4.8-.3h62c2.3,0,4.6-.4,7.3-.6.3,0,.3.5.3.7h0Z"/>
  <path class="st0" d="M957.6,919.6c-.3,0-.6,0-1.5-.3-9.8-2.5-19-4.9-28.3-7.2h-1.8c-.6,0-1,0-2.1-.2-2.8-2.2-5.3-2.7-8.2-2.6-15-5.4-29.9-10.8-44.9-16.2-2.9-1-5.8-2.2-9.1-3.6-1.1-.5-1.7-.6-2.3-.8v-.3c-2.7-1.3-5.1-2.4-7.5-3.4l-.2-.2c-2.1-1-4-1.8-5.9-2.6l-.3-.2c-4.6-2.2-9-4.3-13.3-6.4l-.2-.2c-1.4-.6-2.5-1.1-3.7-1.6-.9-.3-1.8-.7-3.2-1.5-2.8-1.7-5.1-3-7.4-4.3-10-5.6-20-11.3-30-16.9-2.2-1.2-4.3-2.5-6.8-4.2-1.7-1.4-3.1-2.2-4.4-3.1-7.2-4.7-14.4-9.3-21.5-14-3.1-2-6.1-4.3-9.5-6.9-4.5-3.8-8.6-7.1-12.7-10.4-.1,0-.3-.2-.7-.6-1.1-.8-2-1.3-2.8-1.9v-.2c-.4-.4-.6-.5-.9-.7v-.2c-.4-.4-.6-.5-.9-.7v-.3c-.8-.6-1.3-.9-1.8-1.2,0,0-.3-.2-.6-.6-1.8-1.5-3.4-2.6-5-3.7v-.2c-.4-.4-.6-.5-.9-.7v-.2c-.4-.4-.6-.6-.9-.8v-.2c-1.1-.7-1.9-1.2-2.8-1.7v-.3c-.4-.5-.7-.8-.9-1.1-.5-.2-.9-.4-1.7-.9-.9-1-1.5-1.7-2-2.3v-.3c-.8-.6-1.3-.9-1.8-1.2,0,0-.3-.2-.5-.6-4.3-3.8-8.4-7.3-12.4-10.7-7.7-7.3-15.3-14.6-23.3-22.5-.6-.9-.8-1.3-1.1-1.7v-.2c-.7-.5-1-.8-1.4-1.2v-.2c-.9-1-1.6-1.8-2.3-2.5v-.2c-.8-.7-1.3-1.2-1.9-1.7v-.2c-1.1-1-2-1.8-2.8-2.6v-.2c-.3-.4-.6-.6-.9-.7v-.2c-.3-.4-.6-.6-.9-.7v-.2c-.6-.4-1-.6-1.3-.7v-.3c-.5-.7-1-1.1-1.4-1.6v-.3c-.4-.6-.6-.9-.9-1.1v-.3c-1-1.2-1.9-2.1-2.7-3v-.2c-.7-.7-1.2-1.2-1.8-1.7v-.3c-.4-.6-.6-.9-.9-1.2-.9-.9-1.8-1.8-2.9-3.2-1.5-1.9-2.8-3.3-4.1-4.8,0,0-.3-.3-.4-.7-1-1.3-1.9-2.2-2.8-3.1v-.3c-2.9-3.7-5.7-7-8.5-10.4,0,0-.3-.2-.5-.6-.9-1.3-1.6-2.2-2.3-3.1v-.3c-.6-.6-1-.9-1.3-1.2v-.3c-2.8-3.6-5.4-6.8-8-10v-.3c-.7-1.2-1.3-2.1-1.9-3-3.2-4.4-6.4-8.9-9.9-13.9-1.2-2.1-2.2-3.7-3.2-5.3v-.3c-.7-1.2-1.3-2.1-1.9-3-3.6-4.4-6.9-9-9.3-14.9-.7-1.2-1.3-1.8-1.8-2.4v-.2c-.5-.9-.9-1.5-1.3-2.2-.1-.2-.3-.4-.5-1.1-1.4-2.3-2.6-4.1-3.8-5.8v-.3c-.4-.9-.7-1.5-1-2v-.2c-.3-.4-.6-.7-.8-.9-3.9-6.8-7.7-13.6-11.6-20.4-1.1-2-2.2-4-3.4-6.7-1.6-3.8-3.2-7-4.7-10.1-2.2-4.4-4.6-8.7-6.7-13.2-1.4-2.9-1.1-3.7,1.5-5.4,5.1-3.2,10.3-6.2,15.4-9.3,4.4-2.6,8.8-5.2,13.8-7.9,1.3-.5,2-.9,2.6-1.2h.4c.9.3,1.4.5,1.9.6,4.9,7.3,9.7,14.6,14.8,22.4,1.5,2.4,2.8,4.1,4,5.9v.2c.6.4,1,.6,1.3.8,4.2,5.8,8.4,11.6,12.6,17.3,3.3,4.5,6.7,8.9,10.4,13.9.8.9,1.3,1.2,1.8,1.5v.3c.7,1.1,1.3,1.8,2,2.5v.2c.4.7.7,1.1,1,1.6v.3c.8.7,1.5,1.2,2.1,1.7,5.3,6.2,10.6,12.5,16.2,19.2.9,1.1,1.5,1.6,2.1,2.2v.3c.6.7,1.2,1.2,1.8,1.7v.3c1.3,1.5,2.5,2.7,3.7,3.9v.3c.8.9,1.5,1.5,2.2,2.1,10.8,11.1,21.6,22.2,32.4,33.2,2.8,2.9,5.7,5.6,9,8.8.7.5.9.7,1.2.9v.2c.7.7,1.2,1.2,1.8,1.6l.2.2c1.5,1,2.7,1.8,3.9,2.7,3.8,3.5,7.6,7,11.8,11,2,1.6,3.5,2.8,5.1,3.9v.3c.6.5.9.8,1.3,1.1.3.2.7.3,1.4.7,5.7,4.7,11.1,9,16.4,13.4v.3c.9.9,1.7,1.4,2.4,2l.2.2c.6.4.9.6,1.2.7v.2c.8.5,1.3.8,1.8,1.2,2.2,1.5,4.4,3,6.5,4.5,9.3,6.7,18.6,13.4,27.9,20,17.6,12.5,36.3,23.1,55.6,34,1.4.9,2.4,1.3,3.4,1.8h0c.4.5.6.6.9.8l.2.2c2.9,1.3,5.5,2.5,8.2,3.6v.2c.8.4,1.3.6,1.9.7v.2c1.4.7,2.6,1.2,3.7,1.7v.2c3,1.4,5.7,2.6,8.4,3.8l.5.4c1.8.9,3.2,1.5,4.7,2.1l.2.2c2.4,1,4.6,1.8,6.8,2.6v.2c1.3.9,2.4,1.5,3.6,2.1,2.6.9,5.3,1.7,8.4,2.9,4.3,1.9,8.2,3.5,12.3,5.3,1,.3,1.9.5,2.7.6v.3c.8.7,1.5,1.1,2.1,1.5.5,0,1.1,0,2.3.4,2.1.7,3.6,1.2,5.1,1.6l.4.2c.9.4,1.5.5,2.2.7l.2.2c5.2,1.6,10.2,3.1,15.2,4.5.3,0,.6,0,1.6.6,2.1.7,3.5,1,5,1.4l.3.2c.6.3,1.1.4,1.5.5,4.7,1.4,9.4,3,14.2,4.3,4.5,1.2,9,2.2,13.5,3.2,3.3.7,6.6,1.3,10.7,2,10.7,2.5,20.8,4.2,31,4.8,1.6.2,3.2.5,5.6.8,2.4.3,4.1.5,5.7.7.3,0,.5,0,1.3.2,2.3.3,4.1.5,5.8.7.7,0,1.4,0,2.7.2h4.6c1.3,0,1.2,0,2.5.2,3.6.3,6.5.4,9.3.5.5,0,1,0,2,.2h5c.8,0,1.5,0,3.1.2h17.8c2.8,0,4.8-.2,6.8-.3h4.5c4.6-.3,8.3-.5,12.1-.8h3c6.1-.8,11.4-1.6,16.7-2.4.5,0,1,0,2.2-.2,16.7-1.1,32.3-4.7,47.8-8.5.3-.2.7-.3,1.8-.6,3.4-.8,6.1-1.4,8.7-2,.8-.2,1.6-.4,3.1-.9,8-2.4,15.4-4.5,22.8-6.7h0c.3,0,.5-.2.6-.3.3,0,.5-.3,1.6-.5,2.7-.7,4.6-1.3,6.6-1.9.5-.2,1.1-.5,2.2-.9,1.2-.5,1.9-.7,2.5-1h.3c2.6-1,4.8-1.9,7-2.8h.4c1.7-.6,3.1-1.2,4.4-1.8h.3c.7-.3,1.1-.6,1.6-.8h.4c.9-.4,1.4-.7,2-1h.3c6.3-2,12.3-3.8,17.4-7.5h.3c1.7-.6,3-1.3,4.4-2h.2c.7-.4,1.2-.6,1.7-.9h.2c.7-.4,1.2-.7,1.6-1h.3c.9-.3,1.4-.6,2-.9.2-.2.5-.5,1.2-.8,1.2-.4,1.9-.8,2.5-1.1h.3c1.1-.6,1.8-1.2,2.5-1.8,17.6-7.5,33.9-17.5,50.4-27.2,9.1-5.3,17.8-11.3,26.7-17,1.7-1.1,3.5-2.1,5.7-3.3.9-.6,1.4-.9,1.8-1.2h.2c.4-.4.6-.6.8-.9h.3c1-.7,1.8-1.3,2.5-1.9h.3c.7-.4,1.1-.7,1.6-1h.2c.7-.9,1.2-1.6,1.7-2.2,1.3-1,2.6-2,4.4-3.2.7-.3.9-.5,1.2-.6h.3c.6-.6.9-1,1.2-1.3,3.9-3,7.8-5.9,12.3-9.2,1.4-.9,2.2-1.5,3.1-2.1h.2c.4-.4.6-.6.8-.9h.2c1-.7,1.8-1.3,2.5-1.9h.2c.4-.4.6-.6.8-.9h.2c.4-.4.6-.6.7-.9h.3c.6-.4.9-.6,1.2-.9,0,0,.2-.3.6-.5,1.2-.9,1.9-1.6,2.7-2.3h.2c.4-.4.6-.6.7-.9h.3c.7-.7,1.2-1.2,1.6-1.8h.3c.9-.7,1.5-1.2,2.1-1.8h.2c.5-.3.8-.6,1.1-.9h.3c2-1.7,3.7-3.2,5.4-4.7h.3c.5-.4.8-.6,1.1-.9h.2c.6-.4.9-.6,1.4-.9.4-.3.6-.6.7-.9h.2c.6-.3,1-.6,1.3-.9.9-.9,1.9-1.8,3.3-2.9,1.9-1.7,3.2-3.1,4.5-4.6h.2c1.1-.9,2-1.8,2.9-2.6l.4-.3c.6-.6.9-.9,1.2-1.3h.3c1.2-1.2,2.1-2.2,2.9-3.2h.3c.9-.7,1.5-1.3,2.1-1.8h.3c1.7-1.6,3.1-3.1,4.4-4.5h.3c.7-.5,1.2-.9,1.6-1.4,7.2-7.2,14.5-14.5,22.3-22,1.4-1.1,2.2-2,3-2.8h.2c.4-.3.6-.6.7-.9h.3c.7-.7,1.1-1.3,1.6-1.9h.2c1.3-1.6,2.4-3.1,3.5-4.5h.3c1.8-1.6,3.3-3.1,4.8-4.7h.2c.5-.4.7-.6,1.2-1.1,1.1-1.5,1.9-2.7,2.8-4,1.6-1.9,3.2-3.7,5.3-5.9,1.1-.9,1.6-1.5,2.2-2.1h.2c.3-.3.5-.6.6-.9h.3c.4-.4.5-.7.7-.9h.2c.5-.4.7-.6.7-.9l.2-.2c.4-.5.6-.9.8-1.2,3.8-4.8,7.6-9.6,11.5-14.3,1.7-2.1,3.7-4.1,6-6.6,1.4-1.7,2.2-3,3.1-4.4h.3c1.9-2.8,3.7-5.4,5.4-7.9h.3c.7-.7,1-1.3,1.4-1.9l.3-.2c.8-.8,1.2-1.5,1.7-2.2h.2c.4-.7.5-1,.7-1.4h.2c.7-1,1.2-1.9,1.6-2.7h.3c.6-.7.9-1.2,1.2-1.7h.2c.6-.8.8-1.3,1.1-1.9h.2c.4-.4.5-.6.7-.9h.2c.4-.6.6-1,.7-1.4,5.8-8.3,11.6-16.7,17.8-25.5,1.1-1.3,1.9-2.2,2.6-3.1l.2-.2c.4-.5.6-.8.8-1.1l.2-.2c.4-.6.5-.9.7-1.2h.3c1.1-.4,1.8-.6,2.6-.8l.2.2c.8.4,1.5.6,2.1.8.9.8,1.9,1.7,3.4,2.8,1.1.5,1.7.7,2.3.9l.2.2c.8.4,1.5.6,2.1.8l.2.2c.5.4.9.6,1.3.7,0,0,.3.3.6.6.9.6,1.6,1,2.2,1.3,1.2.7,2.5,1.4,4.1,2.4,1.3,1,2.1,1.5,3,2.1v.2c.8.3,1.3.6,1.8.8v.2c1.4.7,2.5,1.2,3.7,1.7v.3c1.6,1,2.9,1.8,4.2,2.5v.3c1.6,1.9.8,3.6.4,5.3,0,0,0,.3-.3.7-.4.8-.6,1.3-.7,1.7-2.8,5.4-5.5,10.7-8.3,16.1-.8,1.6-1.6,3.3-2.8,5.4-.6,1.1-.8,1.8-1,2.4h-.2c-.4.7-.5,1.2-.7,1.8h-.3c-1.3,2.4-2.4,4.5-3.4,6.6l-.2.2c-.7,1.5-1.2,2.7-1.7,4l-.2.2c-.4.5-.5.9-.7,1.3h-.2c-.3.4-.5.6-.6.9l-.3.2c-.4.8-.6,1.5-.8,2.1h-.3c-.7.8-1.1,1.4-1.5,1.9-1,2.2-2,4.3-3.4,6.9-1.3,2.2-2.3,3.9-3.2,5.7h-.2c-.4.8-.5,1.3-.7,1.9h-.2c-.4.6-.5,1-.7,1.4h-.2c-.4.7-.5,1-.7,1.4l-.2.2c-.4.8-.6,1.5-.8,2.1h-.3c-1,1.6-1.7,3-2.3,4.3-3.5,5.3-6.9,10.6-10.4,15.8-4.4,6.4-8.8,12.7-13.8,19.4-1.6,1.8-2.8,3.1-3.9,4.5-5.1,7-10.2,13.9-15.2,20.9-.5.6-.9,1.2-1.8,2.2-1.7,2.1-3,3.7-4.4,5.4h-.2c-.4.4-.6.6-.7.9h-.2c-.4.4-.6.6-.7.9h-.3c-.7,1.1-1.2,1.9-1.7,2.8h-.2c-.4.4-.5.6-.7.9h-.3c-1.3,1.3-2.4,2.5-3.5,3.7h-.2c-.3.4-.5.6-.7.9h-.2c-.7,1-1.2,1.8-1.7,2.6h-.2c-1.1,1.2-1.8,2.2-2.6,3.2-3.3,3.5-6.5,7-9.9,10.4-4.6,4.7-9.4,9.4-14.1,14-1.5,1.5-3.1,2.9-5.2,4.7-1.5,1.3-2.5,2.3-3.5,3.3h-.2c-.4.4-.6.6-.7.9h-.2c-.4.4-.6.6-.7.9h-.2c-.4.4-.6.6-.8.9h-.2c-.5.4-.8.7-1.1,1,0,0-.2.3-.6.5-1.2,1-1.9,1.9-2.7,2.7h-.3c-1.4,1.4-2.4,2.7-3.5,4h-.3c-1.4.9-2.4,1.9-3.4,2.9h-.3c-1,.7-1.8,1.3-2.5,1.9h-.2c-.4.4-.6.6-.8.9h-.3c-.6.4-.9.6-1.2.9-3.1,2.8-6.2,5.6-9.9,8.7-1.6,1.3-2.7,2.3-3.7,3.3h-.3c-.8.5-1.2.9-1.6,1.4-5.3,4-10.6,8.1-16.5,12.4-3.6,2.6-6.6,4.9-9.7,7.3,0,0-.3.3-.7.4-.6.4-.9.7-1.2,1h-.3c-1.3.6-2.4,1.3-3.4,2h-.2c-.4.3-.6.6-.8.8h-.2c-.6.4-.9.6-1.2.9h-.3c-1.8,1.3-3.3,2.5-4.8,3.7h-.3c-1.3,1-2.4,1.9-3.5,2.7h-.3c-.7.3-1.2.6-1.6.9h-.3c-1.7,1-3,1.9-4.4,2.8h-.3c-2.7,1.6-5.1,3.1-7.5,4.6-8.5,5.1-17,10.3-25.5,15.4-.9.5-1.9.9-3.5,1.5-.9.4-1.2.6-1.5.9h-.3c-.8.3-1.3.6-1.9.9-5.4,2.9-10.8,5.7-16.7,8.9-1.2.7-1.9,1.1-2.6,1.5h-.3c-.4.3-.6.5-.7.8h-.4c-1.1.3-1.8.7-2.5,1h-.3c-.9.3-1.5.6-2.1.9h-.3c-.9.4-1.5.6-2.1.9h-.3c-1.4.7-2.4,1.3-3.5,1.8h-.3c-1,.3-1.8.7-2.5,1h-.2c-1.4.7-2.4,1.2-3.5,1.8h-.2c-.6.3-.9.5-1.2.7h-.4c-1.4.4-2.3.8-3.3,1.1h-.3c-1.5.7-2.7,1.3-3.9,1.8h-.3c-3.4,1.3-6.5,2.6-9.6,3.8-3.7,1.5-7.4,3.1-11.2,4.5-3.1,1.1-6.2,2.1-9.9,3.3-4.3,1.6-8,2.9-11.6,4.2h-.3c-1.6.6-3,1.1-4.3,1.7-5.2,1.5-10.4,3-15.6,4.5-21.7,6.4-44.2,9.3-66.2,14.2-.7.2-1.5,0-3,0-4.3.4-7.9.9-11.5,1.3-4.6.6-9.2,1.4-13.8,1.8-8.2.7-16.4,1.2-24.6,1.6-5.4.3-10.9.2-17.1.2-1.4.2-2,.4-2.6.7-.6,0-1.2,0-2.4-.2-4.4,0-8.2,0-12,.2-1.2,0-2.4,0-4.4-.3-4.2-.2-7.6-.3-11-.4h-3.3c-5.6-.3-10.5-.6-15.4-.8-1,0-2.1,0-3.8-.2-3.6-.3-6.4-.5-9.3-.8h-4.3c-.5,0-1.2,0-2.4-.3-3.1-.3-5.6-.5-8.1-.7-.2,0-.5,0-1.2-.2-1.2-.3-1.9-.4-2.7-.4h-1.1c-5.5-1-10.6-1.7-15.6-2.5-8.8-1.5-17.6-3.1-26.4-4.7-.3,0-.5,0-1.3-.2-2.2-.4-3.9-.7-5.6-1v.2-.2Z"/>
  <path class="st0" d="M1266.2,265.5h5.2c5.2.4,9.6.7,14,1,7,1,13.9,2.4,20.8,5.8,3.3,2,6.1,3.5,9,5v.3c1.7,1.4,3.2,2.5,4.7,3.6l.2.3c1.4,1.3,2.6,2.2,3.9,3.2v.3c.4.5.6.8.9,1.1,5.4,4.2,9.6,9.4,13.1,15.9,1.1,1.7,1.9,2.9,3.4,4.9,1-2.2,1.6-3.5,2.2-4.8l.3-.2c1.6-2.1,2.9-4.1,4.3-6h.2c.4-.8.6-1.3.8-1.8h.2c.7-.7,1.1-1.3,1.6-1.9h.2c.4-.6.6-1,.8-1.3,2.8-2.8,5.6-5.7,9-8.8,1.8-1.3,3-2.3,4.2-3.3,1.9-1.1,3.7-2.1,6.2-3.3,2.9-1.4,5.1-2.6,7.4-3.9.2-.2.4-.4,1.4-.8,4.9-1.5,9.1-2.7,13.3-4,.3,0,.6,0,1.5-.2,2.3-.5,4.1-.9,5.8-1.4h1.6c2.9,0,5.3-.2,7.6-.3h12.8c2.4.3,3.9.5,5.5.7.3,0,.6,0,1.4.2,1.8.4,3,.7,4.3.9.3,0,.5,0,1.3.3,1.1.3,1.7.5,2.3.6,0,0,.3,0,.8.3,2.2.7,4,1.2,5.7,1.7l.4.2c.8.4,1.2.5,1.6.7l.2.2c1.3.6,2.4,1,3.4,1.4l.4.2c.9.5,1.4.7,2,.9l.2.2c1.5,1,2.8,1.8,4.1,2.6l.2.2c.7.4,1.2.6,1.6.8,5.5,3.4,9.6,8,13.1,14.1,1,1.3,1.6,2,2.3,2.8v.3c1.3,2.9,2.5,5.5,3.7,8.2,0,0,.2.4.3.9,1.6,5.3,3,10,4.5,15.1.3,1.5.7,2.6,1,3.7v.6c.8,7.4,1.6,14.4,2.4,21.4v93.7c0,17.1,0,34.2-.2,51.8-.2.5-.6.6-1,.6h-74.2c0-2.3-.2-4.7-.2-7,0-31.9.3-63.8-.2-95.8-.2-12.1,0-24.3-2.7-36.2-1.8-8.2-5.9-14.9-13.2-20.2-1.3-2.1-2.7-2.6-4.5-2.6v-.2c-.9-.4-1.4-.5-2-.7,0,0-.3,0-.8-.2-7.7-2.1-14.9-1.6-21.9.9-2.2.8-4,2.7-6,4.1h-.3c-1,.7-1.7,1.3-2.5,1.8l-.3.2c-.4.5-.6.8-.8,1.2h-.3c-1,1.2-1.7,2.3-2.6,3.6-1.6,2.6-3,4.9-4.4,7.3,0,0,0,.3-.2.7-.4,1.4-.7,2.3-.9,3.2l-.2.2c-1.2,6.9-2.3,13.6-3.3,20.2,0,3,0,5.9-.3,9.7-.4,3.6-.8,6.3-.8,9.1v93.3c0,6.3-.8,7-6.9,7.1h-62c-1.9,0-3.7-.2-5.6-.3v-102.7c0-9.6-.6-19.2-1.2-28.8-.2-3.5-1.1-7-1.7-11.2-1.3-3.1-2.5-5.6-3.7-8v-.3c-1-1.2-1.8-2.1-2.7-3v-.2c-2.1-3.7-5.5-5.5-8.9-7.1-2.7-.8-5.3-1.7-8-2.4-3.5-.8-6.9-1.3-10.6-.5-14,3.1-23.2,10.8-26.4,23.9-1.7,7.2-2.2,14.7-3.3,22.9-.3,4-.6,7.3-.6,10.5v83.3c0,7.9,0,15.8-.6,23.8h-35.9c-12.8,0-25.5,0-38.3-.2v-215.5c0-1.6,0-3.1.6-5.2,2.6-.7,4.8-.9,7-1h62.1c4.2.3,5.2,1.3,5.2,5.5v14.9c0,1.6,0,3.1.3,4.7,0,0,1.1,0,1.6.2,4-4.4,7.9-8.7,13.7-11.9,2.5-1.7,4.4-3.2,6.4-4.7h.3c2.4-1.3,4.6-2.5,6.7-3.7h.2c.7-.3,1.2-.6,1.6-.9h.3c2.4-.9,4.5-1.8,6.6-2.7h.5c2.7-.8,5-1.4,7.4-2,1.9-.5,3.8-1.1,6.2-1.7,1,0,1.5-.2,2-.3h2.9c3.8,0,6.8-.3,9.8-.5l-.3.6h-.2Z"/>
  <path class="st0" d="M842.6,448.9v-.3c-.3-.9-.7-1.4-1-2v-.3c-.4-.7-.6-1.2-.9-1.6v-.3c-1.3-2.6-2.6-5-3.9-7.6-1.8-4.7-3.5-9.1-5.3-13.6-.9-2.3-1.9-4.5-2.8-6.8-1.1-4-2.5-8-3.1-12.1-.7-5.5-.6-11.1-.9-17.4v-14.6c-.6-9.4,1.1-18.6,3.1-27.7,1.2-5.7,3.8-11.1,5.9-16.6,1.2-3.2,2.7-6.2,4.5-9.8,1.4-2.3,2.5-4.1,3.6-5.9,3.8-6.1,7.7-12,13.9-16.9,1.2-1.3,1.8-2.2,2.5-3.2,3.3-5.5,8.7-8.9,13.6-12.6,14.1-10.7,30.4-16.4,47.8-17.9,11.8-1,24-1.6,35.6,2.3,6,2,11.9,4.4,18.3,7,2.6,1.4,4.6,2.4,6.7,3.4v.2c.4.5.6.6.9.8l.2.2c.7.3,1.2.6,1.7.8v.3c3.9,3.5,7.6,6.7,11.4,9.9.7.6,1.7.7,2.5,1.1v.3c.3.6.5.9.8,1.2.2-.5.5-1,.8-1.9,0-3.4.2-6.3.2-9.3,0-8.1.4-8.5,8.3-8.5h60.6c2,0,4,.2,6,.8v211.7c0,2.8,0,5.6-.5,8.4h-68.3c-4.9,0-5.7-.9-5.9-5.7v-12.1c0-4-.3-2.9-.6-5.2-1.3,1.2-2,1.8-2.6,2.4,0,.2-.2.3-.6.6-.8.9-1.3,1.6-1.7,2.2h-.2c-.4.5-.6.8-.8,1.1-1.9,2.1-3.7,4.2-5.6,6.1-.8.9-2,1.4-3.6,2.4-2.3,1.3-4,2.4-5.7,3.5-.4.2-.7.4-1.5.9-1.1.8-1.7,1.3-2.3,1.9h-.3c-3.8,1.6-7.3,3.1-11.2,4.7-5.9,1.5-11.4,3-16.9,4.5h-1.2c-1,0-1.6,0-2.2.2h-14.3c-1.3,0-2.6,0-4.4-.2h-2.9c-.8,0-.6,0-1.4-.2-.9-.3-1.3-.5-1.7-.6h-1.1c-6.4-1.6-12.3-3-18.2-4.5-10.8-2.5-20-7.8-28.5-15.3-.3-.2-.2-.3-.2-.3,0,0-.3-.2-.6-.5-.6-.5-1-.7-1.4-1v-.3c-1-.7-1.8-1.2-2.7-1.6v-.3c-.5-.7-1-1.1-1.4-1.6v-.2c-.9-.7-1.6-1.2-2.3-1.7v-.2c-.7-.7-1.2-1.2-1.8-1.6v-.3c-.8-.7-1.4-1.2-2.1-1.7l-.6-.6c-.5-.6-.7-.9-1-1.1v-.2c-.4-.6-.6-1.1-.9-1.5-.9-.9-1.8-1.9-2.9-3.4-1.6-1.8-3-3.1-4.3-4.3-.3-.6-.6-1.2-1.1-2.3-1.1-1.6-2-2.7-2.8-3.7M945,329.6c-.2,0-.4,0-1.3.3-1.5.5-2.9,1-4.4,1.4-15,3.9-24.9,13.6-31.1,27.3-8.9,19.7-5.5,44.5,13.4,60.2,10.6,8.8,22.8,13.3,36.8,11,15.9-2.6,27.5-11.4,35.6-25.2,2.5-4.2,3.7-8.9,4.6-13.6.8-4.2,1.9-8.6,1.6-12.8-.8-11.4-4.1-22-11.6-30.9-4.7-5.6-10-10.7-17-13.5-3.9-1.6-8-2.6-12.7-4.1-4-1-8-1.3-12.5,0h-1.4,0Z"/>
  <path class="st0" d="M1805.7,490.3v-111.4c0-2.3,0-4-.3-5.6v-7.7c-.3-3-.6-5.1-.8-7.3v-1.5c-.9-4-1.8-7.4-2.7-10.8v-.3c-.7-3.6-2.1-6.4-4.7-8.6v-.2c-2.3-1.9-4.4-3.6-6.5-5.3l-.2-.2c-7.8-5.3-16.1-5.8-24.8-4.3h-2.6c-3.2.8-5.8,1.7-8.3,2.5h-.4c-1,.3-1.8.6-2.5.9-1.9,1.3-3.7,2.5-6.1,4.1-1.3,1.3-2.1,2.4-2.8,3.4h-.2c-1,1-1.8,1.9-2.5,2.8h-.2c-.7,1.1-1.1,2.1-1.6,3,0,.2-.3.3-.8.9-.6,1.4-.9,2.5-1.2,3.5h-.3c-2.4,3.3-3.4,6.6-3.5,10.3,0,.4,0,.8-.3,1.8-.2,1.4-.3,2.3-.4,3.1,0,2.3,0,4.6-.2,7.3q0,.5-.3.8c-.3,2.3-.7,4.3-.7,6.3v112.4h-74v-213.5c0-2.2,0-4.4-.2-6.7,0-.2,0-.5.6-.5h73.5v17c0,2.3.5,4.6.9,7,1.8,2.1,2,0,2.8-.8h.2c.4-.4.6-.6.8-.9h.2c.7-1.1,1.2-1.9,1.7-2.8h.2c.7-.7,1.1-1.3,1.6-1.8h.2c.4-.4.6-.6.8-.9h.3c3.9-3.1,7.4-6.2,11-9.5v-.8h.2c.9-.2,1.6-.6,2.3-1,6-4.6,13-7,20.6-9.2,1.2-.2,1.9-.3,2.5-.4h.6c1.6-.3,2.9-.6,4.1-.9h.7c4.3-.2,8.1-.5,11.9-.8h11.5c3.8.3,6.8.6,9.7.8h1.4c5.5,1.4,10.5,2.6,15.5,3.8.2,0,.4,0,1,.3,1.8,1,3.2,1.7,4.6,2.4.4,0,.9,0,1.9.4,1.6.7,2.7,1.1,3.8,1.6l.2.2c.7.4,1.2.6,1.6.7v.3c1.6,1,2.9,1.8,4.2,2.5v.3c1.2,1,2.2,1.8,3.2,2.5v.3c3.5,3.3,6.6,6.3,9.8,9.3,11.8,10.8,16.5,24.9,17.8,40.3.7,7.9.9,15.8.9,23.8v128.5c0,2.3,0,4.7-.5,7.5-19.6.5-38.7.6-57.8.6s-11.5,0-17.2-.2v.6h-.2Z"/>
  <path class="st0" d="M243.4,273.2c.8-2.2,2.4-3.2,4.6-3.2h73.6c2.4,0,4.7.3,6.5,2.6.3.4.4.6.7,1.1.4.6.5.8.6,1v.2c.4.9.6,1.5.9,2.1v.3c.7,1.5,1.3,2.7,1.9,3.9v.2c.3.6.6.9.8,1.2v.3c.3.9.6,1.5.8,2.1,0,0,0,.3.2.8.7,1.3,1.2,2.1,1.7,2.9v.3c.3.9.6,1.5.9,2v.4c1,2.3,1.9,4.3,2.9,6.2v.3c.4.7.6,1.1.8,1.6v.3c.3,1,.6,1.6,1,2.5.5.6.9,1,1.3,1.4,5.1,11.5,10.2,23,15.3,34.5,4.3,9.7,8.6,19.3,12.9,28.9.6,1.3.9,2.6,1.5,4.6.6,1.4,1.1,2.2,1.6,3v.2c.4,1,.7,1.8,1,2.5v.2c.6,1.5,1.2,2.8,1.8,4h1.1l1.9-4.8c0-.3,0-.6.2-1.3.7-1.3,1.2-2.1,1.6-2.9h.1c1-2,1.8-3.7,2.6-5.5l.2-.2c1-2.4,1.8-4.5,2.7-6.6,1.4-3.1,2.8-6.3,4.5-9.9,1.8-3.7,3.3-6.8,4.8-9.9l.2-.2c.3-.9.6-1.5.8-2.1h.1c.3-.7.4-1.2.8-1.9,1.1-2.3,1.9-4.4,2.8-6.5l.2-.2c1.5-3.5,2.8-6.7,4.1-10,0,0,.2-.3.5-.6.5-.7.6-1,.8-1.4l.2-.2c.4-.9.6-1.5.8-2.1l.2-.4c1-2.1,1.8-3.9,2.6-5.7l.2-.2c1.6-3.4,3-6.5,4.5-9.6l.2-.2c.3-.9.6-1.5.8-2.1h.1c.3-.7.4-1.2.8-1.9,1.1-2.3,1.9-4.4,2.8-6.5l.2-.2c1.1-2.3,2-4.4,3-6.7.6-1.4,1-2.6,1.5-3.7l.3-.4c.7-1.3,1.1-2.4,1.6-3.4l.3-.4c2.1-3,4.7-3.9,7.9-3.9h72.2c1.9,0,3.7,1.2,5.6,1.8l-.2.2c-.7,1-1.1,1.8-1.6,2.6l-.2.3c-.4.9-.6,1.4-.8,2l-.2.3c-.4.8-.6,1.4-.8,2l-.3.2c-.7,1-1.1,1.8-1.6,2.6l-.2.3c-.4.9-.6,1.4-.8,2l-.2.3c-.4.8-.6,1.4-.8,2l-.3.2c-.7,1-1.1,1.8-1.6,2.6l-.2.3c-.4.9-.6,1.4-.8,2l-.2.3c-.4.8-.6,1.4-.8,2l-.2.2c-.7,1-1.2,1.9-1.6,2.7l-.2.2c-.4.9-.6,1.5-.8,2.1l-.2.2c-.4.9-.6,1.5-.8,2.1h-.2c-.7,1.1-1.1,2-1.6,2.8l-.2.2c-.4.9-.6,1.5-.8,2.1l-.2.2c-.4.9-.6,1.5-.8,2.1h-.2c-.7,1.1-1.1,2-1.6,2.8l-.2.2c-.4.9-.6,1.5-.8,2.1l-.2.2c-.4.9-.6,1.5-.8,2.1h-.2c-.7,1.1-1.1,2-1.6,2.8l-.2.2c-.4.9-.6,1.5-.8,2.1l-.2.2c-.4.9-.6,1.5-.8,2.1h-.2c-.8,1.4-1.5,2.6-2.1,3.7-.1.3-.2.7-.6,1.4-.4.7-.6,1.1-1,1.7-.4,1-.6,1.8-.8,2.6-.3.4-.6.8-1.2,1.7-1.1,2.2-1.8,4-2.5,5.7-.3.4-.6.8-1.2,1.7-1.1,2.2-1.8,4-2.5,5.7-.3.4-.6.8-1.2,1.7-1.1,2.2-1.8,4-2.5,5.7-.3.4-.6.8-1.2,1.7-1.1,2.2-1.8,4-2.5,5.7-.3.4-.6.8-1.2,1.7-1.1,2.2-1.8,4-2.5,5.7-.3.4-.6.8-1.2,1.7-1.1,2.2-1.8,4-2.5,5.7-.3.4-.6.8-1.2,1.7-1.1,2.2-1.8,4-2.5,5.7-.3.4-.6.8-1.2,1.7-1.1,2.2-1.8,4-2.5,5.7-.3.4-.6.8-1.2,1.7-1.1,2.2-1.8,4-2.5,5.7-.3.4-.6.8-1.2,1.7-1.1,2.2-1.8,4-2.5,5.7-.3.4-.6.8-1.2,1.7-1.1,2.2-1.8,4-2.5,5.7-.3.4-.6.8-1.2,1.7-1.1,2-1.9,3.5-2.8,5.2-1,2.3-1.8,4.3-2.6,6.4,0,0-.2.3-.7.7-1.3,2.5-2.2,4.6-3.1,6.8,0,0-.2.3-.7.7-1.3,2.5-2.2,4.6-3.1,6.8,0,0-.2.3-.7.7-1.3,2.5-2.2,4.6-3.1,6.8,0,0-.2.3-.7.7-1.3,2.5-2.2,4.6-3.1,6.8,0,0-.2.3-.7.7-1.3,2.5-2.2,4.6-3.1,6.8,0,0-.2.3-.7.7-1.3,2.5-2.2,4.6-3.1,6.8,0,0-.2.3-.7.7-1.3,2.5-2.2,4.6-3.1,6.8,0,0-.2.3-.7.7-1.3,2.2-2.2,4.1-3.1,6h-.2c-.6.9-1,1.6-1.9,2.2h-50.8v-.3c-.8-1.6-1.6-2.9-2.4-4.2l-.2-.4c-1.5-3.3-3-6.2-4.4-9.2v-.3c-4.5-9.5-9-18.7-13.5-27.9-.3-.5-.9-.9-1.3-1.3v-.3c-.7-1.5-1.3-2.6-2-3.8v-.3c-.6-1.2-1.2-2.1-1.7-3v-.3c-.4-1.2-.7-2-1-2.9v-.2c-.4-.4-.6-.6-.9-.8v-.2c-.3-.6-.6-.8-.8-1.1v-.3c-.3-1.2-.7-2.1-1-2.9h0c-.4-.5-.6-.7-.8-.9v-.2c-.3-.7-.6-1.2-.9-1.6v-.2c-.4-1.1-.8-1.9-1.3-2.8,0-.2-.2-.3-.5-1-.5-1.2-.8-1.9-1.2-2.5v-.3c-1-1.8-1.9-3.4-2.7-4.9,0-.2,0-.4-.2-1-.9-2-1.8-3.5-2.7-5-.2-.3-.3-.5-.7-1.3-.8-1.5-1.5-2.4-2.1-3.4v-.3c-.8-3.2-1.6-6.1-4.2-8.1-.2-.2-.4-.4-.5-1.2-1.3-3.2-2.5-6-3.8-8.7v-.3c-1.3-2.6-2.5-4.9-3.7-7.2-.8-1.4-1.7-2.8-2.7-4.8-1.4-3.1-2.6-5.6-3.8-8.1l-.2-.5c-.3-.8-.6-1.2-.8-1.6v-.3c-1-1.8-1.9-3.4-2.8-4.9v-.3c-1.3-2.6-2.6-4.9-3.8-7.2v-.3c-.7-1.5-1.2-2.7-1.8-3.9v-.3c-.4-.9-.7-1.5-.9-2.1v-.2c-.4-.7-.6-1.2-.9-1.6v-.3c-.7-1.2-1.2-2.1-1.8-3v-.3c-.4-.9-.7-1.5-.9-2.1v-.2c-.6-1.2-1.1-2.1-1.6-3-2.5-4.8-4.9-9.6-7.6-14.9-.5-.9-.7-1.2-1-1.5v-.3c-.6-1.5-1.2-2.7-1.8-3.9-.3-.5-.5-1-.9-2s-.7-1.4-1-1.8v-.3c-1-2.1-1.9-4-2.8-5.8h0c-.2-.2-.3-.4-.4-.5,0,0-.2-.3-.5-1-1.1-2.3-2-4.1-2.9-5.9v-.3c-2.5-5.5-5-10.7-7.6-15.8-.3-.6-1.1-1-1.7-1.5v-.8c-.6-1.8-1.3-3.1-2.1-4.5-.3-.4-.5-.6-.7-.8h0l.5,1.2h0Z"/>
  <path class="st0" d="M683.6,490.2v-153.4c-.7-1.3-1.4-1.8-2-2.3-6.9,0-13.9,0-21.3-.4-.6-5.8-.7-11-.7-16.3v-42c0-4.8,1-5.7,5.8-5.8h12.6c4.2,0,4.4,0,5.9-2.1,0-12-.1-23.9-.2-35.9v-23.8c0-1.7.2-3.3.4-5.6,24.7,0,49.1,0,73.9.5.6,2.9.7,5.4.7,7.9v51.2c0,6.3.7,7,6.9,7h11.6c8.1,0,16.1,0,24.3.6v61.1c0,1.2-.3,2.5-.4,3.7-13.5,0-27,0-41.1.4-.9,2.9-1.4,5.5-1.4,8.1v142.3c-.2,4.2-1.1,5.1-5.4,5.3h-63c-2.2,0-4.3-.3-6.5-.4h0Z"/>
  <path class="st0" d="M615.1,269.8c0,1.7.2,3.4.2,5.1v211.3c0,1.1,0,2.2-.5,3.7-22.2.5-44,.5-65.8.5s-8.2-.4-8.2-8.1v-204.1c0-8,.4-8.4,8.5-8.4h65.9,0Z"/>
  <path class="st0" d="M644.5,159.2s.4.2.5.7c.9,1.6,1.6,2.8,2.3,4,.3.2.5.5.7,1.1-.3,1-.6,1.6-.8,2.2h-.2c-.7.3-1.2.7-1.6,1h-.2c-.7.4-1.2.7-1.6,1h-.2c-.9.6-1.5,1.1-2.1,1.6-2,1.2-4.1,2.4-6.6,3.8-1.6.8-2.6,1.4-3.6,2h-.2c-.5.4-.8.6-1.1.9h-.3c-.7.3-1.2.6-1.6.9h-.2c-1,.7-1.8,1.3-2.6,1.8h-.2c-.5.3-.8.5-1.1.7-3.4,1.9-6.8,3.7-10.7,5.2-.9-.7-1.4-1-1.9-1.4v-.3c-.6-1-1.3-1.8-1.9-2.5v-.2c-.4-.4-.6-.5-.9-.7v-.3c-1.3-1.2-2.4-2.1-3.6-3.1-6.1-4.8-13.3-6.8-20.7-7.5-9.1-.9-18,0-26.2,4.6-4.8,2.7-9.2,5.7-12,10.6-.3.5-.7,1-1.4,1.9-11.9-7.1-23.5-14.1-35.5-21.3,1.3-2.4,2.3-4.2,3.8-6.5,1.7-2.5,2.9-4.6,4.1-6.7l.2-.2c.4-.9.6-1.5.8-2.1,8-10.8,18.3-18.8,30.8-24.9,1-.4,1.4-.7,1.9-.9h.2c.7-.3,1.2-.6,1.7-.9h.3c1.1,0,1.9-.2,2.6-.5,10-3.4,20.4-4.7,30.9-3.3,6.9,1,13.7,2.9,20.5,4.3.3,0,.6.2,1.3.6,1.8.8,3.1,1.4,4.4,1.9l.3.2c.6.5.9.7,1.3.9,2.8,1.9,5.6,3.8,9,6,1.1.5,1.7.8,2.2,1v.3c1.1,1.1,2.1,1.8,3.2,2.6,1.6,1.6,3.1,3.2,5,5.3.9,1,1.5,1.6,2.1,2.1v.2c.3.4.6.6.9.7v.2c.3.7.6,1.1.9,1.5,2,2.6,3.9,5.3,6.1,8.5.6,1.2,1.1,1.8,1.5,2.3l-.5.7h0Z"/>
  <path class="st0" d="M1620.4,141.4s.3.2.5.5c.6.5,1,.7,1.3.9v.3c1.3,1.6,2.5,3,3.7,4.4v.2c.6.4,1,.6,1.3.8,3.2,4.8,6.5,9.4,9.4,14.3,1.7,2.8,1.3,3.7-1.3,5.3-9.9,5.9-19.9,11.7-30.5,17.7-1.9-.7-3.2-1.3-4.3-2.2-1.4-1.1-2.7-2.3-4.1-3.4-7.4-6.9-16.3-9.7-26.2-10-9.1-.3-17.8,1.3-26.3,6.2-1.4.9-2.3,1.5-3.1,2.1h-.2c-.7.7-1.1,1.3-1.6,1.9,0,0-.2.3-.6.6-1.5,1.5-2.6,2.7-3.8,4-.5,1.2-.9,2.5-2.6,1.7-1.1-.5-2.3-1-3.3-1.6-9.8-5.9-19.6-11.9-29.3-17.9-.4-.2-.7-.6-.9-.7,0-.6-.3-1,0-1.1,4.7-6.7,7.5-14.5,13.6-20.3,4.8-4.5,9.2-9.6,15.5-13.3,2.7-1.5,4.7-2.9,6.8-4.3,5.1-2.6,10.2-4.8,16.5-5.8,1.1-.2,1.6-.3,2.2-.4h.3c3.9-.6,7.4-1.1,10.8-1.6h2.7c5.1.3,9.3.6,13.5.9,0,0,.2,0,.6.2,3.7.9,7,1.7,10.4,2.5l.2.2c1.3.4,2.4.6,3.5.8v.2c.8.6,1.5,1.1,2.2,1.5.2,0,.5,0,1.4.3,1.6.7,2.5,1.2,3.4,1.6,1.1.5,2.2,1.1,3.7,2,1.6,1.2,2.7,1.9,3.8,2.6v.2c1.3.7,2.2,1.2,3.2,1.7v.3c.7.7,1.3,1.1,1.9,1.5v.3c1.1.7,1.9,1.2,2.7,1.7v.3c.7.7,1.3,1.2,1.9,1.6v.3c.4.5.7.8.9,1.1h.3,0Z"/>
  <path class="st0" d="M1531.2,397v-128.3h75.7v222.4c-3.9,1.1-70.4,1.2-75.5,0-.4-10.2,0-20.6-.2-31v-63.1M1532.5,377.9v108.4c.3,2.9,1.2,3.8,4.1,4.1h61.6c7.4,0,8-.5,8-8v-204.6c0-7.4-.6-8-8-8h-57c-8.6,0-8.9.3-8.9,9v99h.2Z"/>
  <path class="st0" d="M615.1,269.5c-21.9.3-43.9.3-65.9.4-8.1,0-8.5.4-8.5,8.4v204.1c0,7.7.4,8.1,8.2,8.1h65.8c-1,.4-2.4,1.3-3.7,1.3h-66.8c-4.3,0-4.6-.4-4.7-5v-213.5c0-1.4.1-2.7.2-4.5h68.3c2.3,0,4.8-1.3,7,.6v.2h.1Z"/>
  <path class="st0" d="M683.4,490.3c2.3,0,4.5.2,6.7.2h63c4.3-.2,5.2-1.1,5.4-5.3v-142.3c0-2.6.5-5.2,1-8.1v156.8c-1.5.2-2.5.5-3.5.5h-66.3c-1.7,0-3.4,0-5.1-.2-.5,0-.8-.9-1.1-1.5h-.1Z"/>
  <path class="st0" d="M1656.7,269.9s0,.3-.3.9c-.3,3.2-.7,5.8-.7,8.4v203.1c0,2.7.6,5.5,1,8.2v.3c.2.5.2.6.3.8-.5-.7-1.3-1.3-1.4-2-.2-2-.2-4-.2-6.1v-210.3c0-1.4,0-2.7.2-4.4,1.5,0,2.6-.2,3.8-.2h68.2c1.4,0,3.5-1.1,3.9,1.4-.6,0-.8-.2-.9-.3l-.4-.2c-2.2-.4-4-.7-5.9-.8h-61.4c-2.1,0-4.2.6-6.3,1v.2h.1Z"/>
  <path class="st0" d="M1073.4,490.4v-8.4c0-70.4,0-140.9.3-211.7.4-.4.6-.4.7-.4v214.1c0,2.3-.3,4.6-.7,6.9-.3-.2-.3-.4-.3-.6h0Z"/>
  <path class="st0" d="M1267.2,490.5c1.9-.2,3.7,0,5.6,0h62c6.1,0,6.9-.8,6.9-7.1v-93.3c0-2.8.4-5.6.8-8.7.2,1,.3,2.4.3,3.8v106.1c-1.9.2-3.5.5-5.1.5h-66.8c-1.3,0-2.5-.6-3.8-1.2h0Z"/>
  <path class="st0" d="M512.8,271.5c-2.1-.4-3.9-1.5-5.8-1.5h-72.2c-3.2,0-5.8.8-7.9,3.9.4-1.6,1-3.4,1.5-5.1h81.8c1.6,0,3.9-.5,2.5,2.8h0Z"/>
  <path class="st0" d="M1073,490.4c.4.2.4.3.4.8-2,.4-4,.6-6,.6h-62.4c-2.1,0-4.3-.2-7.1-.3v-10.8c0-2.2.2-4.4,0-6.5-.2-1.4-1-2.8-1.9-4.2.2-.7.9-1.2,2.2-2.5.3,2.3.5,3.7.6,5.2v12.1c0,4.8,1,5.7,5.9,5.7h68.3Z"/>
  <path class="st0" d="M1074.3,269.6c0,.3-.2.3-.6.3-2.2-.2-4.3-.4-6.3-.4h-60.6c-8,0-8.3.4-8.3,8.5s0,5.9-.3,9.3c0,.4-.4.4-.4.4v-18.6c1.8,0,3.4-.4,5-.4h68.1c1,0,2.1.4,3.2.9h.2,0Z"/>
  <path class="st0" d="M683.4,267.8c-1.1,2.1-3.4,2-5.6,2h-12.6c-4.8,0-5.8,1-5.8,5.8v42c0,5.3.2,10.6.3,16.3-.4.3-1.3.2-1.3,0-.2-1.2-.3-2.5-.3-3.7v-56.4c0-1.5.2-3,.3-4.8,1.5,0,2.7-.2,3.9-.2h15.4c1.8,0,3.6-.6,5.8-1h0Z"/>
  <path class="st0" d="M1124.9,490.6c12.8-.2,25.6,0,38.3,0s23.7,0,35.9.2c.3.4.3.6.2.8-1.5,0-3.1.3-4.6.3h-65.5c-1.4,0-2.8-.6-4.2-1.2h-.1Z"/>
  <path class="st0" d="M1731.7,371.5c0,2,.3,4,.3,6v107.9c0,2-.4,3.9-.9,5.8-.3-.3-.3-.4-.3-.6l.2-.4c.4-2.8.8-5.3.8-7.7v-110.9h0c0-.1,0,0,0,0Z"/>
  <path class="st0" d="M1199.6,491.5c-.3-.2-.2-.3,0-.8,0-8.2.2-16.1.2-24v-83.3c0-3.3.3-6.5.6-10.1.2,13.5.3,27.3.3,41.1v71.8c0,1.8-.4,3.6-1,5.4h0Z"/>
  <path class="st0" d="M801.3,269.3c-8.1,0-16.1,0-24.2-.2h-11.6c-6.2,0-6.9-.7-6.9-7v-51.2c0-2.5,0-5-.3-7.9,2.1.8,1.2,2.9,1.2,4.6v56.5c.2,3.6.7,4.2,4.5,4.4h5.1c10.6,0,21.2,0,32,.3.3.2.2.5.2.5h0Z"/>
  <path class="st0" d="M1201.3,293.7c-.3.2-1.4.2-1.4,0-.2-1.5-.3-3.1-.3-4.7v-14.9c0-4.2-1-5.1-5.2-5.5h-62.1c-2.2,0-4.3.3-6.9.5,0-.2.2-.6.5-.6,23,0,46,.2,69.1.3h5.4c.3,8.5.5,16.6,1,24.9h0Z"/>
  <path class="st0" d="M1484.7,490.5h.6c0,.5,0,1.4-.2,1.4-.9.2-1.8.2-2.8.2h-66.9c-1.5,0-3.1-.2-4.5-.5,22-.2,44-.2,65.9-.2s5.2-.5,7.9-.7h0v-.2Z"/>
  <path class="st0" d="M1805.9,490.6c5.6-.3,11.3,0,17.1-.2,19.1,0,38.2,0,57.8-.2,0,.4-.5,1.2-1.1,1.3-1.2.2-2.5.2-3.7.2h-64.4c-1.8,0-3.6-.5-5.6-1.1h-.1Z"/>
  <path class="st0" d="M606,124.5c-6.6-1.3-13.4-3.2-20.3-4.1-10.5-1.4-20.8,0-30.9,3.3-.7.2-1.5.3-2.6.5.2-.5.7-1,1.4-1.7.1-.2.1-.3.1-.3,2.8-.4,5.6-.6,8.3-1.3,13.3-3.4,26.5-1.9,39.6,1.4,1.5.4,2.8,1.3,4.4,2.2Z"/>
  <path class="st0" d="M1484.3,490.5c-2.2.3-4.8.7-7.4.7h-66.3c-.4,0-.6-.4-.6-.6,24.6-.2,49.2-.2,74.2-.2h.1Z"/>
  <path class="st0" d="M1730.2,490.5c.4.2.4.4.4.8s0,.2-.4.2h-73c0-.1-.2-.2-.3-.7,24.3-.3,48.6-.3,73.4-.3h0Z"/>
  <path class="st0" d="M1657.6,491.6h72.6c-1.1.2-2.6.5-4.2.5h-63.8c-1.4,0-2.8-.2-4.6-.4h0Z"/>
  <path class="st0" d="M1180.9,855.9c-15.3,3.9-30.9,7.5-47.2,8.6,4.2-.8,8.8-1.4,13.3-2.3,8.3-1.6,16.6-3.3,25-4.9,2.9-.6,5.8-1,8.9-1.4h0Z"/>
  <path class="st0" d="M801.4,269.7v-.7c.4.4,1.1,1,1.1,1.6,0,21.1,0,42.1-.5,63.6-.3.4-.7.5-.7.5h-.2c0-1.3.3-2.5.3-3.7v-61.3h0Z"/>
  <path class="st0" d="M329.6,447.3c.4,0,1,.4,1.3,1,4.5,9.2,9,18.4,13.5,27.9-.5-.2-1.3-.5-1.6-1.2-4.4-9.1-8.8-18.2-13.2-27.7h0Z"/>
  <path class="st0" d="M964.7,921c8.6,1.4,17.4,3,26.2,4.5,5,.9,10,1.6,15.4,2.5-4.2-.3-8.8-.3-13.3-1.1-9.4-1.7-18.8-3.8-28.4-5.9h0Z"/>
  <path class="st0" d="M402.6,490.5c.4-.6.8-1.3,1.5-2.1-.4,3.6-.4,3.7-3.5,3.7h-46.5c-.7,0-1.5-.3-2.1-.6h46.5c15.4,0,2.7-.6,4-.9h.1Z"/>
  <path class="st0" d="M402.1,490.5c-.9.3-2.2.8-3.6.8-15.4,0-30.9,0-46.8-.3-.5,0-.5-.3-.4-.4h50.9,0Z"/>
  <path class="st0" d="M1022.3,864.3c-10.1-.3-20.2-2-30.4-4.5,1.4,0,3,.2,4.7.4,8.5,1.3,17.1,2.6,25.7,4.1Z"/>
  <path class="st0" d="M755.6,745c-5.3-4-10.7-8.4-16.1-13,5.8,3.4,11.2,7.7,16.1,13Z"/>
  <path class="st0" d="M1359,332.6c1.7-1.4,3.5-3.3,5.7-4.1,7-2.5,14.2-3,21.7-.9-1.5.7-3.2,2.2-4.9-.3-.4-.6-2-.5-3.1-.4-5.4.3-10.7.8-15.4,3.8-1.2.7-2.5,1.2-4,1.9h0Z"/>
  <path class="st0" d="M246.4,279.6c.5.2,1.3.6,1.6,1.2,2.6,5.1,5,10.3,7.5,15.9-2.3-3.8-4.7-7.9-6.9-12.1-.8-1.5-1.4-3.1-2.2-5h0Z"/>
  <path class="st0" d="M926.3,912.3c.4-.2,1-.4,1.6-.2,9.2,2.3,18.5,4.6,28,7.1-9.6-2.1-19.5-4.4-29.6-6.9h0Z"/>
  <path class="st0" d="M1765.7,327.2c8.4-1.6,16.7-1.2,24.5,4.2-3.6-.9-7.4-2-11.1-3.3s-7.4-1.7-11.3-.6c-.5.2-1.2,0-2.1-.3h0Z"/>
  <path class="st0" d="M1217.1,845.7c-7,2.2-14.3,4.3-22.1,6.5,6.8-2.8,13.9-5.7,22.1-6.5Z"/>
  <path class="st0" d="M1977.1,489.9c5.9,1.7,12,3.7,18.3,5.9-3,1.4-5.6-.8-8.5-1.8-3.3-1.1-6.9-1.4-9.8-4.2h0Z"/>
  <path class="st0" d="M828.7,416.9c.9,1.9,1.9,4.1,2.8,6.4,1.7,4.4,3.5,8.8,5.1,13.6-.2.4-.5.4-.7.5-3.8-6.2-5.5-13.1-7.3-20.5h.1Z"/>
  <path class="st0" d="M1264.8,827.1c-4.8,3.7-10.8,5.5-17.1,7.5.2-.5.8-.9,1.5-1.7v-.3c2.6-1.1,5.3-2.1,7.9-3.2.7-.3,1.3-.6,2-.8,1.7-.5,3.5-1,5.6-1.5h0Z"/>
  <path class="st0" d="M733.1,813c4,3,8.1,6.3,12.3,9.8-4-3-8.2-6.2-12.3-9.8Z"/>
  <path class="st0" d="M696,781.9c4,3.1,8,6.6,12.3,10.3-1.9,0-3.4-.9-4.8-2.7-2.1-2.7-4.9-4.9-7.5-7.6h0Z"/>
  <path class="st0" d="M996.6,287.5c-.7,0-1.7-.3-2.3-.8-3.8-3.2-7.5-6.4-11.4-9.9,5.2,2.3,9.4,6.3,13.7,10.7h0Z"/>
  <path class="st0" d="M832.3,875.9c4.3,1.8,8.6,3.9,13.3,6.1-2.2.6-4.3,0-6.4-1.7-2.1-1.6-4.5-2.8-6.9-4.4h0Z"/>
  <path class="st0" d="M1751.3,277.4c-3.6,3-7.2,6.1-11.1,9.2,2.9-2.9,6.2-6,10-9.1h1.1Z"/>
  <path class="st0" d="M2085.5,269.1c.3,6.5.3,13.1.3,19.8-2.5.2-3-1.2-3.7-2.7,2.2-.4,2.7-1.8,2.7-3.7v-10.6c0-.9.3-1.8.7-2.8h0Z"/>
  <path class="st0" d="M1914.9,415.5c.8,1.1,2,2.3,2.5,3.8,1.1,3,1.9,6.1,2.9,9.6-2.9-3.6-4.3-8.3-5.5-13.4h0Z"/>
  <path class="st0" d="M1998.8,263.2c-5.1,1.6-10.6,3.1-16.4,4.8,1.4-1.7,3.3-2.9,5.8-3.1,3.4-.4,6.8-1.1,10.6-1.6h0Z"/>
  <path class="st0" d="M1862.5,289.5c-3.2-2.7-6.4-5.7-9.7-9,4.6,1,7.6,4.4,9.7,9Z"/>
  <path class="st0" d="M1961.4,481.5c.6,0,1.4,0,2,.3,4.3,2.4,8.6,4.9,13.2,7.6-5.8-.6-10.5-4-15.2-7.9h0Z"/>
  <path class="st0" d="M1485.5,344.1c-.9-6.6-1.7-13.5-2.5-21,2.5,3.1,1.9,7.4,2.6,11.4.5,3,0,6.1,0,9.6h0Z"/>
  <path class="st0" d="M633.2,713.7c2.8,3.1,5.6,6.4,8.5,10.1-3.3-2.6-6.6-5.6-8.5-10.1Z"/>
  <path class="st0" d="M1343.1,371c.8-6.3,1.9-13,3.1-19.9-.8,6.3-1.9,13-3.1,19.9Z"/>
  <path class="st0" d="M897.9,492.8c5.6,1.2,11.5,2.7,17.8,4.2-1.6.6-3.4.5-5.3-.3-4-1.5-8.1-2.5-12.4-4h0Z"/>
  <path class="st0" d="M914.5,837.4c-3.9-1.6-7.8-3.2-11.8-5,1.8.4,3.7,2.1,5.2.3,1.3,1.1,2.3,2.1,3.5,2.9.8.6,1.8.9,2.9,1.6l.2.2h0Z"/>
  <path class="st0" d="M1401,829.3c2.7-2.2,5.7-4.6,9.1-6.9-1.5,3.8-5.4,5-9.1,6.9Z"/>
  <path class="st0" d="M1734,293c-.4.9-.6,3-2.4.5v-21.3c0,5.2,0,10.5.3,15.7,0,1.8-.3,3.8,2.1,5.1h0Z"/>
  <path class="st0" d="M1831.9,268.7c-4.7-1-9.7-2.2-15-3.5,5-.2,10,1,15,3.5Z"/>
  <path class="st0" d="M621.1,698.2c2.5,3,5.1,6.2,7.8,9.7-1-.8-2.3-1.9-3.3-3.2-1.6-2-3-4.2-4.6-6.5h.1Z"/>
  <path class="st0" d="M1793.7,264.1c-3.5.3-7.3.6-11.5.8.3-.6,1.1-1.5,1.8-1.5,3.1,0,6.3.4,9.7.7Z"/>
  <path class="st0" d="M396.4,340.5c-1.1,3-2.6,6.1-4.3,9.6.9-3.1,1-6.9,4.3-9.6Z"/>
  <path class="st0" d="M1482.1,318.4c-1.4-4.8-2.8-9.5-4.3-14.6,2.8,4.1,4.8,8.8,4.9,14.4-.2.3-.6.2-.6.2h0Z"/>
  <path class="st0" d="M415.1,299.4c-1.1,3-2.6,6.1-4.2,9.5.8-3.1,1-6.9,4.2-9.5Z"/>
  <path class="st0" d="M1596.7,180.4c1.2.8,2.5,2,3.9,3.1,1.1.9,2.4,1.5,4,2.3-.3,1-1.1,2.6-2.4,1.4-2-1.9-3.6-4.3-5.6-6.8h0Z"/>
  <path class="st0" d="M1731.7,272c0,7.2,0,14.1-.2,21.4-.3-1.9-.8-4.2-.8-6.5v-16.6c.2-.3.4-.2.8.2.2.6.2.9,0,1.5h.2Z"/>
  <path class="st0" d="M944.7,847.5c-4.7-1.3-9.7-2.7-14.9-4.4,4.7,1.3,9.7,2.8,14.9,4.4Z"/>
  <path class="st0" d="M945.5,498c5.1-1.6,10.6-3,16.8-4.5h1.2c-5.7,2.3-11.4,4.1-18,4.6h0Z"/>
  <path class="st0" d="M1247.3,906.5c3.2-1.3,6.9-2.7,10.9-4-2.7,2.8-6.7,3-10.9,4Z"/>
  <path class="st0" d="M878.2,821.5c-2.6-1-5.4-2.2-8.3-3.6,3.3-.6,6.1.7,8.3,3.6Z"/>
  <path class="st0" d="M1130.8,864.6c-4.9.9-10.2,1.7-15.9,2.5,4.9-.9,10.2-1.7,15.9-2.5Z"/>
  <path class="st0" d="M2034.3,497.2c4.8-1.3,9.6-2.5,14.7-3.8-3.9,3-8.9,3.6-14.3,4.1-.4,0-.5-.3-.5-.3h.1Z"/>
  <path class="st0" d="M1073.9,932.8c3.4-.2,7.2-.3,11.2-.4-3.4,2-7.2.4-11.2.4Z"/>
  <path class="st0" d="M1248.7,329.1c3.4,1.4,6.7,3.2,8.9,6.9-2.8-2-5.8-4.4-8.9-6.9Z"/>
  <path class="st0" d="M1962.3,277.5c-2.1,1.8-4.5,3.6-7.3,5.6.9-3.3,4-4.3,7.3-5.6Z"/>
  <path class="st0" d="M1039.8,931.2c4.6,0,9.5.3,14.8.6-4.6,0-9.5-.2-14.8-.6Z"/>
  <path class="st0" d="M1998.7,496.5c3.6.3,7.5.9,11.8,1.5-3.6-.4-7.5-.8-11.8-1.5Z"/>
  <path class="st0" d="M1393.2,266.9c-3.9,1.3-8.1,2.5-12.6,3.8,3.9-1.3,8.1-2.5,12.6-3.8Z"/>
  <path class="st0" d="M852,885.3c2.3.8,4.7,1.8,7.3,3.1-3.1,1-4.7-1.9-7.3-3.1Z"/>
  <path class="st0" d="M1732.6,358.5c0-3.4.9-6.7,3.4-9.9-.9,3.1-2.1,6.3-3.4,9.9Z"/>
  <path class="st0" d="M1347.9,346.8c1.1-2.3,2.5-4.6,4.1-7.2.3-.2.3-.3.3-.3,0,3.2-1.8,5.4-4.4,7.5Z"/>
  <path class="st0" d="M963.8,493.4h-1.2c3.2-1.6,6.7-3.1,10.6-4.7-2.1,2.9-5.6,3.8-9.4,4.7h0Z"/>
  <path class="st0" d="M2059.8,489.3c2.8-2,5.7-4.1,9-6.2-1.6,3.7-5.5,4.6-9,6.2Z"/>
  <path class="st0" d="M2012.9,261.7c-3.7.5-7.7,1-12.1,1.5,3.4-2.5,7.6-1.7,12.1-1.5Z"/>
  <path class="st0" d="M1285.2,266.4c-4.2-.2-8.6-.5-13.3-.8,3.1-.2,6.5-.4,9.9-.4s2.2.7,3.4,1.2h0Z"/>
  <path class="st0" d="M1279.8,894.5c2.8-1.3,5.9-2.6,9.3-3.9-2.2,2.6-5.8,2.9-9.3,3.9Z"/>
  <path class="st0" d="M1580.2,120.2c-4,0-8.2-.3-12.8-.7,3.9,0,8.3.3,12.8.7Z"/>
  <path class="st0" d="M405.6,319.7c-1.1,3-2.4,6.3-4,9.8.1-1.3.2-3,.9-4.5.8-1.8,1.9-3.4,3.1-5.3Z"/>
  <path class="st0" d="M1527.6,615c-1.5,2.4-3.2,4.9-5.1,7.7.5-3,2.8-5.2,5.1-7.7Z"/>
  <path class="st0" d="M344.4,476.8c1.4,2.6,2.8,5.5,4.3,8.8-1.4-2.6-2.8-5.5-4.3-8.8Z"/>
  <path class="st0" d="M1237.1,270c-1.7.9-3.8,1.8-6.2,2.7-.3-.4-.2-.9-.2-1.3s0-.3-.2-.4h-.3c2.2-.3,4.3-.7,6.9-1.1h0Z"/>
  <path class="st0" d="M980,274.2c-2-.7-4.1-1.7-6.4-2.9,2.1.4,5.1-.6,6.4,2.9Z"/>
  <path class="st0" d="M817.9,868.5c2.2,1,4.5,2.3,6.9,3.8-2.6-.2-5-1.4-6.9-3.8Z"/>
  <path class="st0" d="M1924.2,438.5c1.2,1.9,2.4,4.2,3.7,6.9-1.2-1.9-2.4-4.2-3.7-6.9Z"/>
  <path class="st0" d="M1563.9,119.6c-3.2.6-6.7,1.1-10.6,1.6,2.8-2.6,6.6-2,10.6-1.6Z"/>
  <path class="st0" d="M1931.4,308.4c-1.5,2.8-3.2,5.9-5.1,9.2,1-3.1,2.4-6.3,5.1-9.2Z"/>
  <path class="st0" d="M1797,337.5c2.6,1.8,4,4.6,4.6,8.3-1.5-2.4-3-5.2-4.6-8.3Z"/>
  <path class="st0" d="M565.8,605.4c1.6,2.8,3.1,6,4.7,9.5-2.5-2.3-4.2-5.5-4.7-9.5Z"/>
  <path class="st0" d="M1094.8,867.9c-1.9.2-3.9.3-6.2.4,1.9-.2,4-.3,6.2-.4Z"/>
  <path class="st0" d="M1111.1,867.1c-3.4.3-7.1.6-11.3.8,3.4-.3,7.2-.6,11.3-.8Z"/>
  <path class="st0" d="M1534,127.5c-1.7,1.2-3.8,2.6-6.2,4,.5-3.2,3.4-3.2,6.2-4Z"/>
  <path class="st0" d="M1343.4,302.4c-.3,1.1-.9,2.4-1.9,4.6-1.5-2-2.3-3.2-3.3-4.6,1.5.5,3.1,1.4,5.2,0h0Z"/>
  <path class="st0" d="M841.4,312.6c-.8,1.6-1.9,3.4-3.2,5.4-.8-2.6.8-4,3.2-5.4Z"/>
  <path class="st0" d="M1146.3,928.3c3.2-.4,6.8-.9,10.7-1.3-3.3.4-6.8.9-10.7,1.3Z"/>
  <path class="st0" d="M1815,264.8c-2.7,0-5.7-.3-9-.6,2.7,0,5.7.2,9,.6Z"/>
  <path class="st0" d="M1920.4,429.7c1.2,2.4,2.5,5.1,3.7,8.2-2.5-1.8-3.1-4.8-3.7-8.2Z"/>
  <path class="st0" d="M864,814.7c-2.5-1-5.1-2.1-8-3.5,2.5,1,5.2,2.2,8,3.5Z"/>
  <path class="st0" d="M1314.9,277.2c-2.6-1.3-5.4-2.8-8.5-4.6,2.6,1.3,5.4,2.8,8.5,4.6Z"/>
  <path class="st0" d="M1790.5,331.9c2,1.4,4.1,3.1,6.3,5.1-2.7-.5-4.7-2.4-6.3-5.1Z"/>
  <path class="st0" d="M430.6,436.4c.7-1.9,1.6-4.1,2.7-6.4,0,2.3,0,4.7-2.7,6.4Z"/>
  <path class="st0" d="M426.9,443.9c.7-1.9,1.6-4.1,2.7-6.4,0,2.3,0,4.7-2.7,6.4Z"/>
  <path class="st0" d="M1245.1,267.9c-2.1.7-4.4,1.3-7.1,1.9,1.6-2.4,4.2-2.3,7.1-1.9Z"/>
  <path class="st0" d="M411.9,473.8c.7-1.9,1.6-4.1,2.7-6.4,0,2.3,0,4.7-2.7,6.4Z"/>
  <path class="st0" d="M2039.7,263.8c-2.6-.2-5.4-.7-8.5-1.3,2.8-1.5,5.5-.2,8.5,1.3Z"/>
  <path class="st0" d="M423.1,451.4c.7-1.9,1.6-4.1,2.7-6.4,0,2.3,0,4.7-2.7,6.4Z"/>
  <path class="st0" d="M419.4,458.9c.7-1.9,1.6-4.1,2.7-6.4,0,2.3,0,4.7-2.7,6.4Z"/>
  <path class="st0" d="M415.6,466.4c.7-1.9,1.6-4.1,2.7-6.4,0,2.3,0,4.7-2.7,6.4Z"/>
  <path class="st0" d="M408.2,481.3c.7-1.9,1.6-4.1,2.7-6.4,0,2.3,0,4.7-2.7,6.4Z"/>
  <path class="st0" d="M1378.5,271.7c-2,1.3-4.2,2.5-6.8,3.8,1.2-2.6,3.9-3.2,6.8-3.8Z"/>
  <path class="st0" d="M1596.2,592.2c.2-1.6,1.1-3.3-.6-5.2,3.2.9,3.4,2.1.6,5.2Z"/>
  <path class="st0" d="M1801.7,346.4c.9,3.1,1.8,6.5,2.7,10.2-.9-3-1.7-6.5-2.7-10.2Z"/>
  <path class="st0" d="M282.7,352.5c1.2,1.9,2.5,4.2,3.7,6.8-1.2-1.9-2.4-4.2-3.7-6.8Z"/>
  <path class="st0" d="M916,909.4c2.6-.2,5.2.3,7.6,2.5-2.3-.6-4.8-1.5-7.6-2.5Z"/>
  <path class="st0" d="M1409.6,265c-2,.2-4.3.3-7,.4,2-.2,4.3-.3,7-.4Z"/>
  <path class="st0" d="M1591.4,122.9c-3.2-.5-6.6-1.3-10.2-2.2,3.2.6,6.6,1.3,10.2,2.2Z"/>
  <path class="st0" d="M824.4,372.7c.3,4.3.3,8.9.3,13.9-.2-4.2-.4-8.9-.3-13.9Z"/>
  <path class="st0" d="M516,153.1c-.9,2-2.1,4.1-3.6,6.3.1-2.4,1.1-4.6,3.6-6.3Z"/>
  <path class="st0" d="M1477.3,302.4c-1.2-2.2-2.4-4.9-3.7-7.8,2.9,1.5,3,4.6,3.7,7.8Z"/>
  <path class="st0" d="M1369.9,849.5c2-1.4,4.4-3,7.2-4.6-1.3,2.7-4.1,3.4-7.2,4.6Z"/>
  <path class="st0" d="M1419,728.9c-1.3,1.4-3,3-5,4.5,0-3.1,2.8-3.2,5-4.5Z"/>
  <path class="st0" d="M1191.4,853.2c-2.4.7-5,1.3-7.9,1.9,2.4-.7,5-1.3,7.9-1.9Z"/>
  <path class="st0" d="M836,437.6c.2-.3.4-.4.7-.5,1.4,2.3,2.6,4.7,3.9,7.3-3.2-.8-3-4.3-4.6-6.9h0Z"/>
  <path class="st0" d="M1260.4,339.9c1.3,2.1,2.5,4.5,3.8,7.2-1.3-2.1-2.5-4.5-3.8-7.2Z"/>
  <path class="st0" d="M1221.4,277.5c-1.6,1.4-3.5,2.9-5.8,4.4,1.6-1.4,3.5-2.8,5.8-4.4Z"/>
  <path class="st0" d="M379.7,377.1c-.4,1.4-1,3-1.7,4.6h-1.1c-.6-1.3-1.1-2.5-1.7-4.1.6.4,1.2,1,2.1,2,.8-.9,1.5-1.6,2.3-2.6h0Z"/>
  <path class="st0" d="M290.2,367.2c1.2,2.1,2.4,4.6,3.7,7.5-1.2-2.1-2.4-4.6-3.7-7.5Z"/>
  <path class="st0" d="M1509.5,729.9c1-1.7,2.3-3.3,3.9-5.1-.2,2.2-1.4,4.1-3.9,5.1M1511.3,728.4h.2-.2Z"/>
  <path class="st0" d="M1058.4,932.2c3.2,0,6.6,0,10.3.2-3.2,0-6.6,0-10.3-.2Z"/>
  <path class="st0" d="M1974.7,270.8c-1.8,1-3.9,2-6.4,2.9,1.3-2,3.4-3.1,6.4-2.9Z"/>
  <path class="st0" d="M300.4,387.6c1.2,2.3,2.5,5,3.7,8.1-2-2-3.3-4.6-3.7-8.1Z"/>
  <path class="st0" d="M304.8,397.4c2.5,1.6,3.3,4.5,4.1,7.7-1.3-2.2-2.7-4.8-4.1-7.7Z"/>
  <path class="st0" d="M419.8,288.7c-.6,1.9-1.4,4-2.6,6.3-.3.2-.5.2-.5.2.9-2.1,1.8-4.3,3.1-6.5Z"/>
  <path class="st0" d="M613.6,596.7c-1.2-1.4-2.5-3.2-3.8-5.3,2.1.8,3.2,2.7,3.8,5.3Z"/>
  <path class="st0" d="M434.3,429c.6-1.9,1.4-3.9,2.4-6,.3.2.4.3.4.5,0,2.2-.8,4-2.8,5.4h0Z"/>
  <path class="st0" d="M977.5,486c1.4-1.2,3.1-2.3,5.1-3.5-1.2,1.4-2,4-5.1,3.5Z"/>
  <path class="st0" d="M401.1,329.8c-.6,1.9-1.4,4-2.6,6.3-.3.2-.5.2-.5.2.9-2.1,1.8-4.3,3.1-6.5Z"/>
  <path class="st0" d="M927.7,498.5c2.8-.2,5.8-.3,9.3-.3-.9.3-2.3.8-3.7.8s-3.6-.2-5.6-.5Z"/>
  <path class="st0" d="M1754.9,329.7c2.1-.8,4.7-1.7,7.6-2.5-2.1.8-4.7,1.7-7.6,2.5Z"/>
  <path class="st0" d="M1485.9,665.3c-1.2,1.5-2.7,3.1-4.5,4.7,1.2-1.5,2.6-3.1,4.5-4.7Z"/>
  <path class="st0" d="M404.5,488.1c.6-1.8,1.5-3.6,2.6-5.7-.1,1.9.4,4.4-2.6,5.7Z"/>
  <path class="st0" d="M1447.1,703.8c-1.1,1.4-2.5,2.9-4.2,4.4,1.1-1.4,2.5-2.9,4.2-4.4Z"/>
  <path class="st0" d="M1432.2,717.7c-1,1.4-2.3,2.8-3.9,4.5,1-1.4,2.3-2.9,3.9-4.5Z"/>
  <path class="st0" d="M736.5,729.5c-1.5-.8-3-2-4.7-3.3,1.4.9,4.5,0,4.7,3.3Z"/>
  <path class="st0" d="M1228.4,273.7c-1.8,1.2-3.9,2.4-6.4,3.7,1.8-1.2,3.9-2.4,6.4-3.7Z"/>
  <path class="st0" d="M846.6,455.1c1.4,1.1,2.7,2.4,4.2,3.9-1.3-1.1-2.8-2.4-4.2-3.9Z"/>
  <path class="st0" d="M1059.8,867.8c-2.6,0-5.5,0-8.6-.2,2.6-.6,5.5-1.2,8.6.2Z"/>
  <path class="st0" d="M1625.9,147.1c-1.1-1.1-2.4-2.4-3.7-4.1,1.1,1.1,2.4,2.4,3.7,4.1Z"/>
  <path class="st0" d="M890.1,826.8c-2-.6-4.1-1.4-6.6-2.4,1.9.6,4.2,1.4,6.6,2.4Z"/>
  <path class="st0" d="M1026.6,930.3c2.6,0,5.4.2,8.6.5-2.6,0-5.4-.2-8.6-.5Z"/>
  <path class="st0" d="M1451.4,789.5c.8-1.2,1.9-2.5,3.2-3.9-.8,1.2-1.9,2.5-3.2,3.9Z"/>
  <path class="st0" d="M846,882.4c1.7.6,3.6,1.4,5.7,2.4-1.7-.6-3.6-1.4-5.7-2.4Z"/>
  <path class="st0" d="M423.2,281.9c-.9,2.1-1.8,4.1-2.9,6.4-1-2.6.7-4.4,2.5-6.5h.4Z"/>
  <path class="st0" d="M1578.6,626.9c.8-2,1.8-4.1,3.2-6.3-.8,2-1.8,4.1-3.2,6.3Z"/>
  <path class="st0" d="M1953.9,283.8c-1.1,1.2-2.5,2.5-4.2,3.8,1.1-1.2,2.5-2.4,4.2-3.8Z"/>
  <path class="st0" d="M1922,326c-.6,2-1.4,4.1-2.4,6.5.6-1.9,1.4-4.1,2.4-6.5Z"/>
  <path class="st0" d="M1565.4,650.3c.7-1.6,1.6-3.3,2.7-5.2-.7,1.6-1.6,3.3-2.7,5.2Z"/>
  <path class="st0" d="M587.5,645.9c1.2,1.5,2.4,3.3,3.7,5.4-1.1-1.5-2.4-3.3-3.7-5.4Z"/>
  <path class="st0" d="M1947.4,469.4c1.5,1.1,3,2.4,4.6,4.1-2.3,0-4-1.3-4.6-4.1Z"/>
  <path class="st0" d="M259.3,304.7c1,1.6,1.9,3.4,2.9,5.6-2.1-.9-3.2-2.7-2.9-5.6Z"/>
  <path class="st0" d="M1837.6,271.4c-1.3-.5-2.7-1.2-4.4-2.2,1.9-.9,3.5-.2,4.4,2.2Z"/>
  <path class="st0" d="M2055.2,268.6c-1.5-.5-3.1-1.1-4.8-2,1.9-.7,3.6,0,4.8,2Z"/>
  <path class="st0" d="M1238,838.3c-1.8.9-4,1.8-6.6,2.8,1.8-.9,4-1.8,6.6-2.8Z"/>
  <path class="st0" d="M387.2,360.5c-.6,1.9-1.4,4-2.5,6.3-.5-2.3.6-4.3,2.5-6.3Z"/>
  <path class="st0" d="M1348,296c-1,1.9-2.3,3.9-3.9,6,.7-2.1,1.1-4.7,3.9-6Z"/>
  <path class="st0" d="M296.7,380.1c1.2,1.9,2.4,4.2,3.6,6.8-2.9-1-3-3.8-3.6-6.8Z"/>
  <path class="st0" d="M1495.2,745.8c.6-.8,1.4-1.8,2.4-2.9-.6.8-1.4,1.7-2.4,2.9Z"/>
  <path class="st0" d="M2066.1,273.4c-2.1-.8-4.3-1.9-6.7-3.2,2,.8,4.3,1.9,6.7,3.2Z"/>
  <path class="st0" d="M842.7,449.2c.8.7,1.7,1.8,2.6,3.1-.8-.8-1.7-1.8-2.6-3.1Z"/>
  <path class="st0" d="M1364.9,279c-.9.9-2.1,1.9-3.6,3,.2-1.8,1.2-2.9,3.6-3Z"/>
  <path class="st0" d="M1324,284.5c-1.2-.7-2.4-1.6-3.8-2.9,1.7,0,3.1.7,3.8,2.9Z"/>
  <path class="st0" d="M1925.7,318.4c-.5,1.2-1.2,2.4-2.2,3.8.5-1.1-.2-3.3,2.2-3.8Z"/>
  <path class="st0" d="M2018.7,498.7c1.7-.2,3.7-.4,6.1-.5-1.6,2-3.7.9-6.1.5Z"/>
  <path class="st0" d="M1917.4,337.4c-.3,1.7-.8,3.7-1.5,5.9.3-1.7.8-3.7,1.5-5.9Z"/>
  <path class="st0" d="M1388,838.3c1.2-1.1,2.7-2.3,4.5-3.6-1.2,1.1-2.7,2.4-4.5,3.6Z"/>
  <path class="st0" d="M604.3,178c1.1.7,2.3,1.7,3.5,2.9-1.6,0-3.4-.4-3.5-2.9Z"/>
  <path class="st0" d="M645.1,728.2c1.2,1.1,2.4,2.5,3.8,4.2-1.2-1.1-2.4-2.5-3.8-4.2Z"/>
  <path class="st0" d="M339.7,297.1c-.9-1.6-1.9-3.5-2.8-5.8.9,1.6,1.9,3.5,2.8,5.8Z"/>
  <path class="st0" d="M1400.4,265.3c-1.4.5-3.2,1-5.3,1.4,1.1-1.8,3-1.9,5.3-1.4Z"/>
  <path class="st0" d="M720.3,803c1.5.8,3.1,1.9,4.9,3.3-2.1.2-3.6-1.1-4.9-3.3Z"/>
  <path class="st0" d="M1480.8,670.1c-.8,1.4-1.9,2.8-3.3,4.4.8-1.3,1.9-2.8,3.3-4.4Z"/>
  <path class="st0" d="M1804.2,358.6c.5,1.9.8,4,1.1,6.6-.4-1.8-.9-4.1-1.1-6.6Z"/>
  <path class="st0" d="M2077.3,476.4c1.2-1.6,2.8-3.4,4.6-5.3-1.3,1.6-2.8,3.4-4.6,5.3Z"/>
  <path class="st0" d="M384.2,367.1c-.5,1.7-1.3,3.4-2.4,5.4.5-1.6,1.3-3.4,2.4-5.4Z"/>
  <path class="st0" d="M1265.8,265.5c-2.6.2-5.6.4-9.1.5,2.6-.2,5.7-.4,9.1-.5Z"/>
  <path class="st0" d="M255.5,297.4c.9,1.4,1.8,3.2,2.8,5.4-.9-1.4-1.8-3.2-2.8-5.4Z"/>
  <path class="st0" d="M2020.6,261.5c-.8.2-1.9.2-3.1.2.8-.2,1.9-.3,3.1-.2Z"/>
  <path class="st0" d="M1226,842.9c-1.6.6-3.6,1.2-5.8,1.8,1.6-.6,3.6-1.2,5.8-1.8Z"/>
  <path class="st0" d="M1443.8,269.7c-1.5-.3-3.3-.8-5.3-1.4,1.6,0,3.6-.4,5.3,1.4Z"/>
  <path class="st0" d="M1740.2,341c.6-.9,1.3-1.8,2.3-2.8-.5.9-1.4,1.9-2.3,2.8Z"/>
  <path class="st0" d="M1319.8,281.1c-1.4-.8-2.9-1.9-4.6-3.4,1.4.8,2.9,2,4.6,3.4Z"/>
  <path class="st0" d="M1078.6,868.3c-2.2,0-4.8.2-7.7.2,2.3,0,4.8-.2,7.7-.2Z"/>
  <path class="st0" d="M286.5,359.9c.9,1.2,1.8,2.7,2.7,4.6-.9-1.2-1.8-2.7-2.7-4.6Z"/>
  <path class="st0" d="M1011.8,929c2.1,0,4.6.2,7.4.5-2.1,0-4.6-.2-7.4-.5Z"/>
  <path class="st0" d="M244.3,274.1c.7,1.3,1.3,2.6,2,4.2-1.3-.4-2.4-1.3-2.1-3.6v-.7h0Z"/>
  <path class="st0" d="M1805.3,373.6c.2,1.3.3,2.9.3,4.9-2.1-1.2,0-3-.3-4.9Z"/>
  <path class="st0" d="M1501,739.1c.8-1.1,1.8-2.3,3.2-3.6-.8,1.1-1.8,2.3-3.2,3.6Z"/>
  <path class="st0" d="M1389.6,329c1.6-.3,3,.3,4,2.2-1.2-.5-2.5-1.2-4-2.2Z"/>
  <path class="st0" d="M1939.3,299c-.7,1.2-1.6,2.4-2.9,3.9-.9-2.3.8-3.1,2.9-3.9Z"/>
  <path class="st0" d="M606.1,675.9c1,1.2,1.9,2.8,3,4.7-.9-1.3-2-2.8-3-4.7Z"/>
  <path class="st0" d="M1559.3,571.7c-.5,1-1.3,1.9-2.3,2.9,0-1.3,0-2.9,2.3-2.9Z"/>
  <path class="st0" d="M410.5,309.3c-.6,1.6-1.3,3.4-2.3,5.5-.4-2,.7-3.7,2.3-5.5Z"/>
  <path class="st0" d="M2034,497.2c.4,0,.4.2.5.3-1.9.3-3.8.5-6,.6,1.5-.3,3.3-.6,5.5-.9h0Z"/>
  <path class="st0" d="M1928.7,446.9c.8.7,1.6,1.8,2.4,3-.8-.7-1.6-1.8-2.4-3Z"/>
  <path class="st0" d="M311.7,410.5c.8,1.2,1.7,2.7,2.7,4.5-2-.5-2.3-2.3-2.7-4.5Z"/>
  <path class="st0" d="M1595.4,586.6c-1.1-.5-2.4-1.3-3.9-2.3,1.1.5,2.4,1.3,3.9,2.3Z"/>
  <path class="st0" d="M883.1,823.9c-1.2-.3-2.7-1-4.4-1.8,1.6-.7,3,.2,4.4,1.8Z"/>
  <path class="st0" d="M1040.7,866.8c-1.5,0-3.3-.2-5.4-.5,1.5,0,3.3,0,5.4.5Z"/>
  <path class="st0" d="M1429,808.2c.8-.9,1.8-1.9,3.2-3.1-.8.9-1.8,1.9-3.2,3.1Z"/>
  <path class="st0" d="M1521.9,622.9c-.6,1.2-1.4,2.5-2.6,4,.6-1.1,1.4-2.5,2.6-4Z"/>
  <path class="st0" d="M1428,265.7c-1.4,0-2.9-.2-4.9-.5,1.5-2.5,3,0,4.9.5Z"/>
  <path class="st0" d="M308.8,405.7c.6.7,1.3,1.7,2,2.9-.6-.7-1.3-1.7-2-2.9Z"/>
  <path class="st0" d="M668.6,664.6c-1.1-.9-2.3-2.1-3.6-3.6,1.1.9,2.3,2.1,3.6,3.6Z"/>
  <path class="st0" d="M1490.1,660.2c-.5,1.1-1.4,2.4-2.6,3.8-.4.2-.7.2-.7.2,1-1.3,2-2.6,3.3-4.1h0Z"/>
  <path class="st0" d="M1447.7,792.4c.7-.9,1.8-1.8,3.1-2.8-.7.9-1.8,1.8-3.1,2.8Z"/>
  <path class="st0" d="M1743,338c.5-.9,1.3-1.9,2.3-3-.5.9-1.3,1.9-2.3,3Z"/>
  <path class="st0" d="M1440.1,710.1c-.6,1-1.5,2.1-2.7,3.2-.2-1.6.7-2.8,2.7-3.2Z"/>
  <path class="st0" d="M719.5,714.6c-1.1-.5-2.3-1.4-3.8-2.4,1.1.5,2.3,1.3,3.8,2.4Z"/>
  <path class="st0" d="M1377.6,844.9c1.1-.9,2.5-1.8,4.1-2.8-.4,1.9-2.1,2.4-4.1,2.8Z"/>
  <path class="st0" d="M951.3,849.4c-1.2,0-2.7-.4-4.3-.9,1.2,0,2.7.4,4.3.9Z"/>
  <path class="st0" d="M1384.2,841.2c.8-.9,1.9-1.8,3.2-2.8,0,1.8-1.3,2.5-3.2,2.8Z"/>
  <path class="st0" d="M1943.7,465.6c1.2.8,2.3,1.8,3.6,3.2-1.9.2-3.2-.9-3.6-3.2Z"/>
  <path class="st0" d="M1535.1,184.8c.8-1.2,1.9-2.4,3.3-3.7-.8,1.2-1.9,2.4-3.3,3.7Z"/>
  <path class="st0" d="M828.5,874.2c1.1.2,2.3.7,3.6,1.3-1.1-.2-2.3-.6-3.6-1.3Z"/>
  <path class="st0" d="M463.4,370.7c.5-1.6,1.2-3.3,2.1-5.3-.5,1.5-1.2,3.3-2.1,5.3Z"/>
  <path class="st0" d="M459.7,378.2c.5-1.6,1.2-3.3,2.1-5.3-.5,1.5-1.2,3.3-2.1,5.3Z"/>
  <path class="st0" d="M1942.6,295.2c-.6,1.1-1.5,2.2-2.7,3.5.6-1,1.5-2.2,2.7-3.5Z"/>
  <path class="st0" d="M470.9,355.8c.5-1.6,1.2-3.3,2.1-5.3-.5,1.5-1.2,3.3-2.1,5.3Z"/>
  <path class="st0" d="M444.7,408.1c.5-1.6,1.2-3.3,2.1-5.3-.5,1.5-1.2,3.3-2.1,5.3Z"/>
  <path class="st0" d="M1299,886.9c.8-.6,1.9-1.2,3.3-1.8,0,1.8-1.7,1.6-3.3,1.8Z"/>
  <path class="st0" d="M448.4,400.6c.5-1.6,1.2-3.3,2.1-5.3-.5,1.5-1.2,3.3-2.1,5.3Z"/>
  <path class="st0" d="M1849.2,277.1c-1.2-.5-2.5-1.2-4-2.3,1.2.5,2.5,1.2,4,2.3Z"/>
  <path class="st0" d="M452.2,393.2c.5-1.6,1.2-3.3,2.1-5.3-.5,1.5-1.2,3.3-2.1,5.3Z"/>
  <path class="st0" d="M1435.3,715.1c-.6.7-1.5,1.5-2.6,2.5.6-.7,1.5-1.5,2.6-2.5Z"/>
  <path class="st0" d="M467.1,363.2c.5-1.6,1.2-3.3,2.1-5.3-.5,1.5-1.2,3.3-2.1,5.3Z"/>
  <path class="st0" d="M455.9,385.7c.5-1.6,1.2-3.3,2.1-5.3-.5,1.5-1.2,3.3-2.1,5.3Z"/>
  <path class="st0" d="M1474.3,677.5c-.5.8-1.3,1.6-2.4,2.6.5-.8,1.3-1.6,2.4-2.6Z"/>
  <path class="st0" d="M1530.9,701.3c.8-1.3,2-2.6,3.4-4.2-.8,1.2-1.9,2.7-3.4,4.2Z"/>
  <path class="st0" d="M342.9,303.4c-.4-.2-.8-.6-1.3-1.3v-.8c2-.4,1.7.7,1.1,2.1h.2Z"/>
  <path class="st0" d="M957.9,919.7c1.4,0,3.1.4,5.1.8-1.4,0-3.1-.4-5.1-.8Z"/>
  <path class="st0" d="M2069.3,483c.7-.9,1.8-1.8,3.2-2.7.2,1.9-1.5,2.1-3.2,2.7Z"/>
  <path class="st0" d="M1781.3,264.7c-1.1.5-2.3.8-3.9,1.1,1-.5,1.7-3.1,3.9-1.1Z"/>
  <path class="st0" d="M437.4,423.3c-.2,0-.3-.2-.4-.5.7-1.8,1.5-3.3,2.4-5.1-.5,1.6-1.1,3.4-2,5.5h0Z"/>
  <path class="st0" d="M474.6,348.3c.5-1.6,1.2-3.3,2.1-5.3-.5,1.5-1.2,3.3-2.1,5.3Z"/>
  <path class="st0" d="M1066.5,868.2h-4.1,4.1Z"/>
  <path class="st0" d="M1048.1,867.1c-1.1.2-2.4.2-4,0,1.1,0,2.4-.2,4,0Z"/>
  <path class="st0" d="M441,415.6c.5-1.6,1.2-3.3,2.1-5.3-.5,1.5-1.2,3.3-2.1,5.3Z"/>
  <path class="st0" d="M349,486.4c.7,1,1.5,2.2,2.3,3.9-2.2,0-1.4-2.3-2.3-3.9Z"/>
  <path class="st0" d="M2049.7,493.4c1.5-.7,3.3-1.3,5.4-1.9-1.5.7-3.3,1.3-5.4,1.9Z"/>
  <path class="st0" d="M478.4,340.8c.5-1.6,1.2-3.3,2.1-5.3-.5,1.5-1.2,3.3-2.1,5.3Z"/>
  <path class="st0" d="M869.5,817.5c-.9-.3-2.1-.8-3.4-1.5.9.3,2,.8,3.4,1.5Z"/>
  <path class="st0" d="M1456.2,276.1c-1.2-.5-2.4-1.2-3.9-2.3,1.1.5,2.5,1.2,3.9,2.3Z"/>
  <path class="st0" d="M2073.1,480.2c.5-.8,1.2-1.7,2.3-2.7-.5.8-1.2,1.7-2.3,2.7Z"/>
  <path class="st0" d="M1462.7,778.5c.7-1,1.7-2,2.9-3.1-.7.9-1.7,2-2.9,3.1Z"/>
  <path class="st0" d="M776.8,844.2c1.2.6,2.5,1.5,4,2.7-1.2-.6-2.5-1.5-4-2.7Z"/>
  <path class="st0" d="M1242.9,836.3c-1,.6-2.4,1.2-4.1,1.9,1-.6,2.4-1.2,4.1-1.9Z"/>
  <path class="st0" d="M1564.2,567.8c-.7.5-1.5.7-2.6,1,0-1.8.6-2.7,2.6-1Z"/>
  <path class="st0" d="M1033.6,865.9c-1.4,0-3-.2-5-.5,1.3,0,3.1,0,5,.5Z"/>
  <path class="st0" d="M325.8,439.8c.6.6,1.2,1.5,1.7,2.8-.6-.6-1.2-1.6-1.7-2.8Z"/>
  <path class="st0" d="M1609.6,132.2c-1.1-.4-2.2-1.2-3.6-2.2,1,.5,2.3,1.2,3.6,2.2Z"/>
  <path class="st0" d="M641.7,633.4c-.7-.5-1.3-1.2-2-2.3.7.5,1.3,1.3,2,2.3Z"/>
  <path class="st0" d="M1558.9,661.5c.5-1.2,1.1-2.5,2.1-4-.4,1.2-1.2,2.5-2.1,4Z"/>
  <path class="st0" d="M627.8,137.9c-.8-.5-1.8-1.3-3-2.3.9.5,1.8,1.3,3,2.3Z"/>
  <path class="st0" d="M314.5,416.5c.9,1.2,1.8,2.7,2.7,4.6-.9-1.2-1.8-2.7-2.7-4.6Z"/>
  <path class="st0" d="M611.9,126.9c-1.2-.3-2.6-.9-4.1-1.6,1.2.4,3.2-.7,4.1,1.6Z"/>
  <path class="st0" d="M263.9,314.6c.7.9,1.3,2.1,1.9,3.7-.6-.9-1.3-2.2-1.9-3.7Z"/>
  <path class="st0" d="M1257.7,336.5c.8.6,1.6,1.5,2.6,2.8-.8-.6-1.6-1.5-2.6-2.8Z"/>
  <path class="st0" d="M1852.5,279.9c-.9-.5-1.9-1.2-3-2.3.9.5,1.9,1.2,3,2.3Z"/>
  <path class="st0" d="M1370.6,767.1c-.6.6-1.3,1.3-2.4,1.9.5-.6,1.4-1.3,2.4-1.9Z"/>
  <path class="st0" d="M484.4,327.7c.3-1,.9-2.1,1.8-3.4-.3,1-.9,2.1-1.8,3.4Z"/>
  <path class="st0" d="M426.5,274.3c-.2.9-.7,1.9-1.4,3.2.2-.8.7-1.9,1.4-3.2Z"/>
  <path class="st0" d="M1591.2,583.8c-.9-.3-2.1-.7-3.4-1.5.9.2,2,.8,3.4,1.5Z"/>
  <path class="st0" d="M663.1,748.9c.8.5,1.7,1.3,2.7,2.3-.8-.5-1.7-1.2-2.7-2.3Z"/>
  <path class="st0" d="M1269.5,825.2c-1,.6-2.4,1.3-4.1,1.9,1-.6,2.4-1.3,4.1-1.9Z"/>
  <path class="st0" d="M1753.4,275.5c-.4.4-1.1.8-2,1.1.4-.4,1.1-.8,2-1.1Z"/>
  <path class="st0" d="M327.5,443.2c.6.8,1.3,2,2,3.5-.6-.8-1.3-2-2-3.5Z"/>
  <path class="st0" d="M1242.7,908.2c1-.6,2.3-1.1,4-1.7-1,.5-2.3,1.1-4,1.7Z"/>
  <path class="st0" d="M893.8,829.1c-1-.4-2.2-1-3.5-1.9,1,.4,2.2,1,3.5,1.9Z"/>
  <path class="st0" d="M1395.4,832.7c.7-.6,1.8-1.3,3.1-1.9-.7.6-1.8,1.3-3.1,1.9Z"/>
  <path class="st0" d="M1940.7,462.7c.8.5,1.8,1.3,2.9,2.4-.8-.5-1.8-1.3-2.9-2.4Z"/>
  <path class="st0" d="M1919.2,333.2c-.2,1-.7,2.3-1.4,3.8.2-1.1.7-2.3,1.4-3.8Z"/>
  <path class="st0" d="M1289.8,890.7c.9-.6,2.1-1.2,3.6-1.8-.9.6-2.1,1.2-3.6,1.8Z"/>
  <path class="st0" d="M920.2,498h2.3-2.3Z"/>
  <path class="st0" d="M1302.7,885.1c.6-.4,1.3-.7,2.4-1.1.2,1.9-1.2,1-2.4,1.1Z"/>
  <path class="st0" d="M926.8,841.8c-1.2-.3-2.7-.7-4.4-1.4,1.2.3,2.7.7,4.4,1.4Z"/>
  <path class="st0" d="M1305.6,884.1c.7-.6,1.8-1.2,3.2-1.9-.8.6-1.8,1.2-3.2,1.9Z"/>
  <path class="st0" d="M1602.1,127.5c-.9-.2-1.8-.7-3-1.3,1.2-.8,2.1,0,3,1.3Z"/>
  <path class="st0" d="M647.3,163.5c-.8-.8-1.5-2-2.3-3.5.7.8,1.5,2,2.3,3.5Z"/>
  <path class="st0" d="M641.8,724.4c.7.6,1.6,1.5,2.6,2.8-.8-.6-1.6-1.5-2.6-2.8Z"/>
  <path class="st0" d="M1449.6,272.2c-.9-.2-2-.6-3.3-1.2.9.2,2,.6,3.3,1.2Z"/>
  <path class="st0" d="M332.3,280.8c-.6-.8-1.2-2.1-1.9-3.6.6.9,1.2,2,1.9,3.6Z"/>
  <path class="st0" d="M1433.7,266.8c-1,0-2.3-.3-3.8-.7,1,0,2.3.3,3.8.7Z"/>
  <path class="st0" d="M1473.6,294c-.7-.5-1.4-1.2-2.2-2.3.6.5,1.4,1.2,2.2,2.3Z"/>
  <path class="st0" d="M1576.7,631c.2-1.1.7-2.3,1.4-3.8-.2,1.1-.7,2.3-1.4,3.8Z"/>
  <path class="st0" d="M280.8,348.3c.6.9,1.1,2.1,1.8,3.6-.5-.9-1.1-2.1-1.8-3.6Z"/>
  <path class="st0" d="M2069.4,276.1c-.9-.4-1.9-1.2-3.1-2.2.9.4,1.9,1.2,3.1,2.2Z"/>
  <path class="st0" d="M729.6,810.3c.7.3,1.6.8,2.6,1.6-.7-.3-1.6-.9-2.6-1.6Z"/>
  <path class="st0" d="M1736.4,348.3c0-.8.3-1.8.7-3.1,0,.8-.3,1.8-.7,3.1Z"/>
  <path class="st0" d="M1738.4,343.8c.2-.8.7-1.7,1.4-2.8-.2.8-.7,1.7-1.4,2.8Z"/>
  <path class="st0" d="M1612.7,134.1c-.7-.2-1.7-.7-2.9-1.5.7.2,1.7.7,2.9,1.5Z"/>
  <path class="st0" d="M859.6,888.8c.4,0,1,.3,1.7.7-.4,0-1-.3-1.7-.7Z"/>
  <path class="st0" d="M511.1,274.5c.2-.7.6-1.5,1.3-2.5-.2.7-.6,1.5-1.3,2.5Z"/>
  <path class="st0" d="M1617.5,137.8c-.7-.2-1.6-.7-2.5-1.4.7.2,1.6.7,2.5,1.4Z"/>
  <path class="st0" d="M864.3,473.9c.7.2,1.6.7,2.5,1.4-.7-.2-1.5-.7-2.5-1.4Z"/>
  <path class="st0" d="M1505.7,734.4c.2-.7.7-1.6,1.4-2.5-.2.7-.6,1.6-1.4,2.5Z"/>
  <path class="st0" d="M488.6,319.4c.2-.7.7-1.6,1.4-2.6-.2.7-.7,1.6-1.4,2.6Z"/>
  <path class="st0" d="M919.5,839.8c-.6-.2-1.2-.7-2-1.3.6.2,1.2.7,2,1.3Z"/>
  <path class="st0" d="M503.6,289.4c.2-.7.6-1.5,1.3-2.5-.2.7-.6,1.5-1.3,2.5Z"/>
  <path class="st0" d="M335.9,288.3c-.5-.5-1-1.3-1.6-2.4.5.5,1,1.3,1.6,2.4Z"/>
  <path class="st0" d="M854.6,810c-.8-.2-1.7-.7-2.9-1.4.8.2,1.7.7,2.9,1.4Z"/>
  <path class="st0" d="M609,182.3c.6.4,1.2,1.2,1.9,2.2-.6-.4-1.2-1.2-1.9-2.2Z"/>
  <path class="st0" d="M1534.1,606.5c-.2.8-.6,1.6-1.4,2.6.2-.7.6-1.6,1.4-2.6Z"/>
  <path class="st0" d="M1978.4,269c-.7.6-1.7,1.1-3.1,1.7.7-.5,1.7-1.1,3.1-1.7Z"/>
  <path class="st0" d="M1396.6,747.5c-.5.6-1.4,1.2-2.5,1.9.5-.6,1.4-1.2,2.5-1.9Z"/>
  <path class="st0" d="M1253.3,266c-.4,0-.8.2-1.5.2.4,0,.8-.2,1.5-.2Z"/>
  <path class="st0" d="M492.4,311.9c.2-.7.7-1.6,1.4-2.6-.2.7-.7,1.6-1.4,2.6Z"/>
  <path class="st0" d="M374.2,374.4c-.4-.5-.9-1.3-1.5-2.4.4.5.9,1.3,1.5,2.4Z"/>
  <path class="st0" d="M1317.8,878.5c.4-.5,1.1-.9,2.1-1.3-.4.4-1.1.9-2.1,1.3Z"/>
  <path class="st0" d="M630.4,710.1c.7.5,1.4,1.4,2.3,2.6-.7-.5-1.5-1.4-2.3-2.6Z"/>
  <path class="st0" d="M625.1,180.2c.5-.6,1.2-1.2,2.3-1.8-.5.6-1.2,1.2-2.3,1.8Z"/>
  <path class="st0" d="M381.6,372.8c-.3.7-.8,1.5-1.4,2.5.3-.7.8-1.5,1.4-2.5Z"/>
  <path class="st0" d="M496.1,304.4c.2-.7.7-1.6,1.4-2.6-.2.7-.7,1.6-1.4,2.6Z"/>
  <path class="st0" d="M1541.3,178.4c.5-.6,1.4-1.3,2.6-1.9-.5.6-1.4,1.3-2.6,1.9Z"/>
  <path class="st0" d="M1843.2,273.3c-.9,0-1.9-.6-3.3-1.2.8,0,2,.5,3.3,1.2Z"/>
  <path class="st0" d="M631.2,176.5c.7-.6,1.7-1.2,3-1.8-.7.6-1.7,1.2-3,1.8Z"/>
  <path class="st0" d="M619.2,695.1c.6.5,1.2,1.4,1.9,2.6-.6-.5-1.2-1.4-1.9-2.6Z"/>
  <path class="st0" d="M715.6,799.2c.7.2,1.5.7,2.5,1.5-.7-.2-1.5-.7-2.5-1.5Z"/>
  <path class="st0" d="M423.4,281.7c-.2.2-.3,0-.4,0,.4-1.1.9-2.1,1.6-3.4-.2.9-.6,2.1-1.2,3.5h0Z"/>
  <path class="st0" d="M1352.6,339.1c-.3.2-.3.3-.4.3.7-1.1,1.4-2.2,2.4-3.4-.4.9-1,1.9-2,3.1h0Z"/>
  <path class="st0" d="M1455.2,785.3c.5-.7,1.2-1.5,2.3-2.5-.5.7-1.2,1.5-2.3,2.5Z"/>
  <path class="st0" d="M277.1,340.8c.5.6,1.1,1.5,1.8,2.7-.5-.6-1.1-1.5-1.8-2.7Z"/>
  <path class="st0" d="M1585.7,580.9c-.7-.3-1.6-.9-2.6-1.7.7.3,1.6.8,2.6,1.7Z"/>
  <path class="st0" d="M1444.9,794.4c.4-.6,1.2-1.2,2.2-1.9-.4.6-1.2,1.2-2.2,1.9Z"/>
  <path class="st0" d="M1400.3,744.7c-.4.6-1.2,1.2-2.2,1.9.4-.6,1.2-1.3,2.2-1.9Z"/>
  <path class="st0" d="M1597.3,125.6c-.6-.2-1.3-.7-2.1-1.3.6.2,1.3.7,2.1,1.3Z"/>
  <path class="st0" d="M1572.2,572.5c-.5,0-1.1-.2-2-.6.5,0,1.2.2,2,.6Z"/>
  <path class="st0" d="M664.9,660.5c-.5-.3-1.1-.8-1.7-1.5.5.3,1.1.8,1.7,1.5Z"/>
  <path class="st0" d="M274.5,335.2c.4.7,1,1.6,1.5,2.8-.4-.7-1-1.6-1.5-2.8Z"/>
  <path class="st0" d="M1736.9,289.6c-.2.7-.7,1.5-1.4,2.5.2-.7.7-1.5,1.4-2.5Z"/>
  <path class="st0" d="M1498.1,742.8c.2-.7.7-1.5,1.5-2.5-.2.7-.7,1.5-1.5,2.5Z"/>
  <path class="st0" d="M667.8,753.6c.7.4,1.4,1.2,2.2,2.2-.6-.4-1.4-1.2-2.2-2.2Z"/>
  <path class="st0" d="M1935.4,303.5c-.3.8-.9,1.6-1.8,2.6.3-.7.9-1.7,1.8-2.6Z"/>
  <path class="st0" d="M1406.9,739.2c-.4.7-1.2,1.4-2.2,2.2.4-.6,1.2-1.4,2.2-2.2Z"/>
  <path class="st0" d="M1356.2,334.4c.4-.6,1.2-1.2,2.2-1.8-.4.6-1.2,1.2-2.2,1.8Z"/>
  <path class="st0" d="M1482.1,318.8c0-.3.4-.3.6-.2.3,1.1.4,2.3.4,3.6-.4-.8-.7-2-1-3.4h0Z"/>
  <path class="st0" d="M654.7,739.5c.8.6,1.7,1.5,2.7,2.7-.8-.6-1.7-1.5-2.7-2.7Z"/>
  <path class="st0" d="M507.3,282c.2-.7.6-1.5,1.3-2.5-.2.7-.6,1.5-1.3,2.5Z"/>
  <path class="st0" d="M652.8,737.5c.6.3,1.2.8,1.8,1.5-1.1.5-2,.2-1.8-1.5Z"/>
  <path class="st0" d="M1529.3,612.9c0,.6-.5,1.2-1.2,1.9,0-.6.5-1.3,1.2-1.9Z"/>
  <path class="st0" d="M1497.6,652.3c-.3.5-.8,1.1-1.7,1.7.3-.5.8-1.1,1.7-1.7Z"/>
  <path class="st0" d="M1337.1,868.3c.3-.4.8-.6,1.7-.9-.3.3-.9.7-1.7.9Z"/>
  <path class="st0" d="M594.7,568.4c-.4,0-.9,0-1.9-.4.5-1.8,1.2-1.4,1.9.4Z"/>
  <path class="st0" d="M604.2,672.7c.6.6,1.2,1.5,1.8,2.7-.6-.6-1.2-1.5-1.8-2.7h0Z"/>
  <path class="st0" d="M1614.8,135.9c-.6-.1-1.2-.5-1.9-1.2.6.1,1.2.5,1.9,1.2Z"/>
  <path class="st0" d="M1477.1,674.7c-.2.5-.6,1.1-1.3,1.8.2-.5.6-1.1,1.3-1.8Z"/>
  <path class="st0" d="M647.5,167.1c0-.5.2-1.1.6-2,1.2.7.8,1.4-.6,2Z"/>
  <path class="st0" d="M1923.1,322.5c0,.8-.3,1.8-.7,3.2,0-.8.3-1.8.7-3.2Z"/>
  <path class="st0" d="M941.9,498.2c.4,0,.9-.2,1.7-.3-.4,0-.9.2-1.7.3Z"/>
  <path class="st0" d="M663.1,658.5c-.5-.3-1.1-.8-1.8-1.7.5.3,1.1.8,1.8,1.7Z"/>
  <path class="st0" d="M710.7,794.6c.6.4,1.1,1,1.8,1.9-.5-.4-1.2-1-1.8-1.9Z"/>
  <path class="st0" d="M1949.1,287.8c-.2.5-.6,1.2-1.3,2.1.2-.5.6-1.2,1.3-2.1Z"/>
  <path class="st0" d="M857.7,292.5c-.3.8-.9,1.8-1.9,2.9.3-.8.9-1.8,1.9-2.9Z"/>
  <path class="st0" d="M1594.9,123.9c-.8,0-1.9-.2-3.3-.6.8,0,1.9.2,3.3.6Z"/>
  <path class="st0" d="M1282.1,818.7c-.4.5-1.1,1.1-2.2,1.7.4-.5,1.1-1.1,2.2-1.7Z"/>
  <path class="st0" d="M318.9,425.1c.4.5.8,1.4,1.3,2.5-.4-.5-.8-1.4-1.3-2.5Z"/>
  <path class="st0" d="M1738.8,287.7c-.2.5-.6,1.1-1.4,1.8.2-.5.6-1.1,1.4-1.8Z"/>
  <path class="st0" d="M641.4,170.6c.3-.4,1-.9,1.9-1.5-.3.4-1,.9-1.9,1.5Z"/>
  <path class="st0" d="M1619.3,139.7c-.5-.2-1.1-.6-1.8-1.4.5.2,1.1.6,1.8,1.4Z"/>
  <path class="st0" d="M1350.8,292.3c-.2.6-.6,1.1-1.3,1.8.2-.5.6-1.2,1.3-1.8Z"/>
  <path class="st0" d="M681.7,334.7c.4.3,1.1.9,1.8,1.7-.4-.3-1-.9-1.8-1.7Z"/>
  <path class="st0" d="M856.5,466.3c.5.2,1.1.7,1.9,1.5-.5-.2-1.1-.7-1.9-1.5Z"/>
  <path class="st0" d="M860.5,470.2c.5.2,1.2.7,2.1,1.4-.5-.2-1.2-.7-2.1-1.4Z"/>
  <path class="st0" d="M993.4,472.7c.2-.5.6-1.2,1.3-2.1-.2.5-.6,1.2-1.3,2.1Z"/>
  <path class="st0" d="M482.1,333.3c0-.6.2-1.4.8-2.4.4-.3.8-.3.8-.3-.5.8-.9,1.7-1.6,2.7h0Z"/>
  <path class="st0" d="M1409.7,736.4c-.2.5-.6,1.1-1.4,1.8.2-.5.6-1.1,1.4-1.8Z"/>
  <path class="st0" d="M997.6,287.7h.6c0,.5-.4,1-.6,1.5-.3-.3-.5-.6-.8-1.2.2-.3.4-.2.8-.3Z"/>
  <path class="st0" d="M1412.1,734.5c-.3.6-.9,1.1-1.8,1.8.3-.5.9-1.1,1.8-1.8Z"/>
  <path class="st0" d="M914.7,837.6l-.2-.2c.9,0,1.7.2,2.8.6-.7,0-1.5,0-2.6-.4h0Z"/>
  <path class="st0" d="M1776.5,265.7c-.4.3-1,.4-1.9.5.4-.3,1-.5,1.9-.5Z"/>
  <path class="st0" d="M499.8,296.9c.2-.7.7-1.6,1.4-2.6-.2.7-.7,1.6-1.4,2.6Z"/>
  <path class="st0" d="M1539.3,180.3c.2-.5.7-1.1,1.4-1.9-.2.5-.7,1.2-1.4,1.9Z"/>
  <path class="st0" d="M375.2,377.2c-.3-.5-.6-1.3-.9-2.3.2.5.6,1.3.9,2.3Z"/>
  <path class="st0" d="M593,655.3c.5.3,1.1.9,1.7,1.8-.5-.3-1.1-.9-1.7-1.8Z"/>
  <path class="st0" d="M635.1,145.3c-.6-.2-1.2-.8-1.9-1.6.5.2,1.2.8,1.9,1.6Z"/>
  <path class="st0" d="M644.7,637c-.5-.2-1.2-.7-2-1.4.5.2,1.2.7,2,1.4Z"/>
  <path class="st0" d="M1374.3,764.1c-.2.5-.7,1.1-1.4,1.9.2-.5.7-1.1,1.4-1.9Z"/>
  <path class="st0" d="M1531.3,610.7c-.2.5-.6,1.2-1.4,2,.2-.5.6-1.2,1.4-2Z"/>
  <path class="st0" d="M1564.4,652.2c0-.4.2-1,.6-1.7,0,.4-.2,1-.6,1.7Z"/>
  <path class="st0" d="M1381.4,758.7c0,.4-.4.8-1,1.3,0-.3.5-.9,1-1.3Z"/>
  <path class="st0" d="M665.9,751.7c.5.2,1.1.7,1.7,1.4-.5-.2-1.1-.6-1.7-1.4Z"/>
  <path class="st0" d="M591.7,652.9c.5.3.9,1,1.3,1.9-.4-.3-.9-1-1.3-1.9Z"/>
  <path class="st0" d="M757.9,747.2c-.6-.2-1.3-.8-2.1-1.7.6.2,1.3.8,2.1,1.7Z"/>
  <path class="st0" d="M1933.2,306.4c-.2.5-.7,1-1.4,1.7.2-.5.7-1,1.4-1.7Z"/>
  <path class="st0" d="M670.9,666.9c-.5-.3-1.2-.9-2.1-1.8.5.3,1.2.9,2.1,1.8Z"/>
  <path class="st0" d="M1944.5,293.4c-.3.4-.8.9-1.5,1.6.3-.4.8-.9,1.5-1.6Z"/>
  <path class="st0" d="M715.6,711.7c-.5-.2-1.1-.6-1.8-1.3.5.2,1.1.6,1.8,1.3Z"/>
  <path class="st0" d="M1442.4,708.3c-.3.5-.9,1.1-1.8,1.8.3-.5.9-1.1,1.8-1.8Z"/>
  <path class="st0" d="M341.8,301c0,.3-.2.7-.3.8-.3-.5-.6-1.2-.9-2.1.4,0,.8.5,1.2,1.3h0Z"/>
  <path class="st0" d="M2059,269.9c-.2,0-.6-.3-1.1-.6.2,0,.6.3,1.1.6Z"/>
  <path class="st0" d="M858.6,468.3c.4.2,1,.7,1.7,1.4-.4-.2-1-.7-1.7-1.4Z"/>
  <path class="st0" d="M1314,880.4c.4-.4,1.1-.8,2.2-1.1-.4.4-1.1.7-2.2,1.1Z"/>
  <path class="st0" d="M1294,888.8c.6-.4,1.5-.8,2.9-1.2-.6.4-1.5.8-2.9,1.2Z"/>
  <path class="st0" d="M1981.7,268c-.5.3-1.3.6-2.5,1,.5-.3,1.3-.7,2.5-1Z"/>
  <path class="st0" d="M1751.9,330.7c.4-.3,1.1-.6,2.2-.9-.4.3-1.1.6-2.2.9Z"/>
  <path class="st0" d="M1574.4,573.5c-.5,0-1.2,0-2-.6.5,0,1.2,0,2,.6Z"/>
  <path class="st0" d="M1022.2,929.9h1.6-1.6Z"/>
  <path class="st0" d="M321.9,431c.3.5.7,1.4,1,2.6-.3-.5-.7-1.4-1-2.6Z"/>
  <path class="st0" d="M623.6,181c.2-.3.5-.5,1-.7-.1.2-.5.5-1,.7Z"/>
  <path class="st0" d="M317.2,421.6c.3.4.6,1.1,1,2-.3-.4-.7-1.1-1-2Z"/>
  <path class="st0" d="M2025.5,261.9h-1.5,1.5Z"/>
  <path class="st0" d="M324.7,436.6c.3.5.7,1.4,1,2.6-.3-.5-.7-1.4-1-2.6Z"/>
  <path class="st0" d="M1346.7,350.6c0-.7.2-1.6.6-2.8,0,.6-.2,1.6-.6,2.8Z"/>
  <path class="st0" d="M1552.9,121.2c-.3,0-.9.2-1.5.2.3,0,.8-.2,1.5-.2Z"/>
  <path class="st0" d="M1088.2,932.7c.4-.3,1-.5,1.9-.7-.3.3-1,.6-1.9.7Z"/>
  <path class="st0" d="M1732,363.4c0-.6,0-1.4.2-2.5,0,.6,0,1.4-.2,2.5Z"/>
  <path class="st0" d="M973.8,488.6c.3-.5.9-1,1.8-1.7-.3.5-.9,1-1.8,1.7Z"/>
  <path class="st0" d="M853.9,462.8c.2.2.5.6.8,1.3-.2-.2-.5-.6-.8-1.3Z"/>
  <path class="st0" d="M841.6,446.9c.3.2.7.8,1,1.7-.3-.2-.7-.8-1-1.7Z"/>
  <path class="st0" d="M658.4,744.2c.4,0,.9.5,1.4,1.2-.4,0-.9-.5-1.4-1.2Z"/>
  <path class="st0" d="M397.9,336.6c.1-.3.3-.2.4-.2,0,.5-.2.9-.5,1.6,0-.2,0-.6.1-1.3h0Z"/>
  <path class="st0" d="M549.8,125c-.2.2-.6.4-1.3.7.2-.2.6-.5,1.3-.7Z"/>
  <path class="st0" d="M551.7,124.1c-.2.3-.7.6-1.4.9.2-.3.7-.6,1.4-.9Z"/>
  <path class="st0" d="M862.8,472.1c.3,0,.8.6,1.3,1.3-.3,0-.8-.6-1.3-1.3Z"/>
  <path class="st0" d="M1247.1,834.5c-.2.3-.8.6-1.7.9.2-.3.8-.6,1.7-.9Z"/>
  <path class="st0" d="M867.1,475.7c.2,0,.6.3,1,.7-.2,0-.5-.3-1-.7Z"/>
  <path class="st0" d="M611,185c.3,0,.8.4,1.5,1-.3,0-.8-.4-1.5-1Z"/>
  <path class="st0" d="M982.6,276.3c-.3,0-.8-.3-1.5-.7.3,0,.8.3,1.5.7Z"/>
  <path class="st0" d="M1230.7,841c-.3.3-.9.6-1.9.9.3-.3.9-.6,1.9-.9Z"/>
  <path class="st0" d="M1387.6,328.1c.4,0,.9,0,1.7.5-.4,0-.9,0-1.7-.5Z"/>
  <path class="st0" d="M1382.3,842.1c.2-.3.6-.6,1.3-.9-.2.3-.6.6-1.3.9Z"/>
  <path class="st0" d="M1422.1,727c-.3.2-.6.4-1.2.8,0-.4.3-1,.9-1.4.3.3.3.4.3.6h0Z"/>
  <path class="st0" d="M1424.4,725.1c0,.3-.5.6-1.1.9,0-.3.5-.6,1.1-.9Z"/>
  <path class="st0" d="M1349,294.3c0,.4,0,.9-.5,1.6,0-.4,0-.9.5-1.6Z"/>
  <path class="st0" d="M1279.3,820.4c-.3.3-1,.7-2,1,.3-.3,1-.7,2-1Z"/>
  <path class="st0" d="M725.9,807.2c.4,0,.9.4,1.6.9-.4,0-.9-.3-1.6-.9Z"/>
  <path class="st0" d="M1427.1,809.6c.2-.3.6-.8,1.3-1.3,0,.3-.6.7-1.3,1.3Z"/>
  <path class="st0" d="M330.4,276.6c-.3-.3-.5-.9-.9-1.8.2.3.6.9.9,1.8Z"/>
  <path class="st0" d="M709,793.3c.5,0,1,.3,1.7.9-.4,0-1-.3-1.7-.9Z"/>
  <path class="st0" d="M279.8,345.9c.3.2.6.8.9,1.7-.3-.3-.6-.8-.9-1.7Z"/>
  <path class="st0" d="M502.6,291.6c0-.3.2-.9.6-1.8,0,.3-.2.9-.6,1.8Z"/>
  <path class="st0" d="M501.6,293.9c0-.3.2-.9.5-1.8,0,.3-.2.9-.5,1.8Z"/>
  <path class="st0" d="M278.9,344c.3.2.5.7.9,1.4-.2-.2-.6-.6-.9-1.4Z"/>
  <path class="st0" d="M865.8,815.6c-.3,0-.9-.2-1.6-.5.3,0,.9.2,1.6.5Z"/>
  <path class="st0" d="M336.9,290.6c-.3-.2-.6-.8-.9-1.7.3.2.6.8.9,1.7Z"/>
  <path class="st0" d="M1366.8,770c-.2.3-.6.6-1.2,1,.2-.2.6-.6,1.2-1Z"/>
  <path class="st0" d="M840.7,445c.3.2.6.6.9,1.4-.3-.2-.6-.6-.9-1.4Z"/>
  <path class="st0" d="M1372.3,766.1c0,.4-.6.7-1.3,1,.2-.4.6-.7,1.3-1Z"/>
  <path class="st0" d="M320.1,428.1c.3.2.6.6.9,1.4-.3-.2-.6-.6-.9-1.4Z"/>
  <path class="st0" d="M1007.9,928.4c.4-.2,1.2,0,2.2.2-.4,0-1.2,0-2.2-.2Z"/>
  <path class="st0" d="M510.1,276.6c0-.3.2-.9.6-1.8,0,.3-.2.9-.6,1.8Z"/>
  <path class="st0" d="M1275.5,822.4c-.2.3-.8.6-1.7.9.2-.3.8-.6,1.7-.9Z"/>
  <path class="st0" d="M1437.3,267.7c-.4,0-1,0-1.9-.4.4,0,1,0,1.9.4Z"/>
  <path class="st0" d="M397.4,338.3c0,.4-.2,1-.5,1.9,0-.4.1-1,.5-1.9Z"/>
  <path class="st0" d="M761.2,749.6c-.4,0-.9-.4-1.6-.9.3,0,.9.3,1.6.9Z"/>
  <path class="st0" d="M483.8,330.5c0,.2-.6.2-.8.2,0-.3.1-.7.5-1.2.3,0,.3.5.3,1.1h0Z"/>
  <path class="st0" d="M1273.3,823.3c-.2.3-.7.6-1.4.9.2-.3.7-.6,1.4-.9Z"/>
  <path class="st0" d="M1271.4,824.2c-.2.2-.7.5-1.4.9.2-.2.7-.5,1.4-.9Z"/>
  <path class="st0" d="M276.1,338.5c.3.2.6.8.9,1.7-.3-.2-.6-.8-.9-1.7Z"/>
  <path class="st0" d="M494.2,309c0-.4.2-1,.6-1.9,0,.4-.2,1-.6,1.9Z"/>
  <path class="st0" d="M334,284.6c-.2-.3-.5-.9-.8-1.8.2.3.5.9.8,1.8Z"/>
  <path class="st0" d="M487.6,321.6c0-.4.2-1,.6-1.9,0,.4-.2,1-.6,1.9Z"/>
  <path class="st0" d="M592.1,568c-.3.4-1,.7-2,1.1.3-.3.9-.7,2-1.1Z"/>
  <path class="st0" d="M506.3,284.1c0-.3.2-.9.6-1.8,0,.3-.2.9-.6,1.8Z"/>
  <path class="st0" d="M644.6,158.8c-.5-.2-.9-.7-1.4-1.7.4.2.9.7,1.4,1.7Z"/>
  <path class="st0" d="M495.1,306.6c0-.4.2-1,.6-1.9,0,.4-.2,1-.6,1.9Z"/>
  <path class="st0" d="M416.6,295.5c.1-.3.3-.2.4-.2,0,.5-.2.9-.5,1.6,0-.2,0-.6.1-1.3h0Z"/>
  <path class="st0" d="M1561.6,657.1c0-.4.2-1,.6-1.8,0,.4-.2,1-.6,1.8Z"/>
  <path class="st0" d="M1578.5,576.3c-.4,0-1-.4-1.9-1,.4,0,1,.4,1.9,1Z"/>
  <path class="st0" d="M1587.5,581.8c-.4,0-.9-.2-1.6-.6.3,0,.9.2,1.6.6Z"/>
  <path class="st0" d="M406.8,317.5c0,.3-.1.6-.5,1.2,0-.2.1-.7.5-1.2Z"/>
  <path class="st0" d="M624.6,135.1c-.4,0-.9-.2-1.7-.6.4,0,.9.2,1.7.6Z"/>
  <path class="st0" d="M407.8,315.5c0,.4-.2,1-.6,1.9,0-.4.2-1,.6-1.9Z"/>
  <path class="st0" d="M1230.3,272.7c-.2.3-.6.6-1.4.9.2-.3.6-.6,1.4-.9Z"/>
  <path class="st0" d="M1566.3,568.9c-.3,0-1-.2-1.8-.6.4,0,1,.2,1.8.6Z"/>
  <path class="st0" d="M586.4,643.7c.4.2.7.8,1,1.7-.3-.2-.7-.8-1-1.7Z"/>
  <path class="st0" d="M1572.1,637.7c0-.4.5-1,1.2-1.7,0,.4-.5,1-1.2,1.7Z"/>
  <path class="st0" d="M509.1,279c0-.3.2-.9.5-1.8,0,.3-.2.9-.5,1.8Z"/>
  <path class="st0" d="M1573.7,635.6c0-.4.2-1,.6-1.8,0,.4-.2,1-.6,1.8Z"/>
  <path class="st0" d="M642.7,635.1c-.3-.2-.6-.6-1-1.3.3.2.7.6,1,1.3Z"/>
  <path class="st0" d="M1536.9,602.8c0,.4-.3,1-.9,1.7,0-.4.3-1,.9-1.7Z"/>
  <path class="st0" d="M1452,273.4c-.4,0-.9-.2-1.7-.6.3,0,1,.2,1.7.6Z"/>
  <path class="st0" d="M1535.5,604.7c0,.4-.3.9-.9,1.6,0-.4.3-.9.9-1.6Z"/>
  <path class="st0" d="M639.5,630.5c-.3,0-.8-.4-1.5-1,.3,0,.8.4,1.5,1Z"/>
  <path class="st0" d="M490.4,316.4c0-.4.2-1,.6-1.9,0,.4-.2,1-.6,1.9Z"/>
  <path class="st0" d="M491.4,314.1c0-.4.2-1,.6-1.9,0,.4-.2,1-.6,1.9Z"/>
  <path class="st0" d="M1582.3,620.4c0-.4,0-1,.4-1.7,0,.4,0,1-.4,1.7Z"/>
  <path class="st0" d="M1583.2,618.4c0-.4.2-1,.6-1.9,0,.4-.2,1-.6,1.9Z"/>
  <path class="st0" d="M517.2,151c0,.3-.2.9-.7,1.8,0-.3.3-.9.7-1.8Z"/>
  <path class="st0" d="M627.9,178.4c.2-.3.6-.6,1.4-.9-.2.3-.6.6-1.4.9Z"/>
  <path class="st0" d="M416.1,297.2c0,.4-.2,1-.5,1.9,0-.4.1-1,.5-1.9Z"/>
  <path class="st0" d="M929.4,842.7c-.4,0-1,0-1.9-.4.4,0,1,0,1.9.4Z"/>
  <path class="st0" d="M636.9,148c-.3-.2-.6-.6-.9-1.3.3.2.6.6.9,1.3Z"/>
  <path class="st0" d="M498.8,299.2c0-.4.2-1,.6-1.9,0,.4-.2,1-.6,1.9Z"/>
  <path class="st0" d="M2081.9,285.6c-.3,0-.8-.2-1.5-.6.3,0,.8.2,1.5.6Z"/>
  <path class="st0" d="M1309.4,882.3c.2-.3.8-.6,1.7-.9-.2.3-.8.6-1.7.9Z"/>
  <path class="st0" d="M1311.7,881.3c.2-.3.8-.6,1.7-1-.2.3-.8.7-1.7,1Z"/>
  <path class="st0" d="M505.4,286.4c0-.3.2-.9.5-1.8,0,.3-.2.9-.5,1.8Z"/>
  <path class="st0" d="M486.7,323.9c0-.4.2-1,.6-1.9,0,.4-.2,1-.6,1.9Z"/>
  <path class="st0" d="M1449,702.4c0,.3-.6.8-1.3,1.2,0-.4.6-.7,1.3-1.2Z"/>
  <path class="st0" d="M497.9,301.5c0-.4.2-1,.6-1.9,0,.4-.2,1-.6,1.9Z"/>
  <path class="st0" d="M643.8,169c.2-.3.6-.6,1.4-1-.2.3-.6.6-1.4,1Z"/>
  <path class="st0" d="M645.6,168c.2-.3.6-.6,1.4-.9-.2.3-.6.6-1.4.9Z"/>
  <path class="st0" d="M1218,845.4s-.2.2-.5.3c0,0,.2-.2.5-.3Z"/>
  <path class="st0" d="M1244.7,835.6c0,.2-.5.4-1.2.8,0-.2.5-.5,1.2-.8Z"/>
  <path class="st0" d="M1324.9,285.9c-.2,0-.4-.3-.8-.8.2,0,.4.3.8.8Z"/>
  <path class="st0" d="M329.4,274.5s-.2-.2-.4-.6c0,0,.2.2.4.6Z"/>
  <path class="st0" d="M1394.3,833.5c0-.2,0-.4.6-.7,0,0-.2.4-.6.7Z"/>
  <path class="st0" d="M1844.9,274.4c-.2,0-.6,0-1.4-.5.2,0,.6,0,1.4.5Z"/>
  <path class="st0" d="M1249.3,832.6l-.2-.2s0,.3,0,.2h.2Z"/>
  <path class="st0" d="M855.7,810.9s-.4,0-.8-.5c0,0,.4,0,.8.5Z"/>
  <path class="st0" d="M553.8,122.2v-.2c-.1,0-.1.2-.1.2h.1Z"/>
  <path class="st0" d="M728.6,809.5c.2,0,.5,0,.8.5-.2,0-.5,0-.8-.5Z"/>
  <path class="st0" d="M244.2,274v.5c-.2,0-.4-.3-.6-.9,0-.2.3,0,.6.4Z"/>
  <path class="st0" d="M1399,830.7c0-.2.3-.5.9-.8,0,.2-.3.5-.9.8Z"/>
  <path class="st0" d="M727.6,808.6c.2,0,.5,0,.8.5-.2,0-.5,0-.8-.5Z"/>
  <path class="st0" d="M1457.9,277.2c-.2,0-.6-.2-1.3-.6,0,0,.6.2,1.3.6Z"/>
  <path class="st0" d="M1294.6,891.1h0Z"/>
  <path class="st0" d="M613.4,128.1c-.2,0-.5-.2-1.1-.7.2,0,.5.2,1.1.7Z"/>
  <path class="st0" d="M1751.3,277.2c-.2.2-.4.2-.8.2,0-.3,0-.5.5-.8.3,0,.3.2.3.7h0Z"/>
  <path class="st0" d="M1339.3,867.2c0-.2.3-.5.8-.8,0,.2-.3.5-.8.8Z"/>
  <path class="st0" d="M1622.1,142.5c-.2,0-.5-.1-1.1-.5.2,0,.6,0,1.1.5Z"/>
  <path class="st0" d="M1739.8,286.8c0,.2,0,.4-.6.8,0-.2,0-.4.6-.8Z"/>
  <path class="st0" d="M1067.2,868.2h0Z"/>
  <path class="st0" d="M2070.9,277.1s-.5-.2-1.2-.5c0,0,.5,0,1.2.5Z"/>
  <path class="st0" d="M1297.6,887.6c0-.2.3-.4.9-.7,0,.2-.3.4-.9.7Z"/>
  <path class="st0" d="M981,275.3c-.2,0-.5,0-.8-.5.2,0,.4,0,.8.5Z"/>
  <path class="st0" d="M2080.1,284.8s-.3-.2-.7-.5c0,0,.3.2.7.5Z"/>
  <path class="st0" d="M1316.8,879.4c0-.3,0-.5.4-.8,0,.3,0,.5-.4.8Z"/>
  <path class="st0" d="M333.1,282.3c-.2,0-.4-.3-.7-.9.2,0,.4.3.7.9Z"/>
  <path class="st0" d="M1296.5,890.2h0Z"/>
  <path class="st0" d="M953,850.1c-.2,0-.6,0-1.2-.3.2,0,.6,0,1.2.3Z"/>
  <path class="st0" d="M1620.3,141.1c-.2,0-.5-.3-.8-.9.2,0,.5.3.8.9Z"/>
  <path class="st0" d="M1393,834.5c0-.2.3-.4.9-.8,0,.2-.3.5-.9.8Z"/>
  <path class="st0" d="M1575.8,574.4c-.2,0-.6,0-1.1-.4.2,0,.6,0,1.1.4Z"/>
  <path class="st0" d="M2077.9,478.8h0Z"/>
  <path class="st0" d="M1445.8,270.6c-.2,0-.6,0-1.3-.4.2,0,.6,0,1.3.4Z"/>
  <path class="st0" d="M608,181.4c.2,0,.5,0,.8.5-.2,0-.5,0-.8-.5Z"/>
  <path class="st0" d="M2058,490.4s.2-.3.6-.5c0,0-.2.3-.6.5Z"/>
  <path class="st0" d="M629.8,177.4c0-.2.3-.5.8-.9,0,.2-.3.5-.8.9Z"/>
  <path class="st0" d="M2055.8,491.4s.5-.4,1.2-.7c0,0-.5.4-1.2.7Z"/>
  <path class="st0" d="M1995.8,496.2h1.2s-.5.2-1.2,0Z"/>
  <path class="st0" d="M917.1,497.3c.2,0,.6,0,1.3.4-.2,0-.6,0-1.3-.4Z"/>
  <path class="st0" d="M1561.2,569.1c0,.2,0,.5-.5,1.1,0-.2,0-.5.5-1.1Z"/>
  <path class="st0" d="M265.9,318.8c.2,0,.4.3.8.9-.2,0-.4-.3-.8-.9Z"/>
  <path class="st0" d="M1560.2,570.5c0,.2,0,.5-.5,1,0,0,0-.5.5-1Z"/>
  <path class="st0" d="M868.8,477.1h0Z"/>
  <path class="st0" d="M1595.3,594.5c0-.2,0-.6.5-1.3,0,.2,0,.6-.5,1.3Z"/>
  <path class="st0" d="M614.8,597.8c-.1,0-.5,0-1-.6.2,0,.5.2,1,.6Z"/>
  <path class="st0" d="M1538.8,600.5c0,.2,0,.5-.6,1.1,0-.2,0-.5.6-1.1Z"/>
  <path class="st0" d="M1537.9,601.8c0,.2,0,.5-.5.8,0-.2,0-.5.5-.8Z"/>
  <path class="st0" d="M1532.2,609.3c0,.2,0,.5-.5,1.1,0-.2,0-.5.5-1.1Z"/>
  <path class="st0" d="M262.2,310.9c.2,0,.4.5.8,1.2-.2,0-.5-.4-.8-1.2Z"/>
  <path class="st0" d="M1575.7,632.4c0-.2,0-.6.4-1.1,0,.2,0,.6-.4,1.1Z"/>
  <path class="st0" d="M1574.9,633.5c0-.2,0-.5.4-.9,0,.2,0,.5-.4.9Z"/>
  <path class="st0" d="M585.7,642.5c.1,0,.3.3.7.7-.1,0-.3-.3-.7-.7Z"/>
  <path class="st0" d="M1501.4,648.1c0,.2,0,.5-.5,1,0-.2,0-.5.5-1Z"/>
  <path class="st0" d="M1500.4,649.4c.2.3,0,.5-.5.8,0-.2,0-.5.5-.8Z"/>
  <path class="st0" d="M323.9,435.6s.4.2.7.6c0,0-.4-.2-.7-.6Z"/>
  <path class="st0" d="M289.3,365.1s.3.5.7,1.2c0,0-.3-.5-.7-1.2Z"/>
  <path class="st0" d="M321.1,429.9s.4.2.7.6c0,0-.4-.2-.7-.6Z"/>
  <path class="st0" d="M323,434.2c.2,0,.4.3.8.9-.2,0-.4-.3-.8-.9Z"/>
  <path class="st0" d="M1499.4,650.3c0,.3,0,.5-.4.8,0-.3,0-.5.4-.8Z"/>
  <path class="st0" d="M1927.9,445.9c.2,0,.5,0,.8.5-.2,0-.5,0-.8-.5Z"/>
  <path class="st0" d="M1355.1,335.7c0-.2,0-.5.5-1,0,.2,0,.5-.5,1Z"/>
  <path class="st0" d="M801.5,334.6h.5c.2,0,0,.2,0,.2h-.5v-.2Z"/>
  <path class="st0" d="M854.8,464.6c.2,0,.5.3.8.8-.2,0-.5-.3-.8-.8Z"/>
  <path class="st0" d="M610.4,187.2h0Z"/>
  <path class="st0" d="M2083.3,469.9c0-.2,0-.4.5-.8,0,0,0,.4-.5.8Z"/>
  <path class="st0" d="M2082.3,470.8c0-.2,0-.4.6-.7,0,0-.2.4-.6.7Z"/>
  <path class="st0" d="M992.4,473.8s.2-.4.6-.9c0,0-.2.4-.6.9Z"/>
  <path class="st0" d="M1952.3,473.9c.2,0,.5,0,.9.5-.2,0-.5,0-.9-.5Z"/>
  <path class="st0" d="M2075.9,477.4c0-.2.3-.4.8-.8,0,.2-.3.4-.8.8Z"/>
  <path class="st0" d="M1367.8,769.1c0,.2,0,.4-.6.8,0-.2,0-.4.6-.8Z"/>
  <path class="st0" d="M1403.6,742c0,.2-.3.5-.9.8,0-.2.3-.5.9-.8Z"/>
  <path class="st0" d="M657.5,742.7c.2,0,.5.3.8.9-.2,0-.5-.3-.8-.9Z"/>
  <path class="st0" d="M1402.3,742.9c0,.2,0,.5-.5.8,0-.2,0-.5.5-.8Z"/>
  <path class="st0" d="M1401.3,743.8c0,.2,0,.4-.5.8,0-.2,0-.4.5-.8Z"/>
  <path class="st0" d="M660,746c.2,0,.5,0,1.1.5-.2,0-.5,0-1.1-.5Z"/>
  <path class="st0" d="M661.2,746.9c.3,0,.5,0,.8.5-.2,0-.5,0-.8-.5Z"/>
  <path class="st0" d="M1397.7,746.7c0,.2,0,.4-.6.8,0-.2,0-.4.6-.8Z"/>
  <path class="st0" d="M662.2,747.9c.3,0,.5,0,.8.5-.2,0-.5,0-.8-.5Z"/>
  <path class="st0" d="M759.3,748.2c-.2,0-.5,0-1.1-.5.2,0,.5,0,1.1.5Z"/>
  <path class="st0" d="M670.3,756.3c.2,0,.5.3,1.1.9-.2,0-.5-.3-1.1-.9Z"/>
  <path class="st0" d="M671.6,757.7c.2,0,.5.4.9,1.1-.2,0-.5-.4-.9-1.1Z"/>
  <path class="st0" d="M1379.8,760.2s-.2.2-.7.4c0,0,.2-.2.7-.4Z"/>
  <path class="st0" d="M1500,740.1c0-.2,0-.4.5-.8,0,.2,0,.5-.5.8Z"/>
  <path class="st0" d="M1461.7,779.4c0-.2,0-.4.5-.8,0,.2,0,.5-.5.8Z"/>
  <path class="st0" d="M1460.8,780.3c0-.2,0-.5.5-.8,0,.2,0,.5-.5.8Z"/>
  <path class="st0" d="M1459.8,781.2c0-.2,0-.4.5-.8,0,.2,0,.4-.5.8Z"/>
  <path class="st0" d="M1458.5,782.2c0-.2.3-.5.8-.9,0,.2-.3.5-.8.9Z"/>
  <path class="st0" d="M1946.4,291.1c0,.2,0,.5-.6,1,0-.2,0-.5.6-1Z"/>
  <path class="st0" d="M1443.9,795.3c0-.2,0-.5.5-.8,0,.2,0,.5-.5.8Z"/>
  <path class="st0" d="M1442.6,796.2c0-.2.3-.4.9-.8,0,.2-.3.5-.9.8Z"/>
  <path class="st0" d="M714.6,797.9c.2,0,.5.3.9.8-.2,0-.5-.2-.9-.8Z"/>
  <path class="st0" d="M718.3,801.1c.2,0,.4.2.8.5-.2,0-.4,0-.8-.5Z"/>
  <path class="st0" d="M719.3,802c.2,0,.4,0,.8.5-.2,0-.4,0-.8-.5Z"/>
  <path class="st0" d="M1351.9,291.1s-.2.5-.6,1c0,0,.2-.5.6-1Z"/>
  <path class="st0" d="M1420.4,727.9c0,.2-.3.5-.8.8,0-.2.3-.5.8-.8Z"/>
  <path class="st0" d="M1498.5,651.3c0,.2,0,.5-.4.8,0-.2,0-.5.4-.8Z"/>
  <path class="st0" d="M1563.6,653.5c0-.2,0-.6.4-1.1,0,.2,0,.6-.4,1.1Z"/>
  <path class="st0" d="M1562.7,654.9c0-.2,0-.6.5-1.1,0,.2,0,.6-.5,1.1Z"/>
  <path class="st0" d="M1486.6,664.6c.2-.2.5-.2.6-.3,0,.2-.4.5-.9.9,0,0,0-.2.2-.6h.1Z"/>
  <path class="st0" d="M259,304s.1,0,.3.4c0,0-.1-.2-.3-.4Z"/>
  <path class="st0" d="M1475.3,676.6c0,.2,0,.5-.5.8,0-.2,0-.5.5-.8Z"/>
  <path class="st0" d="M1627.1,148.2s-.5-.2-1-.6c0,0,.5.2,1,.6Z"/>
  <path class="st0" d="M629.2,708.6c.2,0,.5.3,1,.9-.1,0-.5-.3-1-.9Z"/>
  <path class="st0" d="M713.6,709.9c-.2,0-.5,0-.9-.4.2,0,.5,0,.9.4Z"/>
  <path class="st0" d="M340.6,299c-.2,0-.4-.5-.8-1.2.2,0,.4.5.8,1.2Z"/>
  <path class="st0" d="M1436.9,713.6s-.3.5-.9,1.1c0,0,.3-.5.9-1.1Z"/>
  <path class="st0" d="M1422.3,726.9c-.2,0-.2-.2-.2-.6.2-.3.3-.3.7-.3,0,.3,0,.6-.5.9h0Z"/>
  <path class="st0" d="M718.8,804.1h0Z"/>
  <path class="st0" d="M1945.4,292.4c0,.2,0,.4-.5.8,0-.2,0-.5.5-.8Z"/>
  <path class="st0" d="M737.8,730.8c-.2,0-.6-.2-1.1-.8.2,0,.6.2,1.1.8Z"/>
  <path class="st0" d="M636,146.3c-.2,0-.4-.1-.8-.5.2,0,.4.1.8.5Z"/>
  <path class="st0" d="M1508.5,730.8c-.2-.3,0-.5.5-.8,0,.2,0,.5-.5.8Z"/>
  <path class="st0" d="M1507.6,731.7c0-.3,0-.5.5-.8,0,.2,0,.5-.5.8Z"/>
  <path class="st0" d="M1413.4,733.6c0,.2-.2.5-.8.9,0-.2.2-.5.8-.9Z"/>
  <path class="st0" d="M1504.7,735.4c0-.2,0-.5.5-.9,0,.2,0,.5-.5.9Z"/>
  <path class="st0" d="M1735.1,292.4c0,.2-.2.4-.6.8,0,0,0-.4.6-.8Z"/>
  <path class="st0" d="M651.9,736.2c.2,0,.5.3.8.9-.2,0-.5-.3-.8-.9Z"/>
  <path class="st0" d="M1407.9,738.3c0,.2,0,.4-.5.8,0-.2,0-.4.5-.8Z"/>
  <path class="st0" d="M2036.4,430.6c.4-.5,1.3-1.4,1.9-1.2,4.4,1,8.5-.8,13.1-.7-4.5,2.1-9.5,2.4-15,1.9h0Z"/>
  <path class="st0" d="M2005.6,416c2,1.4,4.1,3.1,6.4,5.1-2.8-.4-4.7-2.4-6.4-5.1Z"/>
  <path class="st0" d="M2012.1,421.6c1.8.8,3.7,1.8,5.8,3.2-1.8-.8-3.8-1.8-5.8-3.2Z"/>
  <path class="st0" d="M2000.4,349.3c-.8,1.6-1.8,3.5-3.1,5.5-.4-2.3,1.1-3.9,3.1-5.5Z"/>
  <path class="st0" d="M2055,332.7c-1.6-.6-3.1-1.2-4.9-1.9,1.3,0,2.8.4,4.6,1.1.3.5.3.7.3.9h0Z"/>
  <path class="st0" d="M2073.5,344c-1.5-.7-3.6-1.2-4.5-3.7,1.4.9,2.8,2.2,4.5,3.7Z"/>
  <path class="st0" d="M2064.1,336.1c-1.6,0-3.5-.2-4.8-2.3,1.4.5,3,1.3,4.8,2.3Z"/>
  <path class="st0" d="M2081.2,355.1c-1.5-.4-2.1-1.6-2-3.6.7.9,1.3,2.1,2,3.6Z"/>
  <path class="st0" d="M2055.3,332.8c-.3-.3-.3-.5-.3-.9,1.2.2,2.5.7,4,1.4-.9,0-2.1-.2-3.7-.5Z"/>
  <path class="st0" d="M2076.4,347.7c-.8-.7-1.8-1.7-2.7-3.1.8.7,1.7,1.7,2.7,3.1Z"/>
  <path class="st0" d="M2067.9,338.9c-.7-.2-1.5-.7-2.5-1.5.7.2,1.5.7,2.5,1.5Z"/>
  <path class="st0" d="M1996.8,355.1c0,.6-.6,1.3-1.3,2.2,0-.6.6-1.3,1.3-2.2Z"/>
  <path class="st0" d="M2019.7,426.2c.3,0,.9.3,1.6.7-.3,0-.9-.3-1.6-.7Z"/>
  <path class="st0" d="M2079.1,351s-.4-.3-.7-.9c.2,0,.4.3.7.9Z"/>
  <path class="st0" d="M2001.8,347.7s-.3.5-.8,1c0,0,.3-.5.8-1Z"/>
  <path class="st0" d="M2003.7,413.7c.2,0,.4.3.8.9-.2,0-.4-.3-.8-.9Z"/>
  <path class="st0" d="M2004.6,415c.2,0,.4,0,.8.6-.2,0-.4,0-.8-.6Z"/>
  <path class="st0" d="M2018.3,425.3c.2,0,.5,0,1.1.5-.2,0-.5,0-1.1-.5Z"/>
  <path class="st0" d="M2068.9,339.9s-.4,0-.8-.6c.2,0,.4.2.8.6Z"/>
  <path class="st0" d="M2053,428.6s.5-.4,1.2-.7c0,0-.5.3-1.2.7Z"/>
  <path class="st0" d="M2032.5,430s.6,0,1.3.3c-.2,0-.6,0-1.3-.3Z"/>
  <path class="st0" d="M2065.2,337c-.2,0-.5,0-.8-.5.2,0,.5,0,.8.5Z"/>
  <path class="st0" d="M959.3,329.7h-11.9c3.5-1.4,7.5-1.1,11.9,0Z"/>
  <path class="st0" d="M945.1,329.6h-.5.5Z"/>
  <path class="st0" d="M1656.8,490.1c-.3-2.3-1-5.1-1-7.8v-203.1c0-2.6.3-5.3.6-8.3.2,1.8.3,4,.3,6.2v213h0Z"/>
  <path class="st0" d="M1731.4,371.9c.2,1.4.3,3.1.3,4.8v105.8c0,2.5-.4,4.9-.8,7.7-.2-37.1-.2-74.6-.2-112s.4-4,.7-6.3h0Z"/>
  <path class="st0" d="M1657.2,269.9c1.7-.3,3.8-1,5.9-1h61.4c1.8,0,3.7.4,5.9.8-24,.2-48.3.2-73.1.2h-.1Z"/>
  <path class="st0" d="M1532.5,377.4v-98.5c0-8.7.3-8.9,8.9-9h57c7.4,0,8,.6,8,8v204.6c0,7.4-.5,8-8,8h-61.6c-2.9-.4-3.8-1.2-4.1-4.1-.2-1.9,0-3.7,0-5.6v-103.2h0v-.2Z"/>
  <path class="st0" d="M1511.4,728.4v.2s-.2,0,0-.2Z"/>
  <path class="st0" d="M2077,351.7h0Z"/>
</svg>